<svg xmlns="http://www.w3.org/2000/svg" width="37.085" height="37.085" viewBox="0 0 37.085 37.085">
  <g id="attach_file_black_48dp" transform="matrix(0.848, 0.53, -0.53, 0.848, 14.262, 0)">
    <path id="Path_62" data-name="Path 62" d="M0,0H26.913V26.913H0Z" fill="none"/>
    <path id="Path_63" data-name="Path 63" d="M10.653,6.447V18.311A4.615,4.615,0,0,1,6.6,22.965,4.478,4.478,0,0,1,1.682,18.5V4.642A2.911,2.911,0,0,1,4.194,1.692,2.8,2.8,0,0,1,7.289,4.485V16.259a1.121,1.121,0,0,1-2.243,0V6.447a.841.841,0,1,0-1.682,0V16.1a2.911,2.911,0,0,0,2.512,2.949,2.8,2.8,0,0,0,3.095-2.792V4.675A4.615,4.615,0,0,0,4.923.021,4.484,4.484,0,0,0,0,4.485V18.244a6.346,6.346,0,0,0,5.562,6.4A6.173,6.173,0,0,0,12.335,18.5V6.447a.841.841,0,0,0-1.682,0Z" transform="translate(7.85 1.122)" fill="#545454"/>
  </g>
</svg>
