<svg id="photo_camera_black_48dp" xmlns="http://www.w3.org/2000/svg" width="31.624" height="31.624" viewBox="0 0 31.624 31.624">
  <path id="Path_29" data-name="Path 29" d="M0,0H31.624V31.624H0Z" fill="none"/>
  <circle id="Ellipse_1" data-name="Ellipse 1" cx="3.856" cy="3.856" r="3.856" transform="translate(11.862 12.017)" fill="#545454"/>
  <path id="Path_30" data-name="Path 30" d="M25.718,4.635H21.541L19.907,2.856A2.623,2.623,0,0,0,17.97,2H12.383a2.674,2.674,0,0,0-1.95.856L8.812,4.635H4.635A2.643,2.643,0,0,0,2,7.271V23.083a2.643,2.643,0,0,0,2.635,2.635H25.718a2.643,2.643,0,0,0,2.635-2.635V7.271A2.643,2.643,0,0,0,25.718,4.635ZM15.177,21.765a6.588,6.588,0,1,1,6.588-6.588A6.591,6.591,0,0,1,15.177,21.765Z" transform="translate(0.635 0.635)" fill="#545454"/>
</svg>
