<svg xmlns="http://www.w3.org/2000/svg" width="103" height="103" viewBox="0 0 103 103">
  <g id="g10" transform="translate(0 1599.996)">
    <g id="g12" transform="translate(0 -1599.996)">
      <path id="path14" d="M7.627-1589.66v3.9c.326-.783.67-1.557,1.041-2.318,1.035-2.124,2.335-4.082,3.5-6.125A11.058,11.058,0,0,0,13.922-1600H12.376c-.631,1.032-1.476,1.909-2.119,2.933a22.673,22.673,0,0,0-2.631,7.4" transform="translate(-7.136 1599.996)" fill="#eaeaea"/>
      <path id="path16" d="M7.506-1600H6.99c.013.274.027.548.045.821.153-.276.311-.549.471-.821" transform="translate(-6.54 1599.996)" fill="#eaeaea"/>
      <path id="path18" d="M7.627-1593.208a17.244,17.244,0,0,1,2.637-5.4c.348-.46.711-.912,1.037-1.384H9.117a16.516,16.516,0,0,0-1.491,2.893v3.9" transform="translate(-7.136 1599.996)" fill="#eaeaea"/>
      <path id="path20" d="M274.293-1589.66v3.9c.326-.783.67-1.557,1.041-2.318,1.035-2.124,2.335-4.082,3.505-6.125a11.058,11.058,0,0,0,1.749-5.789h-1.546c-.631,1.032-1.476,1.909-2.119,2.933a22.674,22.674,0,0,0-2.631,7.4" transform="translate(-256.635 1599.996)" fill="#eaeaea"/>
      <path id="path22" d="M274.293-1593.208a17.243,17.243,0,0,1,2.637-5.4c.348-.46.711-.912,1.036-1.384h-2.183a16.52,16.52,0,0,0-1.491,2.893v3.9" transform="translate(-256.635 1599.996)" fill="#eaeaea"/>
      <path id="path24" d="M274.173-1600h-.516c.013.274.027.548.045.821.153-.276.311-.549.471-.821" transform="translate(-256.04 1599.996)" fill="#eaeaea"/>
      <path id="path26" d="M252.01-1600h-.516c.16.272.318.546.471.821.018-.274.032-.548.045-.821" transform="translate(-235.304 1599.996)" fill="#eaeaea"/>
      <path id="path28" d="M266.487-1360.01h-.012l.006.015.006-.016" transform="translate(-249.321 1375.459)" fill="#eaeaea"/>
      <path id="path30" d="M205.476-1593.208v-3.9a16.508,16.508,0,0,0-1.49-2.893H201.8c.326.471.689.924,1.037,1.384a17.243,17.243,0,0,1,2.637,5.4" transform="translate(-188.811 1599.996)" fill="#eaeaea"/>
      <path id="path32" d="M161.185-1598.168a14.251,14.251,0,0,0,1.952,4.518c.613,1.035,1.248,2.057,1.853,3.1a41.571,41.571,0,0,1,2.367,4.807v-3.912a35.091,35.091,0,0,0-1.13-4.224,15.275,15.275,0,0,0-1.8-3.634c-.58-.843-1.284-1.606-1.821-2.48h-1.525a6.838,6.838,0,0,0,.1,1.828" transform="translate(-150.693 1599.996)" fill="#eaeaea"/>
      <path id="path34" d="M427.851-1598.168a14.251,14.251,0,0,0,1.952,4.518c.613,1.035,1.248,2.057,1.853,3.1a41.571,41.571,0,0,1,2.367,4.807v-3.912a35.093,35.093,0,0,0-1.13-4.224,15.272,15.272,0,0,0-1.8-3.634c-.58-.843-1.284-1.606-1.821-2.48h-1.525a6.838,6.838,0,0,0,.1,1.828" transform="translate(-400.192 1599.996)" fill="#eaeaea"/>
      <path id="path36" d="M472.142-1593.208v-3.9a16.507,16.507,0,0,0-1.49-2.893h-2.184c.326.471.689.924,1.037,1.384a17.244,17.244,0,0,1,2.637,5.4" transform="translate(-438.31 1599.996)" fill="#eaeaea"/>
      <path id="path38" d="M518.676-1600h-.516c.16.272.318.546.471.821.018-.274.032-.548.045-.821" transform="translate(-484.803 1599.996)" fill="#eaeaea"/>
      <path id="path40" d="M540.839-1600h-.516q.019.411.045.821c.153-.276.311-.549.471-.821" transform="translate(-505.539 1599.996)" fill="#eaeaea"/>
      <path id="path42" d="M540.959-1589.66v3.9c.326-.783.67-1.557,1.041-2.318,1.035-2.124,2.335-4.082,3.505-6.125a11.06,11.06,0,0,0,1.749-5.789h-1.546c-.631,1.032-1.476,1.909-2.119,2.933a22.673,22.673,0,0,0-2.631,7.4" transform="translate(-506.134 1599.996)" fill="#eaeaea"/>
      <path id="path44" d="M533.153-1360.01h-.012l.006.015.006-.016" transform="translate(-498.82 1375.459)" fill="#eaeaea"/>
      <path id="path46" d="M540.959-1593.208a17.244,17.244,0,0,1,2.637-5.4c.348-.46.711-.912,1.037-1.384h-2.183a16.518,16.518,0,0,0-1.49,2.893v3.9" transform="translate(-506.134 1599.996)" fill="#eaeaea"/>
      <path id="path48" d="M807.625-1593.208a17.244,17.244,0,0,1,2.637-5.4c.348-.46.711-.912,1.037-1.384h-2.183a16.518,16.518,0,0,0-1.49,2.893v3.9" transform="translate(-755.634 1599.996)" fill="#eaeaea"/>
      <path id="path50" d="M807.625-1589.66v3.9c.326-.783.67-1.557,1.041-2.318,1.035-2.124,2.335-4.082,3.505-6.125A11.059,11.059,0,0,0,813.92-1600h-1.546c-.631,1.032-1.476,1.909-2.119,2.933a22.673,22.673,0,0,0-2.631,7.4" transform="translate(-755.634 1599.996)" fill="#eaeaea"/>
      <path id="path52" d="M807.5-1600h-.516q.019.411.045.821c.153-.276.311-.549.471-.821" transform="translate(-755.039 1599.996)" fill="#eaeaea"/>
      <path id="path54" d="M785.342-1600h-.516c.16.272.318.546.471.821q.027-.411.045-.821" transform="translate(-734.303 1599.996)" fill="#eaeaea"/>
      <path id="path56" d="M738.808-1593.208v-3.9a16.505,16.505,0,0,0-1.49-2.893h-2.183c.326.471.689.924,1.037,1.384a17.244,17.244,0,0,1,2.637,5.4" transform="translate(-687.81 1599.996)" fill="#eaeaea"/>
      <path id="path58" d="M799.819-1360.01h-.012l.006.015.006-.016" transform="translate(-748.32 1375.459)" fill="#eaeaea"/>
      <path id="path60" d="M694.517-1598.168a14.25,14.25,0,0,0,1.952,4.518c.613,1.035,1.248,2.057,1.853,3.1a41.571,41.571,0,0,1,2.367,4.807v-3.912a35.088,35.088,0,0,0-1.13-4.224,15.271,15.271,0,0,0-1.8-3.634c-.58-.843-1.284-1.606-1.821-2.48h-1.525a6.837,6.837,0,0,0,.1,1.828" transform="translate(-649.692 1599.996)" fill="#eaeaea"/>
      <path id="path62" d="M1005.474-1593.208v-3.9a16.509,16.509,0,0,0-1.49-2.893H1001.8c.326.471.689.924,1.037,1.384a17.245,17.245,0,0,1,2.637,5.4" transform="translate(-937.309 1599.996)" fill="#eaeaea"/>
      <path id="path64" d="M1052.008-1600h-.516c.16.272.318.546.471.821.018-.274.032-.548.045-.821" transform="translate(-983.802 1599.996)" fill="#eaeaea"/>
      <path id="path66" d="M1066.485-1360.01h-.012l.006.015.006-.016" transform="translate(-997.819 1375.459)" fill="#eaeaea"/>
      <path id="path68" d="M961.183-1598.168a14.253,14.253,0,0,0,1.952,4.518c.613,1.035,1.248,2.057,1.854,3.1a41.571,41.571,0,0,1,2.367,4.807v-3.912a35.1,35.1,0,0,0-1.13-4.224,15.271,15.271,0,0,0-1.8-3.634c-.58-.843-1.284-1.606-1.821-2.48h-1.525a6.839,6.839,0,0,0,.1,1.828" transform="translate(-899.191 1599.996)" fill="#eaeaea"/>
      <path id="path70" d="M1074.171-1600h-.516q.019.411.045.821c.153-.276.311-.549.471-.821" transform="translate(-1004.538 1599.996)" fill="#eaeaea"/>
      <path id="path72" d="M1074.291-1589.66v3.9c.326-.783.67-1.557,1.041-2.318,1.035-2.124,2.335-4.082,3.505-6.125a11.06,11.06,0,0,0,1.749-5.789h-1.546c-.631,1.032-1.476,1.909-2.119,2.933a22.67,22.67,0,0,0-2.631,7.4" transform="translate(-1005.133 1599.996)" fill="#eaeaea"/>
      <path id="path74" d="M1074.291-1593.208a17.243,17.243,0,0,1,2.637-5.4c.348-.46.711-.912,1.037-1.384h-2.183a16.522,16.522,0,0,0-1.49,2.893v3.9" transform="translate(-1005.133 1599.996)" fill="#eaeaea"/>
      <path id="path76" d="M1340.957-1589.66v3.9c.326-.783.67-1.557,1.041-2.318,1.035-2.124,2.335-4.082,3.505-6.125a11.065,11.065,0,0,0,1.749-5.789h-1.546c-.631,1.032-1.476,1.909-2.119,2.933a22.681,22.681,0,0,0-2.631,7.4" transform="translate(-1254.632 1599.996)" fill="#eaeaea"/>
      <path id="path78" d="M1227.849-1598.168a14.252,14.252,0,0,0,1.952,4.518c.613,1.035,1.248,2.057,1.853,3.1a41.581,41.581,0,0,1,2.367,4.807v-3.912a35.088,35.088,0,0,0-1.13-4.224,15.268,15.268,0,0,0-1.8-3.634c-.58-.843-1.284-1.606-1.822-2.48h-1.525a6.842,6.842,0,0,0,.1,1.828" transform="translate(-1148.69 1599.996)" fill="#eaeaea"/>
      <path id="path80" d="M1340.833-1600h-.516c.013.274.027.548.046.821.152-.276.311-.549.47-.821" transform="translate(-1254.034 1599.996)" fill="#eaeaea"/>
      <path id="path82" d="M1318.674-1600h-.516c.16.272.318.546.471.821q.027-.411.045-.821" transform="translate(-1233.301 1599.996)" fill="#eaeaea"/>
      <path id="path84" d="M1340.957-1593.208a17.233,17.233,0,0,1,2.638-5.4c.348-.46.711-.912,1.036-1.384h-2.183a16.515,16.515,0,0,0-1.491,2.893v3.9" transform="translate(-1254.632 1599.996)" fill="#eaeaea"/>
      <path id="path86" d="M1272.14-1593.208v-3.9a16.505,16.505,0,0,0-1.49-2.893h-2.183c.326.471.689.924,1.037,1.384a17.245,17.245,0,0,1,2.637,5.4" transform="translate(-1186.809 1599.996)" fill="#eaeaea"/>
      <path id="path88" d="M1333.151-1360.01h-.012l.006.015.006-.016" transform="translate(-1247.318 1375.459)" fill="#eaeaea"/>
      <path id="path90" d="M1599.821-1360.01h-.011l.005.015.006-.016" transform="translate(-1496.822 1375.459)" fill="#eaeaea"/>
      <path id="path92" d="M1538.8-1593.208v-3.9a16.524,16.524,0,0,0-1.491-2.893h-2.184c.326.471.689.924,1.037,1.384a17.267,17.267,0,0,1,2.638,5.4" transform="translate(-1436.305 1599.996)" fill="#eaeaea"/>
      <path id="path94" d="M1585.339-1600h-.516c.16.272.318.546.471.821.018-.274.032-.548.045-.821" transform="translate(-1482.8 1599.996)" fill="#eaeaea"/>
      <path id="path96" d="M1494.516-1598.168a14.239,14.239,0,0,0,1.952,4.518c.613,1.035,1.248,2.057,1.853,3.1a41.685,41.685,0,0,1,2.368,4.807v-3.912a35.3,35.3,0,0,0-1.13-4.224,15.273,15.273,0,0,0-1.8-3.634c-.58-.843-1.284-1.606-1.821-2.48h-1.525a6.817,6.817,0,0,0,.1,1.828" transform="translate(-1398.191 1599.996)" fill="#eaeaea"/>
      <path id="path98" d="M1478.683-480.123c-.613-1.035-1.248-2.057-1.853-3.1a41.469,41.469,0,0,1-2.367-4.806v3.913a35.1,35.1,0,0,0,1.13,4.223,15.284,15.284,0,0,0,1.8,3.634,21.163,21.163,0,0,1,2.227,3.239,5.56,5.56,0,0,1,.425,1.485,5.821,5.821,0,0,0,.593-4.072,14.233,14.233,0,0,0-1.952-4.518" transform="translate(-1379.544 559.61)" fill="#eaeaea"/>
      <path id="path100" d="M1441.74-168.155a9.989,9.989,0,0,0,1.609,4.995,10,10,0,0,0,1.609-4.995,13.276,13.276,0,0,0-1.609-5.085,13.275,13.275,0,0,0-1.609,5.085" transform="translate(-1348.927 265.087)" fill="#eaeaea"/>
      <path id="path102" d="M1477.1-366.706a17.256,17.256,0,0,1-2.637-5.4v3.9a20.657,20.657,0,0,0,1.8,3.413,11.4,11.4,0,0,1,1.405,3.435,10.3,10.3,0,0,1,.183,2.776,5.849,5.849,0,0,0,1.381-3.875c-.067-1.723-1.158-2.955-2.13-4.24" transform="translate(-1379.544 451.156)" fill="#eaeaea"/>
      <path id="path104" d="M1422.171-278.5q-.021-.467-.051-.935a19.933,19.933,0,0,0-2.255,4.581,9.538,9.538,0,0,0,.44,5.919,24.431,24.431,0,0,1,1.784-4.62c.106-1.642.046-3.3.082-4.945" transform="translate(-1328.199 364.443)" fill="#eaeaea"/>
      <path id="path106" d="M1367.364-483.856v-3.9c-.326.783-.67,1.558-1.041,2.319-1.035,2.124-2.336,4.082-3.505,6.125-1.319,2.3-2.614,5.584-1.033,8.047a5.7,5.7,0,0,1,.656-1.961c.642-1.164,1.589-2.109,2.293-3.23a22.684,22.684,0,0,0,2.631-7.4" transform="translate(-1273.438 559.353)" fill="#eaeaea"/>
      <path id="path108" d="M1389.694-368.216v-3.9a17.24,17.24,0,0,1-2.638,5.4c-.973,1.285-2.063,2.517-2.13,4.24a5.847,5.847,0,0,0,1.38,3.875,10.374,10.374,0,0,1,.183-2.776,11.407,11.407,0,0,1,1.406-3.435,20.728,20.728,0,0,0,1.8-3.413" transform="translate(-1295.768 451.156)" fill="#eaeaea"/>
      <path id="path110" d="M1473.78-279.431q-.03.467-.051.935c.036,1.646-.024,3.3.082,4.945a24.456,24.456,0,0,1,1.784,4.62,9.531,9.531,0,0,0,.439-5.919,19.893,19.893,0,0,0-2.255-4.581" transform="translate(-1378.858 364.443)" fill="#eaeaea"/>
      <path id="path112" d="M1466.681-506.873h.007l-.005-.015-.006.015h0" transform="translate(-1372.259 577.257)" fill="#eaeaea"/>
      <path id="path114" d="M1200.012-506.873h.007l-.006-.015-.006.015h0" transform="translate(-1122.757 577.257)" fill="#eaeaea"/>
      <path id="path116" d="M1175.069-168.155a9.994,9.994,0,0,0,1.609,4.995,9.994,9.994,0,0,0,1.609-4.995,13.28,13.28,0,0,0-1.609-5.085,13.278,13.278,0,0,0-1.609,5.085" transform="translate(-1099.422 265.087)" fill="#eaeaea"/>
      <path id="path118" d="M1212.011-480.123c-.613-1.035-1.248-2.057-1.854-3.1a41.528,41.528,0,0,1-2.367-4.806v3.913a35.1,35.1,0,0,0,1.13,4.223,15.28,15.28,0,0,0,1.8,3.634,21.126,21.126,0,0,1,2.226,3.239,5.566,5.566,0,0,1,.426,1.485,5.824,5.824,0,0,0,.593-4.072,14.247,14.247,0,0,0-1.952-4.518" transform="translate(-1130.039 559.61)" fill="#eaeaea"/>
      <path id="path120" d="M1123.023-368.216v-3.9a17.252,17.252,0,0,1-2.637,5.4c-.973,1.285-2.064,2.517-2.13,4.24a5.85,5.85,0,0,0,1.381,3.875,10.339,10.339,0,0,1,.183-2.776,11.406,11.406,0,0,1,1.406-3.435,20.7,20.7,0,0,0,1.8-3.413" transform="translate(-1046.264 451.156)" fill="#eaeaea"/>
      <path id="path122" d="M1155.5-278.5q-.021-.467-.051-.935a19.923,19.923,0,0,0-2.255,4.581,9.534,9.534,0,0,0,.44,5.919,24.449,24.449,0,0,1,1.784-4.62c.106-1.642.046-3.3.082-4.945" transform="translate(-1078.698 364.443)" fill="#eaeaea"/>
      <path id="path124" d="M1100.7-483.856v-3.9c-.326.783-.67,1.558-1.041,2.319-1.035,2.124-2.335,4.082-3.505,6.125-1.32,2.3-2.614,5.584-1.033,8.047a5.72,5.72,0,0,1,.656-1.961c.642-1.164,1.589-2.109,2.293-3.23a22.678,22.678,0,0,0,2.631-7.4" transform="translate(-1023.938 559.353)" fill="#eaeaea"/>
      <path id="path126" d="M1207.118-279.431q-.03.467-.051.935c.036,1.646-.025,3.3.082,4.945a24.463,24.463,0,0,1,1.784,4.62,9.536,9.536,0,0,0,.44-5.919,19.923,19.923,0,0,0-2.255-4.581" transform="translate(-1129.363 364.443)" fill="#eaeaea"/>
      <path id="path128" d="M1210.428-366.706a17.25,17.25,0,0,1-2.637-5.4v3.9a20.694,20.694,0,0,0,1.8,3.413,11.391,11.391,0,0,1,1.406,3.435,10.334,10.334,0,0,1,.183,2.776,5.85,5.85,0,0,0,1.381-3.875c-.067-1.723-1.158-2.955-2.13-4.24" transform="translate(-1130.039 451.156)" fill="#eaeaea"/>
      <path id="path130" d="M888.837-278.5q-.021-.467-.051-.935a19.923,19.923,0,0,0-2.255,4.581,9.534,9.534,0,0,0,.44,5.919,24.449,24.449,0,0,1,1.784-4.62c.106-1.642.046-3.3.082-4.945" transform="translate(-829.199 364.443)" fill="#eaeaea"/>
      <path id="path132" d="M856.357-368.216v-3.9a17.251,17.251,0,0,1-2.637,5.4c-.973,1.285-2.064,2.517-2.13,4.24a5.85,5.85,0,0,0,1.381,3.875,10.342,10.342,0,0,1,.183-2.776,11.406,11.406,0,0,1,1.406-3.435,20.715,20.715,0,0,0,1.8-3.413" transform="translate(-796.764 451.156)" fill="#eaeaea"/>
      <path id="path134" d="M933.346-506.873h.007l-.006-.015-.006.015h0" transform="translate(-873.258 577.257)" fill="#eaeaea"/>
      <path id="path136" d="M940.452-279.431q-.03.467-.051.935c.036,1.646-.025,3.3.082,4.945a24.459,24.459,0,0,1,1.784,4.62,9.535,9.535,0,0,0,.44-5.919,19.918,19.918,0,0,0-2.255-4.581" transform="translate(-879.863 364.443)" fill="#eaeaea"/>
      <path id="path138" d="M943.762-366.706a17.251,17.251,0,0,1-2.637-5.4v3.9a20.694,20.694,0,0,0,1.8,3.413,11.394,11.394,0,0,1,1.406,3.435,10.334,10.334,0,0,1,.183,2.776,5.85,5.85,0,0,0,1.381-3.875c-.067-1.723-1.158-2.955-2.13-4.24" transform="translate(-880.539 451.156)" fill="#eaeaea"/>
      <path id="path140" d="M834.031-483.856v-3.9c-.326.783-.67,1.558-1.041,2.319-1.035,2.124-2.335,4.082-3.505,6.125-1.32,2.3-2.614,5.584-1.033,8.047a5.72,5.72,0,0,1,.656-1.961c.642-1.164,1.589-2.109,2.293-3.23a22.675,22.675,0,0,0,2.631-7.4" transform="translate(-774.439 559.353)" fill="#eaeaea"/>
      <path id="path142" d="M945.345-480.123c-.613-1.035-1.248-2.057-1.853-3.1a41.538,41.538,0,0,1-2.367-4.806v3.913a35.091,35.091,0,0,0,1.13,4.223,15.278,15.278,0,0,0,1.8,3.634,21.122,21.122,0,0,1,2.226,3.239,5.564,5.564,0,0,1,.426,1.485,5.824,5.824,0,0,0,.593-4.072,14.247,14.247,0,0,0-1.952-4.518" transform="translate(-880.539 559.61)" fill="#eaeaea"/>
      <path id="path144" d="M908.4-168.155a9.994,9.994,0,0,0,1.609,4.995,10,10,0,0,0,1.609-4.995,13.281,13.281,0,0,0-1.609-5.085,13.278,13.278,0,0,0-1.609,5.085" transform="translate(-849.923 265.087)" fill="#eaeaea"/>
      <path id="path146" d="M677.1-366.706a17.252,17.252,0,0,1-2.637-5.4v3.9a20.69,20.69,0,0,0,1.8,3.413,11.394,11.394,0,0,1,1.406,3.435,10.334,10.334,0,0,1,.183,2.776,5.85,5.85,0,0,0,1.381-3.875c-.067-1.723-1.158-2.955-2.13-4.24" transform="translate(-631.04 451.156)" fill="#eaeaea"/>
      <path id="path148" d="M673.786-279.431q-.03.467-.051.935c.036,1.646-.025,3.3.082,4.945a24.459,24.459,0,0,1,1.784,4.62,9.535,9.535,0,0,0,.44-5.919,19.923,19.923,0,0,0-2.255-4.581" transform="translate(-630.364 364.443)" fill="#eaeaea"/>
      <path id="path150" d="M589.691-368.216v-3.9a17.252,17.252,0,0,1-2.637,5.4c-.973,1.285-2.064,2.517-2.13,4.24a5.85,5.85,0,0,0,1.381,3.875,10.342,10.342,0,0,1,.183-2.776,11.407,11.407,0,0,1,1.406-3.435,20.71,20.71,0,0,0,1.8-3.413" transform="translate(-547.265 451.156)" fill="#eaeaea"/>
      <path id="path152" d="M666.68-506.873h.007l-.006-.015-.006.015h0" transform="translate(-623.758 577.257)" fill="#eaeaea"/>
      <path id="path154" d="M567.365-483.856v-3.9c-.326.783-.67,1.558-1.041,2.319-1.035,2.124-2.335,4.082-3.505,6.125-1.32,2.3-2.614,5.584-1.033,8.047a5.72,5.72,0,0,1,.656-1.961c.642-1.164,1.589-2.109,2.293-3.23a22.678,22.678,0,0,0,2.631-7.4" transform="translate(-524.939 559.353)" fill="#eaeaea"/>
      <path id="path156" d="M678.679-480.123c-.613-1.035-1.248-2.057-1.854-3.1a41.548,41.548,0,0,1-2.367-4.806v3.913a35.091,35.091,0,0,0,1.13,4.223,15.278,15.278,0,0,0,1.8,3.634,21.122,21.122,0,0,1,2.226,3.239,5.564,5.564,0,0,1,.426,1.485,5.824,5.824,0,0,0,.593-4.072,14.249,14.249,0,0,0-1.952-4.518" transform="translate(-631.04 559.61)" fill="#eaeaea"/>
      <path id="path158" d="M641.736-168.155a9.995,9.995,0,0,0,1.609,4.995,10,10,0,0,0,1.609-4.995,13.279,13.279,0,0,0-1.609-5.085,13.279,13.279,0,0,0-1.609,5.085" transform="translate(-600.424 265.087)" fill="#eaeaea"/>
      <path id="path160" d="M622.171-278.5q-.021-.467-.051-.935a19.923,19.923,0,0,0-2.255,4.581,9.534,9.534,0,0,0,.44,5.919,24.445,24.445,0,0,1,1.784-4.62c.106-1.642.046-3.3.082-4.945" transform="translate(-579.699 364.443)" fill="#eaeaea"/>
      <path id="path162" d="M400.014-506.873h.007l-.006-.015-.006.015h0" transform="translate(-374.259 577.257)" fill="#eaeaea"/>
      <path id="path164" d="M300.7-483.856v-3.9c-.326.783-.67,1.558-1.041,2.319-1.035,2.124-2.335,4.082-3.505,6.125-1.32,2.3-2.614,5.584-1.033,8.047a5.719,5.719,0,0,1,.656-1.961c.642-1.164,1.589-2.109,2.293-3.23a22.675,22.675,0,0,0,2.631-7.4" transform="translate(-275.44 559.353)" fill="#eaeaea"/>
      <path id="path166" d="M323.025-368.216v-3.9a17.251,17.251,0,0,1-2.637,5.4c-.973,1.285-2.064,2.517-2.13,4.24a5.85,5.85,0,0,0,1.381,3.875,10.339,10.339,0,0,1,.183-2.776,11.407,11.407,0,0,1,1.406-3.435,20.708,20.708,0,0,0,1.8-3.413" transform="translate(-297.766 451.156)" fill="#eaeaea"/>
      <path id="path168" d="M407.12-279.431q-.03.467-.051.935c.036,1.646-.025,3.3.082,4.945a24.459,24.459,0,0,1,1.784,4.62,9.534,9.534,0,0,0,.44-5.919,19.919,19.919,0,0,0-2.255-4.581" transform="translate(-380.865 364.443)" fill="#eaeaea"/>
      <path id="path170" d="M412.013-480.123c-.613-1.035-1.248-2.057-1.853-3.1a41.543,41.543,0,0,1-2.367-4.806v3.913a35.086,35.086,0,0,0,1.13,4.223,15.278,15.278,0,0,0,1.8,3.634,21.122,21.122,0,0,1,2.226,3.239,5.565,5.565,0,0,1,.426,1.485,5.824,5.824,0,0,0,.593-4.072,14.247,14.247,0,0,0-1.952-4.518" transform="translate(-381.541 559.61)" fill="#eaeaea"/>
      <path id="path172" d="M355.505-278.5q-.021-.467-.051-.935a19.92,19.92,0,0,0-2.255,4.581,9.535,9.535,0,0,0,.44,5.919,24.449,24.449,0,0,1,1.784-4.62c.106-1.642.046-3.3.082-4.945" transform="translate(-330.2 364.443)" fill="#eaeaea"/>
      <path id="path174" d="M375.07-168.155a9.994,9.994,0,0,0,1.609,4.995,10,10,0,0,0,1.609-4.995,13.28,13.28,0,0,0-1.609-5.085,13.279,13.279,0,0,0-1.609,5.085" transform="translate(-350.924 265.087)" fill="#eaeaea"/>
      <path id="path176" d="M410.43-366.706a17.252,17.252,0,0,1-2.637-5.4v3.9a20.692,20.692,0,0,0,1.8,3.413A11.394,11.394,0,0,1,411-361.368a10.334,10.334,0,0,1,.183,2.776,5.85,5.85,0,0,0,1.381-3.875c-.067-1.723-1.158-2.955-2.13-4.24" transform="translate(-381.541 451.156)" fill="#eaeaea"/>
      <path id="path178" d="M143.764-366.706a17.25,17.25,0,0,1-2.637-5.4v3.9a20.692,20.692,0,0,0,1.8,3.413,11.4,11.4,0,0,1,1.406,3.435,10.335,10.335,0,0,1,.183,2.776,5.849,5.849,0,0,0,1.381-3.875c-.067-1.723-1.158-2.955-2.13-4.24" transform="translate(-132.041 451.156)" fill="#eaeaea"/>
      <path id="path180" d="M145.347-480.123c-.613-1.035-1.248-2.057-1.853-3.1a41.54,41.54,0,0,1-2.367-4.806v3.913a35.086,35.086,0,0,0,1.13,4.223,15.279,15.279,0,0,0,1.8,3.634,21.133,21.133,0,0,1,2.226,3.239,5.565,5.565,0,0,1,.426,1.485,5.824,5.824,0,0,0,.593-4.072,14.248,14.248,0,0,0-1.952-4.518" transform="translate(-132.041 559.61)" fill="#eaeaea"/>
      <path id="path182" d="M34.033-483.856v-3.9c-.326.783-.67,1.558-1.041,2.319-1.035,2.124-2.335,4.082-3.5,6.125-1.32,2.3-2.614,5.584-1.033,8.047a5.721,5.721,0,0,1,.656-1.961c.642-1.164,1.589-2.109,2.293-3.23a22.676,22.676,0,0,0,2.631-7.4" transform="translate(-25.941 559.353)" fill="#eaeaea"/>
      <path id="path184" d="M56.359-368.216v-3.9a17.25,17.25,0,0,1-2.637,5.4c-.973,1.285-2.064,2.517-2.13,4.24a5.849,5.849,0,0,0,1.381,3.875,10.339,10.339,0,0,1,.183-2.776A11.407,11.407,0,0,1,54.56-364.8a20.72,20.72,0,0,0,1.8-3.413" transform="translate(-48.266 451.156)" fill="#eaeaea"/>
      <path id="path186" d="M108.4-168.155a9.995,9.995,0,0,0,1.609,4.995,10,10,0,0,0,1.609-4.995,13.28,13.28,0,0,0-1.609-5.085,13.278,13.278,0,0,0-1.609,5.085" transform="translate(-101.425 265.087)" fill="#eaeaea"/>
      <path id="path188" d="M140.454-279.431q-.03.467-.051.935c.036,1.646-.025,3.3.082,4.945a24.46,24.46,0,0,1,1.784,4.62,9.534,9.534,0,0,0,.44-5.919,19.92,19.92,0,0,0-2.255-4.581" transform="translate(-131.365 364.443)" fill="#eaeaea"/>
      <path id="path190" d="M88.84-278.5q-.021-.467-.05-.935a19.917,19.917,0,0,0-2.255,4.581,9.534,9.534,0,0,0,.44,5.919,24.446,24.446,0,0,1,1.784-4.62c.106-1.642.046-3.3.082-4.945" transform="translate(-80.701 364.443)" fill="#eaeaea"/>
      <path id="path192" d="M133.348-506.873h.007l-.006-.015-.006.015h0" transform="translate(-124.76 577.257)" fill="#eaeaea"/>
      <path id="path194" d="M9.425-1165.016a20.727,20.727,0,0,0-1.8,3.413v3.9a17.251,17.251,0,0,1,2.637-5.4c.973-1.285,2.064-2.517,2.13-4.24a5.849,5.849,0,0,0-1.381-3.875,10.339,10.339,0,0,1-.183,2.776,11.4,11.4,0,0,1-1.406,3.435" transform="translate(-7.136 1198.829)" fill="#eaeaea"/>
      <path id="path196" d="M13.206-1101.749a5.729,5.729,0,0,1-.656,1.962c-.642,1.164-1.589,2.108-2.293,3.229a22.677,22.677,0,0,0-2.631,7.4v3.9c.326-.783.67-1.557,1.041-2.319,1.035-2.124,2.335-4.082,3.5-6.125,1.32-2.3,2.614-5.584,1.033-8.048" transform="translate(-7.136 1133.824)" fill="#eaeaea"/>
      <path id="path198" d="M9.21-1211.09a9.533,9.533,0,0,0-.44-5.919,24.468,24.468,0,0,1-1.784,4.621c-.106,1.642-.046,3.3-.082,4.944q.021.468.05.936a19.909,19.909,0,0,0,2.255-4.582" transform="translate(-6.46 1241.664)" fill="#eaeaea"/>
      <path id="path200" d="M0-1316.513v10.058a13.243,13.243,0,0,0,1.6-5.073,9.981,9.981,0,0,0-1.6-4.985" transform="translate(0 1334.762)" fill="#eaeaea"/>
      <path id="path202" d="M273.652-1212.388c-.106,1.642-.046,3.3-.082,4.944q.021.468.051.936a19.912,19.912,0,0,0,2.255-4.582,9.533,9.533,0,0,0-.44-5.919,24.464,24.464,0,0,1-1.784,4.621" transform="translate(-255.959 1241.664)" fill="#eaeaea"/>
      <path id="path204" d="M266.482-826.682h-.007l.006.015.006-.015h0" transform="translate(-249.321 876.464)" fill="#eaeaea"/>
      <path id="path206" d="M279.216-1099.787c-.642,1.164-1.589,2.108-2.293,3.229a22.678,22.678,0,0,0-2.631,7.4v3.9c.326-.783.67-1.557,1.041-2.319,1.035-2.124,2.335-4.082,3.505-6.125,1.32-2.3,2.614-5.584,1.033-8.048a5.728,5.728,0,0,1-.656,1.962" transform="translate(-256.635 1133.824)" fill="#eaeaea"/>
      <path id="path208" d="M274.293-1161.6v3.9a17.25,17.25,0,0,1,2.637-5.4c.973-1.285,2.064-2.517,2.13-4.24a5.849,5.849,0,0,0-1.381-3.875,10.34,10.34,0,0,1-.183,2.776,11.4,11.4,0,0,1-1.406,3.435,20.729,20.729,0,0,0-1.8,3.413" transform="translate(-256.635 1198.829)" fill="#eaeaea"/>
      <path id="path210" d="M244.789-1311.668a10,10,0,0,0-1.609-4.995,10,10,0,0,0-1.609,4.995,13.281,13.281,0,0,0,1.609,5.085,13.283,13.283,0,0,0,1.609-5.085" transform="translate(-226.019 1334.903)" fill="#eaeaea"/>
      <path id="path212" d="M161.775-1101.515a5.823,5.823,0,0,0-.593,4.072,14.247,14.247,0,0,0,1.952,4.518c.613,1.035,1.248,2.057,1.853,3.1a41.541,41.541,0,0,1,2.367,4.806v-3.913a35.078,35.078,0,0,0-1.13-4.223,15.283,15.283,0,0,0-1.8-3.634,21.12,21.12,0,0,1-2.226-3.239,5.561,5.561,0,0,1-.426-1.485" transform="translate(-150.69 1133.604)" fill="#eaeaea"/>
      <path id="path214" d="M222.006-1207.444c-.036-1.646.025-3.3-.082-4.944a24.462,24.462,0,0,1-1.784-4.621,9.533,9.533,0,0,0-.44,5.919,19.911,19.911,0,0,0,2.255,4.582q.03-.467.051-.936" transform="translate(-205.294 1241.664)" fill="#eaeaea"/>
      <path id="path216" d="M184.757-1167.351c.067,1.723,1.158,2.955,2.13,4.24a17.25,17.25,0,0,1,2.637,5.4v-3.9a20.7,20.7,0,0,0-1.8-3.413,11.4,11.4,0,0,1-1.406-3.435,10.337,10.337,0,0,1-.183-2.776,5.85,5.85,0,0,0-1.381,3.875" transform="translate(-172.86 1198.828)" fill="#eaeaea"/>
      <path id="path218" d="M533.148-826.682h-.007l.006.015.006-.015h0" transform="translate(-498.82 876.464)" fill="#eaeaea"/>
      <path id="path220" d="M511.455-1311.668a10,10,0,0,0-1.609-4.995,10,10,0,0,0-1.609,4.995,13.281,13.281,0,0,0,1.609,5.085,13.283,13.283,0,0,0,1.609-5.085" transform="translate(-475.518 1334.903)" fill="#eaeaea"/>
      <path id="path222" d="M540.318-1212.388c-.106,1.642-.046,3.3-.082,4.944q.021.468.051.936a19.912,19.912,0,0,0,2.255-4.582,9.533,9.533,0,0,0-.44-5.919,24.467,24.467,0,0,1-1.784,4.621" transform="translate(-505.458 1241.664)" fill="#eaeaea"/>
      <path id="path224" d="M428.441-1101.515a5.823,5.823,0,0,0-.593,4.072,14.246,14.246,0,0,0,1.952,4.518c.613,1.035,1.248,2.057,1.853,3.1a41.539,41.539,0,0,1,2.367,4.806v-3.913a35.078,35.078,0,0,0-1.13-4.223,15.28,15.28,0,0,0-1.8-3.634,21.12,21.12,0,0,1-2.226-3.239,5.561,5.561,0,0,1-.426-1.485" transform="translate(-400.19 1133.604)" fill="#eaeaea"/>
      <path id="path226" d="M488.672-1207.444c-.036-1.646.025-3.3-.082-4.944a24.461,24.461,0,0,1-1.784-4.621,9.533,9.533,0,0,0-.44,5.919,19.912,19.912,0,0,0,2.255,4.582q.03-.467.051-.936" transform="translate(-454.794 1241.664)" fill="#eaeaea"/>
      <path id="path228" d="M540.959-1161.6v3.9a17.251,17.251,0,0,1,2.637-5.4c.973-1.285,2.064-2.517,2.13-4.24a5.85,5.85,0,0,0-1.381-3.875,10.343,10.343,0,0,1-.183,2.776,11.4,11.4,0,0,1-1.406,3.435,20.731,20.731,0,0,0-1.8,3.413" transform="translate(-506.134 1198.829)" fill="#eaeaea"/>
      <path id="path230" d="M451.423-1167.351c.067,1.723,1.158,2.955,2.13,4.24a17.251,17.251,0,0,1,2.637,5.4v-3.9a20.7,20.7,0,0,0-1.8-3.413,11.4,11.4,0,0,1-1.406-3.435,10.34,10.34,0,0,1-.183-2.776,5.849,5.849,0,0,0-1.381,3.875" transform="translate(-422.359 1198.828)" fill="#eaeaea"/>
      <path id="path232" d="M545.882-1099.787c-.642,1.164-1.589,2.108-2.293,3.229a22.676,22.676,0,0,0-2.631,7.4v3.9c.326-.783.67-1.557,1.041-2.319,1.035-2.124,2.335-4.082,3.505-6.125,1.32-2.3,2.614-5.584,1.033-8.048a5.729,5.729,0,0,1-.656,1.962" transform="translate(-506.134 1133.824)" fill="#eaeaea"/>
      <path id="path234" d="M718.089-1167.351c.067,1.723,1.158,2.955,2.13,4.24a17.251,17.251,0,0,1,2.637,5.4v-3.9a20.707,20.707,0,0,0-1.8-3.413,11.4,11.4,0,0,1-1.406-3.435,10.339,10.339,0,0,1-.183-2.776,5.849,5.849,0,0,0-1.381,3.875" transform="translate(-671.859 1198.828)" fill="#eaeaea"/>
      <path id="path236" d="M799.815-826.682h-.007l.006.015.006-.015h0" transform="translate(-748.32 876.464)" fill="#eaeaea"/>
      <path id="path238" d="M755.338-1207.444c-.036-1.646.025-3.3-.082-4.944a24.465,24.465,0,0,1-1.784-4.621,9.533,9.533,0,0,0-.44,5.919,19.909,19.909,0,0,0,2.255,4.582q.03-.467.051-.936" transform="translate(-704.293 1241.664)" fill="#eaeaea"/>
      <path id="path240" d="M695.107-1101.515a5.823,5.823,0,0,0-.593,4.072,14.245,14.245,0,0,0,1.952,4.518c.613,1.035,1.248,2.057,1.853,3.1a41.539,41.539,0,0,1,2.367,4.806v-3.913a35.072,35.072,0,0,0-1.13-4.223,15.281,15.281,0,0,0-1.8-3.634,21.115,21.115,0,0,1-2.226-3.239,5.561,5.561,0,0,1-.426-1.485" transform="translate(-649.689 1133.604)" fill="#eaeaea"/>
      <path id="path242" d="M806.984-1212.388c-.106,1.642-.046,3.3-.082,4.944q.021.468.051.936a19.909,19.909,0,0,0,2.255-4.582,9.533,9.533,0,0,0-.44-5.919,24.471,24.471,0,0,1-1.784,4.621" transform="translate(-754.958 1241.664)" fill="#eaeaea"/>
      <path id="path244" d="M812.548-1099.787c-.642,1.164-1.589,2.108-2.293,3.229a22.676,22.676,0,0,0-2.631,7.4v3.9c.326-.783.67-1.557,1.041-2.319,1.035-2.124,2.335-4.082,3.505-6.125,1.32-2.3,2.614-5.584,1.033-8.048a5.729,5.729,0,0,1-.656,1.962" transform="translate(-755.634 1133.824)" fill="#eaeaea"/>
      <path id="path246" d="M807.625-1161.6v3.9a17.251,17.251,0,0,1,2.637-5.4c.973-1.285,2.064-2.517,2.13-4.24a5.85,5.85,0,0,0-1.381-3.875,10.338,10.338,0,0,1-.183,2.776,11.4,11.4,0,0,1-1.406,3.435,20.731,20.731,0,0,0-1.8,3.413" transform="translate(-755.634 1198.829)" fill="#eaeaea"/>
      <path id="path248" d="M778.121-1311.668a10,10,0,0,0-1.609-4.995,10,10,0,0,0-1.609,4.995,13.28,13.28,0,0,0,1.609,5.085,13.284,13.284,0,0,0,1.609-5.085" transform="translate(-725.017 1334.903)" fill="#eaeaea"/>
      <path id="path250" d="M1079.214-1099.787c-.642,1.164-1.589,2.108-2.293,3.229a22.673,22.673,0,0,0-2.631,7.4v3.9c.326-.783.67-1.557,1.041-2.319,1.035-2.124,2.335-4.082,3.505-6.125,1.32-2.3,2.614-5.584,1.033-8.048a5.725,5.725,0,0,1-.656,1.962" transform="translate(-1005.133 1133.824)" fill="#eaeaea"/>
      <path id="path252" d="M1066.48-826.682h-.007l.006.015.006-.015h0" transform="translate(-997.819 876.464)" fill="#eaeaea"/>
      <path id="path254" d="M1022-1207.444c-.036-1.646.025-3.3-.082-4.944a24.461,24.461,0,0,1-1.784-4.621,9.534,9.534,0,0,0-.44,5.919,19.912,19.912,0,0,0,2.255,4.582q.03-.467.051-.936" transform="translate(-953.792 1241.664)" fill="#eaeaea"/>
      <path id="path256" d="M1074.291-1161.6v3.9a17.25,17.25,0,0,1,2.637-5.4c.973-1.285,2.064-2.517,2.13-4.24a5.85,5.85,0,0,0-1.381-3.875,10.336,10.336,0,0,1-.183,2.776,11.4,11.4,0,0,1-1.406,3.435,20.726,20.726,0,0,0-1.8,3.413" transform="translate(-1005.133 1198.829)" fill="#eaeaea"/>
      <path id="path258" d="M984.755-1167.351c.067,1.723,1.158,2.955,2.13,4.24a17.251,17.251,0,0,1,2.637,5.4v-3.9a20.707,20.707,0,0,0-1.8-3.413,11.4,11.4,0,0,1-1.406-3.435,10.344,10.344,0,0,1-.183-2.776,5.85,5.85,0,0,0-1.381,3.875" transform="translate(-921.358 1198.828)" fill="#eaeaea"/>
      <path id="path260" d="M1073.65-1212.388c-.106,1.642-.046,3.3-.082,4.944q.021.468.051.936a19.909,19.909,0,0,0,2.255-4.582,9.533,9.533,0,0,0-.44-5.919,24.462,24.462,0,0,1-1.784,4.621" transform="translate(-1004.457 1241.664)" fill="#eaeaea"/>
      <path id="path262" d="M961.773-1101.515a5.823,5.823,0,0,0-.593,4.072,14.248,14.248,0,0,0,1.952,4.518c.613,1.035,1.248,2.057,1.854,3.1a41.539,41.539,0,0,1,2.367,4.806v-3.913a35.084,35.084,0,0,0-1.13-4.223,15.279,15.279,0,0,0-1.8-3.634,21.119,21.119,0,0,1-2.226-3.239,5.561,5.561,0,0,1-.426-1.485" transform="translate(-899.188 1133.604)" fill="#eaeaea"/>
      <path id="path264" d="M1044.787-1311.668a10,10,0,0,0-1.609-4.995,10,10,0,0,0-1.609,4.995,13.28,13.28,0,0,0,1.609,5.085,13.283,13.283,0,0,0,1.609-5.085" transform="translate(-974.517 1334.903)" fill="#eaeaea"/>
      <path id="path266" d="M1251.421-1167.351c.067,1.723,1.158,2.955,2.13,4.24a17.252,17.252,0,0,1,2.637,5.4v-3.9a20.707,20.707,0,0,0-1.8-3.413,11.4,11.4,0,0,1-1.406-3.435,10.341,10.341,0,0,1-.183-2.776,5.85,5.85,0,0,0-1.381,3.875" transform="translate(-1170.857 1198.828)" fill="#eaeaea"/>
      <path id="path268" d="M1228.439-1101.515a5.823,5.823,0,0,0-.593,4.072,14.247,14.247,0,0,0,1.952,4.518c.613,1.035,1.248,2.057,1.853,3.1a41.549,41.549,0,0,1,2.367,4.806v-3.913a35.072,35.072,0,0,0-1.13-4.223,15.277,15.277,0,0,0-1.8-3.634,21.12,21.12,0,0,1-2.226-3.239,5.563,5.563,0,0,1-.426-1.485" transform="translate(-1148.688 1133.604)" fill="#eaeaea"/>
      <path id="path270" d="M1288.67-1207.444c-.036-1.646.025-3.3-.082-4.944a24.457,24.457,0,0,1-1.784-4.621,9.533,9.533,0,0,0-.44,5.919,19.909,19.909,0,0,0,2.255,4.582q.03-.467.051-.936" transform="translate(-1203.292 1241.664)" fill="#eaeaea"/>
      <path id="path272" d="M1340.957-1161.6v3.9a17.24,17.24,0,0,1,2.638-5.4c.973-1.285,2.063-2.517,2.13-4.24a5.852,5.852,0,0,0-1.381-3.875,10.376,10.376,0,0,1-.183,2.776,11.4,11.4,0,0,1-1.406,3.435,20.745,20.745,0,0,0-1.8,3.413" transform="translate(-1254.632 1198.829)" fill="#eaeaea"/>
      <path id="path274" d="M1333.146-826.682h-.007l.006.015.006-.015h0" transform="translate(-1247.318 876.464)" fill="#eaeaea"/>
      <path id="path276" d="M1311.453-1311.668a9.988,9.988,0,0,0-1.609-4.995,10,10,0,0,0-1.609,4.995,13.28,13.28,0,0,0,1.609,5.085,13.274,13.274,0,0,0,1.609-5.085" transform="translate(-1224.016 1334.903)" fill="#eaeaea"/>
      <path id="path278" d="M1340.318-1212.388c-.106,1.642-.046,3.3-.082,4.944q.021.468.051.936a19.919,19.919,0,0,0,2.255-4.582,9.536,9.536,0,0,0-.44-5.919,24.452,24.452,0,0,1-1.784,4.621" transform="translate(-1253.959 1241.664)" fill="#eaeaea"/>
      <path id="path280" d="M1345.88-1099.787c-.642,1.164-1.589,2.108-2.293,3.229a22.685,22.685,0,0,0-2.631,7.4v3.9c.326-.783.67-1.557,1.041-2.319,1.035-2.124,2.335-4.082,3.505-6.125,1.319-2.3,2.614-5.584,1.033-8.048a5.712,5.712,0,0,1-.656,1.962" transform="translate(-1254.632 1133.824)" fill="#eaeaea"/>
      <path id="path282" d="M1497.759-1096.791a21.147,21.147,0,0,1-2.226-3.239,5.561,5.561,0,0,1-.425-1.485,5.82,5.82,0,0,0-.593,4.072,14.235,14.235,0,0,0,1.952,4.518c.613,1.035,1.248,2.057,1.853,3.1a41.653,41.653,0,0,1,2.368,4.806v-3.913a35.28,35.28,0,0,0-1.13-4.223,15.281,15.281,0,0,0-1.8-3.634" transform="translate(-1398.189 1133.604)" fill="#eaeaea"/>
      <path id="path284" d="M1519.651-1168.45a10.305,10.305,0,0,1-.183-2.776,5.848,5.848,0,0,0-1.381,3.875c.067,1.723,1.158,2.955,2.13,4.24a17.277,17.277,0,0,1,2.638,5.4v-3.9a20.748,20.748,0,0,0-1.8-3.413,11.4,11.4,0,0,1-1.405-3.435" transform="translate(-1420.357 1198.829)" fill="#eaeaea"/>
      <path id="path286" d="M1553.029-1211.09a19.889,19.889,0,0,0,2.255,4.582q.03-.467.051-.936c-.036-1.646.024-3.3-.082-4.944a24.467,24.467,0,0,1-1.784-4.621,9.529,9.529,0,0,0-.439,5.919" transform="translate(-1452.789 1241.664)" fill="#eaeaea"/>
      <path id="path288" d="M1599.821-826.681h-.011l.005.015.006-.015" transform="translate(-1496.822 876.464)" fill="#eaeaea"/>
      <path id="path290" d="M1574.9-1311.668a13.276,13.276,0,0,0,1.609,5.085l.005-.012v-10.058l-.005-.01a10,10,0,0,0-1.609,4.995" transform="translate(-1473.516 1334.903)" fill="#eaeaea"/>
      <path id="path292" d="M1466.681-1040.2h.007l-.005-.015-.006.015h0" transform="translate(-1372.259 1076.256)" fill="#eaeaea"/>
      <path id="path294" d="M1361.785-1004.593a5.711,5.711,0,0,1,.656-1.962c.642-1.164,1.589-2.108,2.293-3.229a22.684,22.684,0,0,0,2.631-7.4v-3.9c-.326.783-.67,1.557-1.041,2.319-1.035,2.124-2.336,4.082-3.505,6.125-1.319,2.3-2.614,5.584-1.033,8.048" transform="translate(-1273.438 1058.352)" fill="#eaeaea"/>
      <path id="path296" d="M1479.23-895.8c-.067-1.723-1.158-2.955-2.13-4.24a17.256,17.256,0,0,1-2.637-5.4v3.9a20.669,20.669,0,0,0,1.8,3.413,11.4,11.4,0,0,1,1.405,3.435,10.306,10.306,0,0,1,.183,2.776,5.848,5.848,0,0,0,1.381-3.875" transform="translate(-1379.544 950.155)" fill="#eaeaea"/>
      <path id="path298" d="M1480.042-1004.865a5.821,5.821,0,0,0,.593-4.072,14.233,14.233,0,0,0-1.952-4.518c-.613-1.035-1.248-2.057-1.853-3.1a41.487,41.487,0,0,1-2.367-4.806v3.913a35.1,35.1,0,0,0,1.13,4.223,15.281,15.281,0,0,0,1.8,3.634,21.155,21.155,0,0,1,2.227,3.239,5.559,5.559,0,0,1,.425,1.485" transform="translate(-1379.544 1058.609)" fill="#eaeaea"/>
      <path id="path300" d="M1389.694-901.548v-3.9a17.24,17.24,0,0,1-2.638,5.4c-.973,1.285-2.063,2.517-2.13,4.24a5.847,5.847,0,0,0,1.38,3.875,10.376,10.376,0,0,1,.183-2.776,11.4,11.4,0,0,1,1.406-3.435,20.741,20.741,0,0,0,1.8-3.413" transform="translate(-1295.768 950.155)" fill="#eaeaea"/>
      <path id="path302" d="M1443.349-706.576a13.278,13.278,0,0,0-1.609,5.085,9.991,9.991,0,0,0,1.609,4.995,10,10,0,0,0,1.609-4.995,13.274,13.274,0,0,0-1.609-5.085" transform="translate(-1348.927 764.09)" fill="#eaeaea"/>
      <path id="path304" d="M1476.035-808.182a19.889,19.889,0,0,0-2.255-4.582q-.03.467-.051.935c.036,1.646-.024,3.3.082,4.944a24.461,24.461,0,0,1,1.784,4.621,9.53,9.53,0,0,0,.44-5.919" transform="translate(-1378.858 863.442)" fill="#eaeaea"/>
      <path id="path306" d="M1422.171-811.828q-.021-.468-.051-.935a19.924,19.924,0,0,0-2.255,4.582,9.537,9.537,0,0,0,.44,5.919,24.453,24.453,0,0,1,1.784-4.621c.106-1.642.046-3.3.082-4.944" transform="translate(-1328.199 863.442)" fill="#eaeaea"/>
      <path id="path308" d="M1176.678-706.576a13.281,13.281,0,0,0-1.609,5.085,10,10,0,0,0,1.609,4.995,10,10,0,0,0,1.609-4.995,13.282,13.282,0,0,0-1.609-5.085" transform="translate(-1099.422 764.09)" fill="#eaeaea"/>
      <path id="path310" d="M1209.373-808.182a19.914,19.914,0,0,0-2.255-4.582q-.03.467-.051.935c.036,1.646-.025,3.3.082,4.944a24.468,24.468,0,0,1,1.784,4.621,9.535,9.535,0,0,0,.44-5.919" transform="translate(-1129.363 863.442)" fill="#eaeaea"/>
      <path id="path312" d="M1212.558-895.8c-.067-1.723-1.158-2.955-2.13-4.24a17.25,17.25,0,0,1-2.637-5.4v3.9a20.706,20.706,0,0,0,1.8,3.413,11.394,11.394,0,0,1,1.406,3.435,10.336,10.336,0,0,1,.183,2.776,5.849,5.849,0,0,0,1.381-3.875" transform="translate(-1130.039 950.155)" fill="#eaeaea"/>
      <path id="path314" d="M1200.012-1040.2h.007l-.006-.015-.006.015h0" transform="translate(-1122.757 1076.256)" fill="#eaeaea"/>
      <path id="path316" d="M1207.79-1017.446a35.1,35.1,0,0,0,1.13,4.223,15.281,15.281,0,0,0,1.8,3.634,21.118,21.118,0,0,1,2.226,3.239,5.561,5.561,0,0,1,.426,1.485,5.823,5.823,0,0,0,.593-4.072,14.247,14.247,0,0,0-1.952-4.518c-.613-1.035-1.248-2.057-1.854-3.1a41.528,41.528,0,0,1-2.367-4.806v3.913" transform="translate(-1130.039 1058.609)" fill="#eaeaea"/>
      <path id="path318" d="M1155.5-811.828q-.021-.468-.051-.935a19.914,19.914,0,0,0-2.255,4.582,9.533,9.533,0,0,0,.44,5.919,24.471,24.471,0,0,1,1.784-4.621c.106-1.642.046-3.3.082-4.944" transform="translate(-1078.698 863.442)" fill="#eaeaea"/>
      <path id="path320" d="M1123.023-901.548v-3.9a17.253,17.253,0,0,1-2.637,5.4c-.973,1.285-2.064,2.517-2.13,4.24a5.849,5.849,0,0,0,1.381,3.875,10.341,10.341,0,0,1,.183-2.776,11.4,11.4,0,0,1,1.406-3.435,20.714,20.714,0,0,0,1.8-3.413" transform="translate(-1046.264 950.155)" fill="#eaeaea"/>
      <path id="path322" d="M1095.118-1004.593a5.727,5.727,0,0,1,.656-1.962c.642-1.164,1.589-2.108,2.293-3.229a22.679,22.679,0,0,0,2.631-7.4v-3.9c-.326.783-.67,1.557-1.041,2.319-1.035,2.124-2.335,4.082-3.505,6.125-1.32,2.3-2.614,5.584-1.033,8.048" transform="translate(-1023.938 1058.352)" fill="#eaeaea"/>
      <path id="path324" d="M933.346-1040.2h.007l-.006-.015-.006.015h0" transform="translate(-873.258 1076.256)" fill="#eaeaea"/>
      <path id="path326" d="M941.124-1017.446a35.092,35.092,0,0,0,1.13,4.223,15.279,15.279,0,0,0,1.8,3.634,21.113,21.113,0,0,1,2.226,3.239,5.561,5.561,0,0,1,.426,1.485,5.824,5.824,0,0,0,.593-4.072,14.248,14.248,0,0,0-1.952-4.518c-.613-1.035-1.248-2.057-1.854-3.1a41.538,41.538,0,0,1-2.367-4.806v3.913" transform="translate(-880.539 1058.609)" fill="#eaeaea"/>
      <path id="path328" d="M945.892-895.8c-.067-1.723-1.158-2.955-2.13-4.24a17.251,17.251,0,0,1-2.637-5.4v3.9a20.707,20.707,0,0,0,1.8,3.413,11.4,11.4,0,0,1,1.406,3.435,10.336,10.336,0,0,1,.183,2.776,5.85,5.85,0,0,0,1.381-3.875" transform="translate(-880.539 950.155)" fill="#eaeaea"/>
      <path id="path330" d="M910.012-706.576a13.281,13.281,0,0,0-1.609,5.085,10,10,0,0,0,1.609,4.995,10,10,0,0,0,1.609-4.995,13.284,13.284,0,0,0-1.609-5.085" transform="translate(-849.923 764.09)" fill="#eaeaea"/>
      <path id="path332" d="M942.707-808.182a19.909,19.909,0,0,0-2.255-4.582q-.03.467-.051.935c.036,1.646-.025,3.3.082,4.944a24.464,24.464,0,0,1,1.784,4.621,9.534,9.534,0,0,0,.44-5.919" transform="translate(-879.863 863.442)" fill="#eaeaea"/>
      <path id="path334" d="M828.452-1004.593a5.727,5.727,0,0,1,.656-1.962c.642-1.164,1.589-2.108,2.293-3.229a22.676,22.676,0,0,0,2.631-7.4v-3.9c-.326.783-.67,1.557-1.041,2.319-1.035,2.124-2.335,4.082-3.505,6.125-1.32,2.3-2.614,5.584-1.033,8.048" transform="translate(-774.439 1058.352)" fill="#eaeaea"/>
      <path id="path336" d="M888.837-811.828q-.021-.468-.051-.935a19.914,19.914,0,0,0-2.255,4.582,9.533,9.533,0,0,0,.44,5.919,24.471,24.471,0,0,1,1.784-4.621c.106-1.642.046-3.3.082-4.944" transform="translate(-829.199 863.442)" fill="#eaeaea"/>
      <path id="path338" d="M856.357-901.548v-3.9a17.251,17.251,0,0,1-2.637,5.4c-.973,1.285-2.064,2.517-2.13,4.24a5.85,5.85,0,0,0,1.381,3.875,10.343,10.343,0,0,1,.183-2.776,11.4,11.4,0,0,1,1.406-3.435,20.728,20.728,0,0,0,1.8-3.413" transform="translate(-796.764 950.155)" fill="#eaeaea"/>
      <path id="path340" d="M622.171-811.828q-.021-.468-.051-.935a19.914,19.914,0,0,0-2.255,4.582,9.533,9.533,0,0,0,.44,5.919,24.467,24.467,0,0,1,1.784-4.621c.106-1.642.046-3.3.082-4.944" transform="translate(-579.699 863.442)" fill="#eaeaea"/>
      <path id="path342" d="M674.458-1017.446a35.092,35.092,0,0,0,1.13,4.223,15.281,15.281,0,0,0,1.8,3.634,21.113,21.113,0,0,1,2.226,3.239,5.559,5.559,0,0,1,.426,1.485,5.823,5.823,0,0,0,.593-4.072,14.248,14.248,0,0,0-1.952-4.518c-.613-1.035-1.248-2.057-1.854-3.1a41.538,41.538,0,0,1-2.367-4.806v3.913" transform="translate(-631.04 1058.609)" fill="#eaeaea"/>
      <path id="path344" d="M679.226-895.8c-.067-1.723-1.158-2.955-2.13-4.24a17.253,17.253,0,0,1-2.637-5.4v3.9a20.7,20.7,0,0,0,1.8,3.413,11.4,11.4,0,0,1,1.406,3.435,10.336,10.336,0,0,1,.183,2.776,5.85,5.85,0,0,0,1.381-3.875" transform="translate(-631.04 950.155)" fill="#eaeaea"/>
      <path id="path346" d="M676.041-808.182a19.914,19.914,0,0,0-2.255-4.582q-.03.467-.051.935c.036,1.646-.025,3.3.082,4.944a24.464,24.464,0,0,1,1.784,4.621,9.534,9.534,0,0,0,.44-5.919" transform="translate(-630.364 863.442)" fill="#eaeaea"/>
      <path id="path348" d="M643.346-706.576a13.282,13.282,0,0,0-1.609,5.085,10,10,0,0,0,1.609,4.995,10,10,0,0,0,1.609-4.995,13.281,13.281,0,0,0-1.609-5.085" transform="translate(-600.424 764.09)" fill="#eaeaea"/>
      <path id="path350" d="M666.68-1040.2h.007l-.006-.015-.006.015h0" transform="translate(-623.758 1076.256)" fill="#eaeaea"/>
      <path id="path352" d="M561.785-1004.593a5.727,5.727,0,0,1,.656-1.962c.642-1.164,1.589-2.108,2.293-3.229a22.679,22.679,0,0,0,2.631-7.4v-3.9c-.326.783-.67,1.557-1.041,2.319-1.035,2.124-2.335,4.082-3.505,6.125-1.32,2.3-2.614,5.584-1.033,8.048" transform="translate(-524.939 1058.352)" fill="#eaeaea"/>
      <path id="path354" d="M589.691-901.548v-3.9a17.253,17.253,0,0,1-2.637,5.4c-.973,1.285-2.064,2.517-2.13,4.24a5.85,5.85,0,0,0,1.381,3.875,10.343,10.343,0,0,1,.183-2.776,11.4,11.4,0,0,1,1.406-3.435,20.723,20.723,0,0,0,1.8-3.413" transform="translate(-547.265 950.155)" fill="#eaeaea"/>
      <path id="path356" d="M400.014-1040.2h.007l-.006-.015-.006.015h0" transform="translate(-374.259 1076.256)" fill="#eaeaea"/>
      <path id="path358" d="M412.56-895.8c-.067-1.723-1.158-2.955-2.13-4.24a17.252,17.252,0,0,1-2.637-5.4v3.9a20.7,20.7,0,0,0,1.8,3.413A11.4,11.4,0,0,1,411-894.7a10.336,10.336,0,0,1,.183,2.776,5.85,5.85,0,0,0,1.381-3.875" transform="translate(-381.541 950.155)" fill="#eaeaea"/>
      <path id="path360" d="M407.792-1017.446a35.086,35.086,0,0,0,1.13,4.223,15.279,15.279,0,0,0,1.8,3.634,21.113,21.113,0,0,1,2.226,3.239,5.56,5.56,0,0,1,.426,1.485,5.823,5.823,0,0,0,.593-4.072,14.247,14.247,0,0,0-1.952-4.518c-.613-1.035-1.248-2.057-1.854-3.1a41.538,41.538,0,0,1-2.367-4.806v3.913" transform="translate(-381.541 1058.609)" fill="#eaeaea"/>
      <path id="path362" d="M376.68-706.576a13.282,13.282,0,0,0-1.609,5.085,10,10,0,0,0,1.609,4.995,10,10,0,0,0,1.609-4.995,13.282,13.282,0,0,0-1.609-5.085" transform="translate(-350.924 764.09)" fill="#eaeaea"/>
      <path id="path364" d="M323.025-901.548v-3.9a17.251,17.251,0,0,1-2.637,5.4c-.973,1.285-2.064,2.517-2.13,4.24a5.85,5.85,0,0,0,1.381,3.875,10.341,10.341,0,0,1,.183-2.776,11.4,11.4,0,0,1,1.406-3.435,20.721,20.721,0,0,0,1.8-3.413" transform="translate(-297.766 950.155)" fill="#eaeaea"/>
      <path id="path366" d="M409.375-808.182a19.91,19.91,0,0,0-2.255-4.582q-.03.467-.051.935c.036,1.646-.025,3.3.082,4.944a24.464,24.464,0,0,1,1.784,4.621,9.533,9.533,0,0,0,.44-5.919" transform="translate(-380.865 863.442)" fill="#eaeaea"/>
      <path id="path368" d="M355.505-811.828q-.021-.468-.051-.935a19.911,19.911,0,0,0-2.255,4.582,9.534,9.534,0,0,0,.44,5.919,24.471,24.471,0,0,1,1.784-4.621c.106-1.642.046-3.3.082-4.944" transform="translate(-330.2 863.442)" fill="#eaeaea"/>
      <path id="path370" d="M295.119-1004.593a5.726,5.726,0,0,1,.656-1.962c.642-1.164,1.589-2.108,2.293-3.229a22.676,22.676,0,0,0,2.631-7.4v-3.9c-.326.783-.67,1.557-1.041,2.319-1.035,2.124-2.335,4.082-3.505,6.125-1.32,2.3-2.614,5.584-1.033,8.048" transform="translate(-275.44 1058.352)" fill="#eaeaea"/>
      <path id="path372" d="M110.014-706.576a13.281,13.281,0,0,0-1.609,5.085,10,10,0,0,0,1.609,4.995,10,10,0,0,0,1.609-4.995,13.282,13.282,0,0,0-1.609-5.085" transform="translate(-101.425 764.09)" fill="#eaeaea"/>
      <path id="path374" d="M141.126-1017.446a35.086,35.086,0,0,0,1.13,4.223,15.28,15.28,0,0,0,1.8,3.634,21.125,21.125,0,0,1,2.226,3.239,5.56,5.56,0,0,1,.426,1.485,5.823,5.823,0,0,0,.593-4.072,14.247,14.247,0,0,0-1.952-4.518c-.613-1.035-1.248-2.057-1.853-3.1a41.54,41.54,0,0,1-2.367-4.806v3.913" transform="translate(-132.041 1058.609)" fill="#eaeaea"/>
      <path id="path376" d="M133.348-1040.2h.007l-.006-.015-.006.015h0" transform="translate(-124.76 1076.256)" fill="#eaeaea"/>
      <path id="path378" d="M142.709-808.182a19.911,19.911,0,0,0-2.255-4.582q-.03.467-.051.935c.036,1.646-.025,3.3.082,4.944a24.464,24.464,0,0,1,1.784,4.621,9.533,9.533,0,0,0,.44-5.919" transform="translate(-131.365 863.442)" fill="#eaeaea"/>
      <path id="path380" d="M88.758-806.884c.106-1.642.046-3.3.082-4.944q-.021-.468-.05-.935a19.908,19.908,0,0,0-2.255,4.582,9.533,9.533,0,0,0,.44,5.919,24.468,24.468,0,0,1,1.784-4.621" transform="translate(-80.701 863.442)" fill="#eaeaea"/>
      <path id="path382" d="M28.454-1004.593a5.728,5.728,0,0,1,.656-1.962c.642-1.164,1.589-2.108,2.293-3.229a22.677,22.677,0,0,0,2.631-7.4v-3.9c-.326.783-.67,1.557-1.041,2.319-1.035,2.124-2.335,4.082-3.5,6.125-1.32,2.3-2.614,5.584-1.033,8.048" transform="translate(-25.941 1058.352)" fill="#eaeaea"/>
      <path id="path384" d="M56.359-901.548v-3.9a17.251,17.251,0,0,1-2.637,5.4c-.973,1.285-2.064,2.517-2.13,4.24a5.849,5.849,0,0,0,1.381,3.875,10.34,10.34,0,0,1,.183-2.776,11.4,11.4,0,0,1,1.406-3.435,20.732,20.732,0,0,0,1.8-3.413" transform="translate(-48.266 950.155)" fill="#eaeaea"/>
      <path id="path386" d="M145.894-895.8c-.067-1.723-1.158-2.955-2.13-4.24a17.25,17.25,0,0,1-2.637-5.4v3.9a20.7,20.7,0,0,0,1.8,3.413,11.4,11.4,0,0,1,1.406,3.435,10.337,10.337,0,0,1,.183,2.776,5.849,5.849,0,0,0,1.381-3.875" transform="translate(-132.041 950.155)" fill="#eaeaea"/>
      <path id="path388" d="M13.206-568.417a5.728,5.728,0,0,1-.656,1.962c-.642,1.164-1.589,2.108-2.293,3.229a22.676,22.676,0,0,0-2.631,7.4v3.9c.326-.783.67-1.557,1.041-2.319,1.035-2.124,2.335-4.082,3.5-6.125,1.32-2.3,2.614-5.584,1.033-8.048" transform="translate(-7.136 634.825)" fill="#eaeaea"/>
      <path id="path390" d="M0-783.181v10.058A13.243,13.243,0,0,0,1.6-778.2,9.98,9.98,0,0,0,0-783.181" transform="translate(0 835.763)" fill="#eaeaea"/>
      <path id="path392" d="M9.21-677.758a9.533,9.533,0,0,0-.44-5.919,24.468,24.468,0,0,1-1.784,4.621c-.106,1.642-.046,3.3-.082,4.944q.021.468.05.936a19.909,19.909,0,0,0,2.255-4.582" transform="translate(-6.46 742.665)" fill="#eaeaea"/>
      <path id="path394" d="M9.425-631.684a20.733,20.733,0,0,0-1.8,3.413v3.9a17.251,17.251,0,0,1,2.637-5.4c.973-1.285,2.064-2.517,2.13-4.24a5.849,5.849,0,0,0-1.381-3.875,10.339,10.339,0,0,1-.183,2.776,11.4,11.4,0,0,1-1.406,3.435" transform="translate(-7.136 699.83)" fill="#eaeaea"/>
      <path id="path396" d="M278.839-560.37c1.32-2.3,2.614-5.584,1.033-8.048a5.727,5.727,0,0,1-.656,1.962c-.642,1.164-1.589,2.108-2.293,3.229a22.677,22.677,0,0,0-2.631,7.4v3.9c.326-.783.67-1.557,1.041-2.319,1.035-2.124,2.335-4.082,3.505-6.125" transform="translate(-256.635 634.825)" fill="#eaeaea"/>
      <path id="path398" d="M163.134-559.593c.613,1.035,1.248,2.057,1.853,3.1a41.54,41.54,0,0,1,2.367,4.806V-555.6a35.084,35.084,0,0,0-1.13-4.223,15.282,15.282,0,0,0-1.8-3.634A21.122,21.122,0,0,1,162.2-566.7a5.56,5.56,0,0,1-.426-1.485,5.823,5.823,0,0,0-.593,4.072,14.247,14.247,0,0,0,1.952,4.518" transform="translate(-150.69 634.606)" fill="#eaeaea"/>
      <path id="path400" d="M266.481-293.335l.006-.015h-.012l.006.015" transform="translate(-249.321 377.466)" fill="#eaeaea"/>
      <path id="path402" d="M243.18-783.331a10,10,0,0,0-1.609,4.995,13.281,13.281,0,0,0,1.609,5.085,13.283,13.283,0,0,0,1.609-5.085,10,10,0,0,0-1.609-4.995" transform="translate(-226.019 835.904)" fill="#eaeaea"/>
      <path id="path404" d="M221.924-679.056a24.462,24.462,0,0,1-1.784-4.621,9.533,9.533,0,0,0-.44,5.919,19.911,19.911,0,0,0,2.255,4.582q.03-.467.051-.936c-.036-1.646.025-3.3-.082-4.944" transform="translate(-205.294 742.665)" fill="#eaeaea"/>
      <path id="path406" d="M275.875-677.758a9.533,9.533,0,0,0-.44-5.919,24.462,24.462,0,0,1-1.784,4.621c-.106,1.642-.046,3.3-.082,4.944q.021.468.051.936a19.912,19.912,0,0,0,2.255-4.582" transform="translate(-255.959 742.665)" fill="#eaeaea"/>
      <path id="path408" d="M276.091-631.684a20.729,20.729,0,0,0-1.8,3.413v3.9a17.25,17.25,0,0,1,2.637-5.4c.973-1.285,2.064-2.517,2.13-4.24a5.849,5.849,0,0,0-1.381-3.875,10.34,10.34,0,0,1-.183,2.776,11.4,11.4,0,0,1-1.406,3.435" transform="translate(-256.635 699.83)" fill="#eaeaea"/>
      <path id="path410" d="M189.525-628.271a20.706,20.706,0,0,0-1.8-3.413,11.4,11.4,0,0,1-1.406-3.435,10.337,10.337,0,0,1-.183-2.776,5.85,5.85,0,0,0-1.381,3.875c.067,1.723,1.158,2.955,2.13,4.24a17.25,17.25,0,0,1,2.637,5.4v-3.9" transform="translate(-172.86 699.83)" fill="#eaeaea"/>
      <path id="path412" d="M533.147-293.335l.006-.015h-.012l.006.015" transform="translate(-498.82 377.466)" fill="#eaeaea"/>
      <path id="path414" d="M456.191-628.271a20.707,20.707,0,0,0-1.8-3.413,11.4,11.4,0,0,1-1.406-3.435,10.34,10.34,0,0,1-.183-2.776,5.85,5.85,0,0,0-1.381,3.875c.067,1.723,1.158,2.955,2.13,4.24a17.251,17.251,0,0,1,2.637,5.4v-3.9" transform="translate(-422.359 699.83)" fill="#eaeaea"/>
      <path id="path416" d="M429.8-559.593c.613,1.035,1.248,2.057,1.853,3.1a41.538,41.538,0,0,1,2.367,4.806V-555.6a35.084,35.084,0,0,0-1.13-4.223,15.279,15.279,0,0,0-1.8-3.634,21.121,21.121,0,0,1-2.226-3.239,5.559,5.559,0,0,1-.426-1.485,5.823,5.823,0,0,0-.593,4.072,14.247,14.247,0,0,0,1.952,4.518" transform="translate(-400.19 634.606)" fill="#eaeaea"/>
      <path id="path418" d="M509.846-783.331a10,10,0,0,0-1.609,4.995,13.281,13.281,0,0,0,1.609,5.085,13.283,13.283,0,0,0,1.609-5.085,10,10,0,0,0-1.609-4.995" transform="translate(-475.518 835.904)" fill="#eaeaea"/>
      <path id="path420" d="M545.5-560.37c1.32-2.3,2.614-5.584,1.033-8.048a5.727,5.727,0,0,1-.656,1.962c-.642,1.164-1.589,2.108-2.293,3.229a22.676,22.676,0,0,0-2.631,7.4v3.9c.326-.783.67-1.557,1.041-2.319,1.035-2.124,2.335-4.082,3.505-6.125" transform="translate(-506.134 634.825)" fill="#eaeaea"/>
      <path id="path422" d="M542.757-631.684a20.731,20.731,0,0,0-1.8,3.413v3.9a17.251,17.251,0,0,1,2.637-5.4c.973-1.285,2.064-2.517,2.13-4.24a5.85,5.85,0,0,0-1.381-3.875,10.344,10.344,0,0,1-.183,2.776,11.4,11.4,0,0,1-1.406,3.435" transform="translate(-506.134 699.83)" fill="#eaeaea"/>
      <path id="path424" d="M542.541-677.758a9.533,9.533,0,0,0-.44-5.919,24.462,24.462,0,0,1-1.784,4.621c-.106,1.642-.046,3.3-.082,4.944q.021.468.051.936a19.912,19.912,0,0,0,2.255-4.582" transform="translate(-505.458 742.665)" fill="#eaeaea"/>
      <path id="path426" d="M488.59-679.056a24.461,24.461,0,0,1-1.784-4.621,9.533,9.533,0,0,0-.44,5.919,19.912,19.912,0,0,0,2.255,4.582q.03-.467.051-.936c-.036-1.646.025-3.3-.082-4.944" transform="translate(-454.794 742.665)" fill="#eaeaea"/>
      <path id="path428" d="M809.423-631.684a20.731,20.731,0,0,0-1.8,3.413v3.9a17.251,17.251,0,0,1,2.637-5.4c.973-1.285,2.064-2.517,2.13-4.24a5.85,5.85,0,0,0-1.381-3.875,10.339,10.339,0,0,1-.183,2.776,11.4,11.4,0,0,1-1.406,3.435" transform="translate(-755.634 699.83)" fill="#eaeaea"/>
      <path id="path430" d="M776.512-783.331a10,10,0,0,0-1.609,4.995,13.281,13.281,0,0,0,1.609,5.085,13.284,13.284,0,0,0,1.609-5.085,10,10,0,0,0-1.609-4.995" transform="translate(-725.017 835.904)" fill="#eaeaea"/>
      <path id="path432" d="M809.207-677.758a9.533,9.533,0,0,0-.44-5.919,24.471,24.471,0,0,1-1.784,4.621c-.106,1.642-.046,3.3-.082,4.944q.021.468.051.936a19.909,19.909,0,0,0,2.255-4.582" transform="translate(-754.958 742.665)" fill="#eaeaea"/>
      <path id="path434" d="M722.857-628.271a20.71,20.71,0,0,0-1.8-3.413,11.394,11.394,0,0,1-1.406-3.435,10.339,10.339,0,0,1-.183-2.776,5.85,5.85,0,0,0-1.381,3.875c.067,1.723,1.158,2.955,2.13,4.24a17.251,17.251,0,0,1,2.637,5.4v-3.9" transform="translate(-671.859 699.83)" fill="#eaeaea"/>
      <path id="path436" d="M755.256-679.056a24.465,24.465,0,0,1-1.784-4.621,9.533,9.533,0,0,0-.44,5.919,19.909,19.909,0,0,0,2.255,4.582q.03-.467.051-.936c-.036-1.646.025-3.3-.082-4.944" transform="translate(-704.293 742.665)" fill="#eaeaea"/>
      <path id="path438" d="M812.171-560.37c1.32-2.3,2.614-5.584,1.033-8.048a5.728,5.728,0,0,1-.656,1.962c-.642,1.164-1.589,2.108-2.293,3.229a22.676,22.676,0,0,0-2.631,7.4v3.9c.326-.783.67-1.557,1.041-2.319,1.035-2.124,2.335-4.082,3.505-6.125" transform="translate(-755.634 634.825)" fill="#eaeaea"/>
      <path id="path440" d="M696.466-559.593c.613,1.035,1.248,2.057,1.853,3.1a41.538,41.538,0,0,1,2.367,4.806V-555.6a35.078,35.078,0,0,0-1.13-4.223,15.278,15.278,0,0,0-1.8-3.634,21.12,21.12,0,0,1-2.226-3.239,5.561,5.561,0,0,1-.426-1.485,5.823,5.823,0,0,0-.593,4.072,14.245,14.245,0,0,0,1.952,4.518" transform="translate(-649.689 634.606)" fill="#eaeaea"/>
      <path id="path442" d="M799.813-293.335l.006-.015h-.012l.006.015" transform="translate(-748.32 377.466)" fill="#eaeaea"/>
      <path id="path444" d="M1075.873-677.758a9.533,9.533,0,0,0-.44-5.919,24.462,24.462,0,0,1-1.784,4.621c-.106,1.642-.046,3.3-.082,4.944q.021.468.051.936a19.909,19.909,0,0,0,2.255-4.582" transform="translate(-1004.457 742.665)" fill="#eaeaea"/>
      <path id="path446" d="M1078.837-560.37c1.32-2.3,2.614-5.584,1.033-8.048a5.724,5.724,0,0,1-.656,1.962c-.642,1.164-1.589,2.108-2.293,3.229a22.673,22.673,0,0,0-2.631,7.4v3.9c.326-.783.67-1.557,1.041-2.319,1.035-2.124,2.335-4.082,3.505-6.125" transform="translate(-1005.133 634.825)" fill="#eaeaea"/>
      <path id="path448" d="M1076.089-631.684a20.726,20.726,0,0,0-1.8,3.413v3.9a17.25,17.25,0,0,1,2.637-5.4c.973-1.285,2.064-2.517,2.13-4.24a5.849,5.849,0,0,0-1.381-3.875,10.336,10.336,0,0,1-.183,2.776,11.4,11.4,0,0,1-1.406,3.435" transform="translate(-1005.133 699.83)" fill="#eaeaea"/>
      <path id="path450" d="M1021.922-679.056a24.461,24.461,0,0,1-1.784-4.621,9.534,9.534,0,0,0-.44,5.919,19.912,19.912,0,0,0,2.255,4.582q.03-.467.051-.936c-.036-1.646.025-3.3-.082-4.944" transform="translate(-953.792 742.665)" fill="#eaeaea"/>
      <path id="path452" d="M963.132-559.593c.613,1.035,1.248,2.057,1.854,3.1a41.538,41.538,0,0,1,2.367,4.806V-555.6a35.09,35.09,0,0,0-1.13-4.223,15.278,15.278,0,0,0-1.8-3.634A21.12,21.12,0,0,1,962.2-566.7a5.557,5.557,0,0,1-.426-1.485,5.823,5.823,0,0,0-.593,4.072,14.248,14.248,0,0,0,1.952,4.518" transform="translate(-899.188 634.606)" fill="#eaeaea"/>
      <path id="path454" d="M989.523-628.271a20.71,20.71,0,0,0-1.8-3.413,11.394,11.394,0,0,1-1.406-3.435,10.344,10.344,0,0,1-.183-2.776,5.85,5.85,0,0,0-1.381,3.875c.067,1.723,1.158,2.955,2.13,4.24a17.251,17.251,0,0,1,2.637,5.4v-3.9" transform="translate(-921.358 699.83)" fill="#eaeaea"/>
      <path id="path456" d="M1043.178-783.331a10,10,0,0,0-1.609,4.995,13.281,13.281,0,0,0,1.609,5.085,13.283,13.283,0,0,0,1.609-5.085,10,10,0,0,0-1.609-4.995" transform="translate(-974.517 835.904)" fill="#eaeaea"/>
      <path id="path458" d="M1066.479-293.335l.006-.015h-.012l.006.015" transform="translate(-997.819 377.466)" fill="#eaeaea"/>
      <path id="path460" d="M1256.189-628.271a20.71,20.71,0,0,0-1.8-3.413,11.4,11.4,0,0,1-1.406-3.435,10.341,10.341,0,0,1-.183-2.776,5.85,5.85,0,0,0-1.381,3.875c.067,1.723,1.158,2.955,2.13,4.24a17.253,17.253,0,0,1,2.637,5.4v-3.9" transform="translate(-1170.857 699.83)" fill="#eaeaea"/>
      <path id="path462" d="M1229.8-559.593c.613,1.035,1.248,2.057,1.853,3.1a41.548,41.548,0,0,1,2.367,4.806V-555.6a35.079,35.079,0,0,0-1.13-4.223,15.275,15.275,0,0,0-1.8-3.634,21.121,21.121,0,0,1-2.226-3.239,5.561,5.561,0,0,1-.426-1.485,5.823,5.823,0,0,0-.593,4.072,14.247,14.247,0,0,0,1.952,4.518" transform="translate(-1148.688 634.606)" fill="#eaeaea"/>
      <path id="path464" d="M1342.755-631.684a20.745,20.745,0,0,0-1.8,3.413v3.9a17.24,17.24,0,0,1,2.638-5.4c.973-1.285,2.063-2.517,2.13-4.24a5.852,5.852,0,0,0-1.381-3.875,10.376,10.376,0,0,1-.183,2.776,11.4,11.4,0,0,1-1.406,3.435" transform="translate(-1254.632 699.83)" fill="#eaeaea"/>
      <path id="path466" d="M1309.844-783.331a10,10,0,0,0-1.609,4.995,13.281,13.281,0,0,0,1.609,5.085,13.274,13.274,0,0,0,1.609-5.085,9.988,9.988,0,0,0-1.609-4.995" transform="translate(-1224.016 835.904)" fill="#eaeaea"/>
      <path id="path468" d="M1342.542-677.758a9.536,9.536,0,0,0-.44-5.919,24.452,24.452,0,0,1-1.784,4.621c-.106,1.642-.046,3.3-.082,4.944q.021.468.051.936a19.924,19.924,0,0,0,2.255-4.582" transform="translate(-1253.959 742.665)" fill="#eaeaea"/>
      <path id="path470" d="M1288.588-679.056a24.457,24.457,0,0,1-1.784-4.621,9.533,9.533,0,0,0-.44,5.919,19.909,19.909,0,0,0,2.255,4.582q.03-.467.051-.936c-.036-1.646.025-3.3-.082-4.944" transform="translate(-1203.292 742.665)" fill="#eaeaea"/>
      <path id="path472" d="M1333.145-293.335l.006-.015h-.012l.006.015" transform="translate(-1247.318 377.466)" fill="#eaeaea"/>
      <path id="path474" d="M1345.5-560.37c1.319-2.3,2.614-5.584,1.033-8.048a5.711,5.711,0,0,1-.656,1.962c-.642,1.164-1.589,2.108-2.293,3.229a22.684,22.684,0,0,0-2.631,7.4v3.9c.326-.783.67-1.557,1.041-2.319,1.035-2.124,2.335-4.082,3.505-6.125" transform="translate(-1254.632 634.825)" fill="#eaeaea"/>
      <path id="path476" d="M1599.821-293.349h-.011l.005.015.006-.015" transform="translate(-1496.822 377.466)" fill="#eaeaea"/>
      <path id="path478" d="M1497.759-563.459a21.148,21.148,0,0,1-2.226-3.239,5.56,5.56,0,0,1-.425-1.485,5.821,5.821,0,0,0-.593,4.072,14.235,14.235,0,0,0,1.952,4.518c.613,1.035,1.248,2.057,1.853,3.1a41.652,41.652,0,0,1,2.368,4.806V-555.6a35.287,35.287,0,0,0-1.13-4.223,15.28,15.28,0,0,0-1.8-3.634" transform="translate(-1398.189 634.606)" fill="#eaeaea"/>
      <path id="path480" d="M1574.9-778.336a13.277,13.277,0,0,0,1.609,5.085l.005-.012v-10.058l-.005-.01a10,10,0,0,0-1.609,4.995" transform="translate(-1473.516 835.904)" fill="#eaeaea"/>
      <path id="path482" d="M1519.651-635.118a10.306,10.306,0,0,1-.183-2.776,5.848,5.848,0,0,0-1.381,3.875c.067,1.723,1.158,2.955,2.13,4.24a17.277,17.277,0,0,1,2.638,5.4v-3.9a20.751,20.751,0,0,0-1.8-3.413,11.4,11.4,0,0,1-1.405-3.435" transform="translate(-1420.357 699.83)" fill="#eaeaea"/>
      <path id="path484" d="M1553.029-677.758a19.889,19.889,0,0,0,2.255,4.582q.03-.467.051-.936c-.036-1.646.024-3.3-.082-4.944a24.467,24.467,0,0,1-1.784-4.621,9.529,9.529,0,0,0-.439,5.919" transform="translate(-1452.789 742.665)" fill="#eaeaea"/>
      <path id="path486" d="M1466.688-1573.542l-.005-.015-.006.016h.011" transform="translate(-1372.259 1575.258)" fill="#eaeaea"/>
      <path id="path488" d="M1362.441-1539.881c.642-1.164,1.589-2.109,2.293-3.23a22.68,22.68,0,0,0,2.631-7.4v-3.9c-.326.783-.67,1.557-1.041,2.318-1.035,2.124-2.336,4.082-3.505,6.125-1.319,2.3-2.614,5.584-1.033,8.047a5.712,5.712,0,0,1,.656-1.962" transform="translate(-1273.438 1557.344)" fill="#eaeaea"/>
      <path id="path490" d="M1419.865-1341.509a9.537,9.537,0,0,0,.44,5.919,24.452,24.452,0,0,1,1.784-4.621c.106-1.642.046-3.3.082-4.944q-.021-.468-.051-.935a19.914,19.914,0,0,0-2.255,4.581" transform="translate(-1328.199 1362.435)" fill="#eaeaea"/>
      <path id="path492" d="M1477.666-1428.027a10.305,10.305,0,0,1,.183,2.776,5.848,5.848,0,0,0,1.381-3.875c-.067-1.723-1.158-2.955-2.13-4.24a17.261,17.261,0,0,1-2.637-5.4v3.9a20.661,20.661,0,0,0,1.8,3.413,11.4,11.4,0,0,1,1.405,3.435" transform="translate(-1379.544 1449.149)" fill="#eaeaea"/>
      <path id="path494" d="M1475.6-1335.59a9.529,9.529,0,0,0,.439-5.919,19.874,19.874,0,0,0-2.255-4.581q-.03.467-.051.935c.036,1.646-.024,3.3.082,4.944a24.459,24.459,0,0,1,1.784,4.621" transform="translate(-1378.858 1362.435)" fill="#eaeaea"/>
      <path id="path496" d="M1387.9-1431.462a20.725,20.725,0,0,0,1.8-3.413v-3.9a17.244,17.244,0,0,1-2.638,5.4c-.973,1.285-2.063,2.517-2.13,4.24a5.847,5.847,0,0,0,1.38,3.875,10.375,10.375,0,0,1,.183-2.776,11.4,11.4,0,0,1,1.406-3.435" transform="translate(-1295.768 1449.149)" fill="#eaeaea"/>
      <path id="path498" d="M1441.74-1234.823a9.99,9.99,0,0,0,1.609,4.995,10,10,0,0,0,1.609-4.995,13.278,13.278,0,0,0-1.609-5.085,13.278,13.278,0,0,0-1.609,5.085" transform="translate(-1348.927 1263.089)" fill="#eaeaea"/>
      <path id="path500" d="M1477.391-1542.919a21.163,21.163,0,0,1,2.227,3.239,5.554,5.554,0,0,1,.425,1.484,5.821,5.821,0,0,0,.593-4.072,14.235,14.235,0,0,0-1.952-4.518c-.613-1.035-1.248-2.057-1.853-3.1a41.441,41.441,0,0,1-2.367-4.806v3.912a35.1,35.1,0,0,0,1.13,4.224,15.273,15.273,0,0,0,1.8,3.634" transform="translate(-1379.544 1557.606)" fill="#eaeaea"/>
      <path id="path502" d="M1153.2-1341.509a9.533,9.533,0,0,0,.44,5.919,24.471,24.471,0,0,1,1.784-4.621c.106-1.642.046-3.3.082-4.944q-.021-.468-.051-.935a19.9,19.9,0,0,0-2.255,4.581" transform="translate(-1078.698 1362.435)" fill="#eaeaea"/>
      <path id="path504" d="M1175.069-1234.823a10,10,0,0,0,1.609,4.995,10,10,0,0,0,1.609-4.995,13.282,13.282,0,0,0-1.609-5.085,13.281,13.281,0,0,0-1.609,5.085" transform="translate(-1099.422 1263.089)" fill="#eaeaea"/>
      <path id="path506" d="M1095.774-1539.881c.642-1.164,1.589-2.109,2.293-3.23a22.674,22.674,0,0,0,2.631-7.4v-3.9c-.326.783-.67,1.557-1.041,2.318-1.035,2.124-2.335,4.082-3.505,6.125-1.32,2.3-2.614,5.584-1.033,8.047a5.725,5.725,0,0,1,.656-1.962" transform="translate(-1023.938 1557.344)" fill="#eaeaea"/>
      <path id="path508" d="M1200.019-1573.542l-.006-.015-.006.016h.012" transform="translate(-1122.757 1575.258)" fill="#eaeaea"/>
      <path id="path510" d="M1208.933-1335.59a9.535,9.535,0,0,0,.44-5.919,19.9,19.9,0,0,0-2.255-4.581q-.03.467-.051.935c.036,1.646-.025,3.3.082,4.944a24.466,24.466,0,0,1,1.784,4.621" transform="translate(-1129.363 1362.435)" fill="#eaeaea"/>
      <path id="path512" d="M1121.224-1431.462a20.7,20.7,0,0,0,1.8-3.413v-3.9a17.257,17.257,0,0,1-2.637,5.4c-.973,1.285-2.064,2.517-2.13,4.24a5.849,5.849,0,0,0,1.381,3.875,10.34,10.34,0,0,1,.183-2.776,11.4,11.4,0,0,1,1.406-3.435" transform="translate(-1046.264 1449.149)" fill="#eaeaea"/>
      <path id="path514" d="M1210.994-1428.027a10.335,10.335,0,0,1,.183,2.776,5.849,5.849,0,0,0,1.381-3.875c-.067-1.723-1.158-2.955-2.13-4.24a17.254,17.254,0,0,1-2.637-5.4v3.9a20.7,20.7,0,0,0,1.8,3.413,11.391,11.391,0,0,1,1.406,3.435" transform="translate(-1130.039 1449.149)" fill="#eaeaea"/>
      <path id="path516" d="M1210.719-1542.919a21.127,21.127,0,0,1,2.226,3.239,5.561,5.561,0,0,1,.426,1.484,5.823,5.823,0,0,0,.593-4.072,14.249,14.249,0,0,0-1.952-4.518c-.613-1.035-1.248-2.057-1.854-3.1a41.481,41.481,0,0,1-2.367-4.806v3.912a35.1,35.1,0,0,0,1.13,4.224,15.273,15.273,0,0,0,1.8,3.634" transform="translate(-1130.039 1557.606)" fill="#eaeaea"/>
      <path id="path518" d="M942.267-1335.59a9.533,9.533,0,0,0,.44-5.919,19.9,19.9,0,0,0-2.255-4.581q-.03.467-.051.935c.036,1.646-.025,3.3.082,4.944a24.461,24.461,0,0,1,1.784,4.621" transform="translate(-879.863 1362.435)" fill="#eaeaea"/>
      <path id="path520" d="M908.4-1234.823a10,10,0,0,0,1.609,4.995,10,10,0,0,0,1.609-4.995,13.283,13.283,0,0,0-1.609-5.085,13.281,13.281,0,0,0-1.609,5.085" transform="translate(-849.923 1263.089)" fill="#eaeaea"/>
      <path id="path522" d="M854.558-1431.462a20.712,20.712,0,0,0,1.8-3.413v-3.9a17.255,17.255,0,0,1-2.637,5.4c-.973,1.285-2.064,2.517-2.13,4.24a5.849,5.849,0,0,0,1.381,3.875,10.343,10.343,0,0,1,.183-2.776,11.4,11.4,0,0,1,1.406-3.435" transform="translate(-796.764 1449.149)" fill="#eaeaea"/>
      <path id="path524" d="M944.053-1542.919a21.122,21.122,0,0,1,2.226,3.239,5.561,5.561,0,0,1,.426,1.484,5.824,5.824,0,0,0,.593-4.072,14.251,14.251,0,0,0-1.952-4.518c-.613-1.035-1.248-2.057-1.854-3.1a41.491,41.491,0,0,1-2.367-4.806v3.912a35.087,35.087,0,0,0,1.13,4.224,15.271,15.271,0,0,0,1.8,3.634" transform="translate(-880.539 1557.606)" fill="#eaeaea"/>
      <path id="path526" d="M944.328-1428.027a10.335,10.335,0,0,1,.183,2.776,5.849,5.849,0,0,0,1.381-3.875c-.067-1.723-1.158-2.955-2.13-4.24a17.256,17.256,0,0,1-2.637-5.4v3.9a20.7,20.7,0,0,0,1.8,3.413,11.394,11.394,0,0,1,1.406,3.435" transform="translate(-880.539 1449.149)" fill="#eaeaea"/>
      <path id="path528" d="M933.353-1573.542l-.006-.015-.006.016h.012" transform="translate(-873.258 1575.258)" fill="#eaeaea"/>
      <path id="path530" d="M829.107-1539.881c.642-1.164,1.589-2.109,2.293-3.23a22.671,22.671,0,0,0,2.631-7.4v-3.9c-.326.783-.67,1.557-1.041,2.318-1.035,2.124-2.335,4.082-3.505,6.125-1.32,2.3-2.614,5.584-1.033,8.047a5.728,5.728,0,0,1,.656-1.962" transform="translate(-774.439 1557.344)" fill="#eaeaea"/>
      <path id="path532" d="M886.532-1341.509a9.533,9.533,0,0,0,.44,5.919,24.47,24.47,0,0,1,1.784-4.621c.106-1.642.046-3.3.082-4.944q-.021-.468-.051-.935a19.9,19.9,0,0,0-2.255,4.581" transform="translate(-829.199 1362.435)" fill="#eaeaea"/>
      <path id="path534" d="M675.6-1335.59a9.533,9.533,0,0,0,.44-5.919,19.9,19.9,0,0,0-2.255-4.581q-.03.467-.051.935c.036,1.646-.025,3.3.082,4.944a24.461,24.461,0,0,1,1.784,4.621" transform="translate(-630.364 1362.435)" fill="#eaeaea"/>
      <path id="path536" d="M619.866-1341.509a9.533,9.533,0,0,0,.44,5.919,24.467,24.467,0,0,1,1.784-4.621c.106-1.642.046-3.3.082-4.944q-.021-.468-.051-.935a19.9,19.9,0,0,0-2.255,4.581" transform="translate(-579.699 1362.435)" fill="#eaeaea"/>
      <path id="path538" d="M666.687-1573.542l-.006-.015-.006.016h.012" transform="translate(-623.758 1575.258)" fill="#eaeaea"/>
      <path id="path540" d="M562.441-1539.881c.642-1.164,1.589-2.109,2.293-3.23a22.674,22.674,0,0,0,2.631-7.4v-3.9c-.326.783-.67,1.557-1.041,2.318-1.035,2.124-2.335,4.082-3.505,6.125-1.32,2.3-2.614,5.584-1.033,8.047a5.728,5.728,0,0,1,.656-1.962" transform="translate(-524.939 1557.344)" fill="#eaeaea"/>
      <path id="path542" d="M677.387-1542.919a21.122,21.122,0,0,1,2.226,3.239,5.558,5.558,0,0,1,.426,1.484,5.823,5.823,0,0,0,.593-4.072,14.251,14.251,0,0,0-1.952-4.518c-.613-1.035-1.248-2.057-1.854-3.1a41.491,41.491,0,0,1-2.367-4.806v3.912a35.087,35.087,0,0,0,1.13,4.224,15.273,15.273,0,0,0,1.8,3.634" transform="translate(-631.04 1557.606)" fill="#eaeaea"/>
      <path id="path544" d="M677.662-1428.027a10.335,10.335,0,0,1,.183,2.776,5.85,5.85,0,0,0,1.381-3.875c-.067-1.723-1.158-2.955-2.13-4.24a17.257,17.257,0,0,1-2.637-5.4v3.9a20.694,20.694,0,0,0,1.8,3.413,11.394,11.394,0,0,1,1.406,3.435" transform="translate(-631.04 1449.149)" fill="#eaeaea"/>
      <path id="path546" d="M641.736-1234.823a10,10,0,0,0,1.609,4.995,10,10,0,0,0,1.609-4.995,13.281,13.281,0,0,0-1.609-5.085,13.282,13.282,0,0,0-1.609,5.085" transform="translate(-600.424 1263.089)" fill="#eaeaea"/>
      <path id="path548" d="M587.892-1431.462a20.708,20.708,0,0,0,1.8-3.413v-3.9a17.257,17.257,0,0,1-2.637,5.4c-.973,1.285-2.064,2.517-2.13,4.24a5.85,5.85,0,0,0,1.381,3.875,10.343,10.343,0,0,1,.183-2.776,11.4,11.4,0,0,1,1.406-3.435" transform="translate(-547.265 1449.149)" fill="#eaeaea"/>
      <path id="path550" d="M353.2-1341.509a9.533,9.533,0,0,0,.44,5.919,24.471,24.471,0,0,1,1.784-4.621c.106-1.642.046-3.3.082-4.944q-.021-.468-.051-.935a19.9,19.9,0,0,0-2.255,4.581" transform="translate(-330.2 1362.435)" fill="#eaeaea"/>
      <path id="path552" d="M400.021-1573.542l-.006-.015-.006.016h.012" transform="translate(-374.259 1575.258)" fill="#eaeaea"/>
      <path id="path554" d="M411-1428.027a10.335,10.335,0,0,1,.183,2.776,5.85,5.85,0,0,0,1.381-3.875c-.067-1.723-1.158-2.955-2.13-4.24a17.255,17.255,0,0,1-2.637-5.4v3.9a20.7,20.7,0,0,0,1.8,3.413,11.394,11.394,0,0,1,1.406,3.435" transform="translate(-381.541 1449.149)" fill="#eaeaea"/>
      <path id="path556" d="M408.935-1335.59a9.533,9.533,0,0,0,.44-5.919,19.9,19.9,0,0,0-2.255-4.581q-.03.467-.051.935c.036,1.646-.025,3.3.082,4.944a24.461,24.461,0,0,1,1.784,4.621" transform="translate(-380.865 1362.435)" fill="#eaeaea"/>
      <path id="path558" d="M375.07-1234.823a10,10,0,0,0,1.609,4.995,10,10,0,0,0,1.609-4.995,13.282,13.282,0,0,0-1.609-5.085,13.281,13.281,0,0,0-1.609,5.085" transform="translate(-350.924 1263.089)" fill="#eaeaea"/>
      <path id="path560" d="M410.721-1542.919a21.122,21.122,0,0,1,2.226,3.239,5.56,5.56,0,0,1,.426,1.484,5.824,5.824,0,0,0,.593-4.072,14.249,14.249,0,0,0-1.952-4.518c-.613-1.035-1.248-2.057-1.853-3.1a41.486,41.486,0,0,1-2.367-4.806v3.912a35.076,35.076,0,0,0,1.13,4.224,15.271,15.271,0,0,0,1.8,3.634" transform="translate(-381.541 1557.606)" fill="#eaeaea"/>
      <path id="path562" d="M321.226-1431.462a20.707,20.707,0,0,0,1.8-3.413v-3.9a17.256,17.256,0,0,1-2.637,5.4c-.973,1.285-2.064,2.517-2.13,4.24a5.849,5.849,0,0,0,1.381,3.875,10.34,10.34,0,0,1,.183-2.776,11.4,11.4,0,0,1,1.406-3.435" transform="translate(-297.766 1449.149)" fill="#eaeaea"/>
      <path id="path564" d="M295.775-1539.881c.642-1.164,1.589-2.109,2.293-3.23a22.671,22.671,0,0,0,2.631-7.4v-3.9c-.326.783-.67,1.557-1.041,2.318-1.035,2.124-2.335,4.082-3.505,6.125-1.32,2.3-2.614,5.584-1.033,8.047a5.727,5.727,0,0,1,.656-1.962" transform="translate(-275.44 1557.344)" fill="#eaeaea"/>
      <path id="path566" d="M86.534-1341.509a9.533,9.533,0,0,0,.44,5.919,24.468,24.468,0,0,1,1.784-4.621c.106-1.642.046-3.3.082-4.944q-.021-.468-.05-.935a19.9,19.9,0,0,0-2.255,4.581" transform="translate(-80.701 1362.435)" fill="#eaeaea"/>
      <path id="path568" d="M133.355-1573.542l-.006-.015-.006.016h.012" transform="translate(-124.76 1575.258)" fill="#eaeaea"/>
      <path id="path570" d="M142.269-1335.59a9.533,9.533,0,0,0,.44-5.919,19.9,19.9,0,0,0-2.255-4.581q-.03.467-.051.935c.036,1.646-.025,3.3.082,4.944a24.461,24.461,0,0,1,1.784,4.621" transform="translate(-131.365 1362.435)" fill="#eaeaea"/>
      <path id="path572" d="M144.33-1428.027a10.336,10.336,0,0,1,.183,2.776,5.849,5.849,0,0,0,1.381-3.875c-.067-1.723-1.158-2.955-2.13-4.24a17.254,17.254,0,0,1-2.637-5.4v3.9a20.7,20.7,0,0,0,1.8,3.413,11.4,11.4,0,0,1,1.406,3.435" transform="translate(-132.041 1449.149)" fill="#eaeaea"/>
      <path id="path574" d="M29.109-1539.881c.642-1.164,1.589-2.109,2.293-3.23a22.672,22.672,0,0,0,2.631-7.4v-3.9c-.326.783-.67,1.557-1.041,2.318-1.035,2.124-2.335,4.082-3.5,6.125-1.32,2.3-2.614,5.584-1.033,8.047a5.729,5.729,0,0,1,.656-1.962" transform="translate(-25.941 1557.344)" fill="#eaeaea"/>
      <path id="path576" d="M108.4-1234.823a10,10,0,0,0,1.609,4.995,10,10,0,0,0,1.609-4.995,13.282,13.282,0,0,0-1.609-5.085,13.281,13.281,0,0,0-1.609,5.085" transform="translate(-101.425 1263.089)" fill="#eaeaea"/>
      <path id="path578" d="M144.055-1542.919a21.133,21.133,0,0,1,2.226,3.239,5.559,5.559,0,0,1,.426,1.484,5.823,5.823,0,0,0,.593-4.072,14.25,14.25,0,0,0-1.952-4.518c-.613-1.035-1.248-2.057-1.853-3.1a41.494,41.494,0,0,1-2.367-4.806v3.912a35.081,35.081,0,0,0,1.13,4.224,15.272,15.272,0,0,0,1.8,3.634" transform="translate(-132.041 1557.606)" fill="#eaeaea"/>
      <path id="path580" d="M56.359-1434.875v-3.9a17.255,17.255,0,0,1-2.637,5.4c-.973,1.285-2.064,2.517-2.13,4.24a5.849,5.849,0,0,0,1.381,3.875,10.34,10.34,0,0,1,.183-2.776,11.4,11.4,0,0,1,1.406-3.435,20.716,20.716,0,0,0,1.8-3.413" transform="translate(-48.266 1449.149)" fill="#eaeaea"/>
      <path id="path582" d="M81.586-33.119c-.056.1-.114.2-.174.3h1.546a4.659,4.659,0,0,0-.716-2.258,5.721,5.721,0,0,1-.656,1.961" transform="translate(-76.171 135.822)" fill="#eaeaea"/>
      <path id="path584" d="M32.677-104.56a10.337,10.337,0,0,1-.183,2.776,11.407,11.407,0,0,1-1.406,3.435c-.1.174-.2.347-.308.52h2.183a5.307,5.307,0,0,0,1.094-2.857,5.849,5.849,0,0,0-1.381-3.874" transform="translate(-28.799 200.829)" fill="#eaeaea"/>
      <path id="path586" d="M8.77-150.346a24.446,24.446,0,0,1-1.784,4.62c-.106,1.642-.046,3.3-.082,4.945,0,.038,0,.076.006.113h.516a14.754,14.754,0,0,0,1.784-3.76,9.534,9.534,0,0,0-.44-5.919" transform="translate(-6.46 243.668)" fill="#eaeaea"/>
      <path id="path588" d="M0-249.853v10.059a13.244,13.244,0,0,0,1.6-5.074A9.982,9.982,0,0,0,0-249.853" transform="translate(0 336.768)" fill="#eaeaea"/>
      <path id="path590" d="M299.342-104.56a10.338,10.338,0,0,1-.183,2.776,11.407,11.407,0,0,1-1.406,3.435c-.1.174-.2.347-.308.52h2.183a5.307,5.307,0,0,0,1.094-2.857,5.849,5.849,0,0,0-1.381-3.874" transform="translate(-278.298 200.829)" fill="#eaeaea"/>
      <path id="path592" d="M275.436-150.346a24.442,24.442,0,0,1-1.784,4.62c-.106,1.642-.046,3.3-.082,4.945,0,.038,0,.076.006.113h.516a14.754,14.754,0,0,0,1.784-3.76,9.534,9.534,0,0,0-.44-5.919" transform="translate(-255.959 243.668)" fill="#eaeaea"/>
      <path id="path594" d="M348.252-33.119c-.055.1-.114.2-.174.3h1.546a4.659,4.659,0,0,0-.716-2.258,5.72,5.72,0,0,1-.656,1.961" transform="translate(-325.67 135.822)" fill="#eaeaea"/>
      <path id="path596" d="M186.321-101.784a10.335,10.335,0,0,1-.183-2.776,5.85,5.85,0,0,0-1.381,3.874,5.307,5.307,0,0,0,1.094,2.857h2.184c-.1-.173-.207-.346-.308-.52a11.4,11.4,0,0,1-1.406-3.435" transform="translate(-172.86 200.829)" fill="#eaeaea"/>
      <path id="path598" d="M162.093-34.854a5.09,5.09,0,0,0-.695,2.244h1.525a6.45,6.45,0,0,1-.4-.759,5.565,5.565,0,0,1-.426-1.485" transform="translate(-151.008 135.61)" fill="#eaeaea"/>
      <path id="path600" d="M221.924-145.726a24.459,24.459,0,0,1-1.784-4.62,9.535,9.535,0,0,0-.44,5.919,14.753,14.753,0,0,0,1.784,3.76H222c0-.038,0-.076.006-.113-.036-1.646.025-3.3-.082-4.945" transform="translate(-205.294 243.668)" fill="#eaeaea"/>
      <path id="path602" d="M241.571-245a13.279,13.279,0,0,0,1.609,5.085A13.28,13.28,0,0,0,244.789-245,10,10,0,0,0,243.18-250,9.994,9.994,0,0,0,241.571-245" transform="translate(-226.019 336.906)" fill="#eaeaea"/>
      <path id="path604" d="M452.987-101.784a10.338,10.338,0,0,1-.183-2.776,5.85,5.85,0,0,0-1.381,3.874,5.307,5.307,0,0,0,1.094,2.857H454.7c-.1-.173-.207-.346-.308-.52a11.393,11.393,0,0,1-1.406-3.435" transform="translate(-422.359 200.829)" fill="#eaeaea"/>
      <path id="path606" d="M566.008-104.56a10.339,10.339,0,0,1-.183,2.776,11.406,11.406,0,0,1-1.406,3.435c-.1.174-.2.347-.308.52H566.3a5.307,5.307,0,0,0,1.094-2.857,5.85,5.85,0,0,0-1.381-3.874" transform="translate(-527.797 200.829)" fill="#eaeaea"/>
      <path id="path608" d="M428.759-34.854a5.09,5.09,0,0,0-.7,2.244h1.525a6.448,6.448,0,0,1-.4-.759,5.565,5.565,0,0,1-.426-1.485" transform="translate(-400.508 135.61)" fill="#eaeaea"/>
      <path id="path610" d="M614.917-33.119c-.055.1-.114.2-.174.3h1.546a4.658,4.658,0,0,0-.716-2.258,5.718,5.718,0,0,1-.656,1.961" transform="translate(-575.17 135.822)" fill="#eaeaea"/>
      <path id="path612" d="M542.1-150.346a24.445,24.445,0,0,1-1.784,4.62c-.106,1.642-.046,3.3-.082,4.945,0,.038,0,.076.006.113h.516a14.755,14.755,0,0,0,1.784-3.76,9.535,9.535,0,0,0-.44-5.919" transform="translate(-505.458 243.668)" fill="#eaeaea"/>
      <path id="path614" d="M508.237-245a13.279,13.279,0,0,0,1.609,5.085A13.28,13.28,0,0,0,511.455-245,10,10,0,0,0,509.846-250,9.994,9.994,0,0,0,508.237-245" transform="translate(-475.518 336.906)" fill="#eaeaea"/>
      <path id="path616" d="M488.59-145.726a24.458,24.458,0,0,1-1.784-4.62,9.535,9.535,0,0,0-.44,5.919,14.754,14.754,0,0,0,1.784,3.76h.516c0-.038,0-.076.006-.113-.036-1.646.025-3.3-.082-4.945" transform="translate(-454.794 243.668)" fill="#eaeaea"/>
      <path id="path618" d="M808.768-150.346a24.449,24.449,0,0,1-1.784,4.62c-.106,1.642-.046,3.3-.082,4.945,0,.038,0,.076.006.113h.516a14.753,14.753,0,0,0,1.784-3.76,9.535,9.535,0,0,0-.44-5.919" transform="translate(-754.958 243.668)" fill="#eaeaea"/>
      <path id="path620" d="M881.584-33.119c-.055.1-.114.2-.174.3h1.546a4.659,4.659,0,0,0-.716-2.258,5.721,5.721,0,0,1-.656,1.961" transform="translate(-824.669 135.822)" fill="#eaeaea"/>
      <path id="path622" d="M755.256-145.726a24.462,24.462,0,0,1-1.784-4.62,9.534,9.534,0,0,0-.44,5.919,14.753,14.753,0,0,0,1.784,3.76h.516c0-.038,0-.076.006-.113-.036-1.646.025-3.3-.082-4.945" transform="translate(-704.293 243.668)" fill="#eaeaea"/>
      <path id="path624" d="M832.674-104.56a10.337,10.337,0,0,1-.183,2.776,11.407,11.407,0,0,1-1.406,3.435c-.1.174-.2.347-.308.52h2.183a5.307,5.307,0,0,0,1.094-2.857,5.85,5.85,0,0,0-1.381-3.874" transform="translate(-777.297 200.829)" fill="#eaeaea"/>
      <path id="path626" d="M695.425-34.854a5.09,5.09,0,0,0-.695,2.244h1.525a6.443,6.443,0,0,1-.4-.759,5.565,5.565,0,0,1-.426-1.485" transform="translate(-650.007 135.61)" fill="#eaeaea"/>
      <path id="path628" d="M774.9-245a13.278,13.278,0,0,0,1.609,5.085A13.281,13.281,0,0,0,778.121-245,10,10,0,0,0,776.512-250,9.994,9.994,0,0,0,774.9-245" transform="translate(-725.017 336.906)" fill="#eaeaea"/>
      <path id="path630" d="M719.653-101.784a10.339,10.339,0,0,1-.183-2.776,5.85,5.85,0,0,0-1.381,3.874,5.307,5.307,0,0,0,1.094,2.857h2.183c-.1-.173-.206-.346-.308-.52a11.392,11.392,0,0,1-1.406-3.435" transform="translate(-671.859 200.829)" fill="#eaeaea"/>
      <path id="path632" d="M1021.922-145.726a24.458,24.458,0,0,1-1.784-4.62,9.535,9.535,0,0,0-.44,5.919,14.755,14.755,0,0,0,1.784,3.76H1022c0-.038,0-.076.006-.113-.036-1.646.025-3.3-.082-4.945" transform="translate(-953.792 243.668)" fill="#eaeaea"/>
      <path id="path634" d="M1075.434-150.346a24.441,24.441,0,0,1-1.784,4.62c-.106,1.642-.046,3.3-.082,4.945,0,.038,0,.076.006.113h.516a14.755,14.755,0,0,0,1.784-3.76,9.534,9.534,0,0,0-.44-5.919" transform="translate(-1004.457 243.668)" fill="#eaeaea"/>
      <path id="path636" d="M1041.569-245a13.278,13.278,0,0,0,1.609,5.085,13.28,13.28,0,0,0,1.609-5.085,10,10,0,0,0-1.609-4.995,9.994,9.994,0,0,0-1.609,4.995" transform="translate(-974.517 336.906)" fill="#eaeaea"/>
      <path id="path638" d="M962.091-34.854a5.09,5.09,0,0,0-.7,2.244h1.525a6.452,6.452,0,0,1-.4-.759,5.565,5.565,0,0,1-.426-1.485" transform="translate(-899.506 135.61)" fill="#eaeaea"/>
      <path id="path640" d="M986.319-101.784a10.342,10.342,0,0,1-.183-2.776,5.85,5.85,0,0,0-1.381,3.874,5.308,5.308,0,0,0,1.094,2.857h2.184c-.1-.173-.207-.346-.308-.52a11.392,11.392,0,0,1-1.406-3.435" transform="translate(-921.358 200.829)" fill="#eaeaea"/>
      <path id="path642" d="M1148.25-33.119c-.055.1-.114.2-.174.3h1.546a4.659,4.659,0,0,0-.716-2.258,5.722,5.722,0,0,1-.656,1.961" transform="translate(-1074.168 135.822)" fill="#eaeaea"/>
      <path id="path644" d="M1099.34-104.56a10.339,10.339,0,0,1-.183,2.776,11.409,11.409,0,0,1-1.406,3.435c-.1.174-.2.347-.308.52h2.183a5.308,5.308,0,0,0,1.094-2.857,5.85,5.85,0,0,0-1.381-3.874" transform="translate(-1026.796 200.829)" fill="#eaeaea"/>
      <path id="path646" d="M1228.757-34.854a5.09,5.09,0,0,0-.7,2.244h1.525a6.461,6.461,0,0,1-.4-.759,5.567,5.567,0,0,1-.426-1.485" transform="translate(-1149.006 135.61)" fill="#eaeaea"/>
      <path id="path648" d="M1288.588-145.726a24.454,24.454,0,0,1-1.784-4.62,9.534,9.534,0,0,0-.44,5.919,14.755,14.755,0,0,0,1.784,3.76h.516c0-.038,0-.076.006-.113-.036-1.646.025-3.3-.082-4.945" transform="translate(-1203.292 243.668)" fill="#eaeaea"/>
      <path id="path650" d="M1342.1-150.346a24.431,24.431,0,0,1-1.784,4.62c-.106,1.642-.046,3.3-.082,4.945l.005.113h.516a14.756,14.756,0,0,0,1.784-3.76,9.537,9.537,0,0,0-.44-5.919" transform="translate(-1253.959 243.668)" fill="#eaeaea"/>
      <path id="path652" d="M1308.235-245a13.281,13.281,0,0,0,1.609,5.085,13.269,13.269,0,0,0,1.609-5.085,9.986,9.986,0,0,0-1.609-4.995,10,10,0,0,0-1.609,4.995" transform="translate(-1224.016 336.906)" fill="#eaeaea"/>
      <path id="path654" d="M1252.985-101.784a10.339,10.339,0,0,1-.183-2.776,5.85,5.85,0,0,0-1.381,3.874,5.308,5.308,0,0,0,1.094,2.857h2.183c-.1-.173-.206-.346-.308-.52a11.394,11.394,0,0,1-1.406-3.435" transform="translate(-1170.857 200.829)" fill="#eaeaea"/>
      <path id="path656" d="M1414.916-33.119c-.055.1-.114.2-.173.3h1.546a4.661,4.661,0,0,0-.717-2.258,5.7,5.7,0,0,1-.656,1.961" transform="translate(-1323.669 135.822)" fill="#eaeaea"/>
      <path id="path658" d="M1366.013-104.56a10.374,10.374,0,0,1-.183,2.776,11.409,11.409,0,0,1-1.406,3.435c-.1.174-.2.347-.307.52h2.183a5.307,5.307,0,0,0,1.094-2.857,5.852,5.852,0,0,0-1.381-3.874" transform="translate(-1276.302 200.829)" fill="#eaeaea"/>
      <path id="path660" d="M1574.9-245a13.275,13.275,0,0,0,1.609,5.085l.005-.011V-249.99l-.005-.009A10,10,0,0,0,1574.9-245" transform="translate(-1473.516 336.906)" fill="#eaeaea"/>
      <path id="path662" d="M1519.651-101.784a10.3,10.3,0,0,1-.183-2.776,5.849,5.849,0,0,0-1.381,3.874,5.306,5.306,0,0,0,1.094,2.857h2.184c-.1-.173-.206-.346-.308-.52a11.4,11.4,0,0,1-1.405-3.435" transform="translate(-1420.357 200.829)" fill="#eaeaea"/>
      <path id="path664" d="M1495.425-34.854a5.076,5.076,0,0,0-.7,2.244h1.525a6.482,6.482,0,0,1-.405-.759,5.565,5.565,0,0,1-.425-1.485" transform="translate(-1398.506 135.61)" fill="#eaeaea"/>
      <path id="path666" d="M1555.253-145.726a24.455,24.455,0,0,1-1.784-4.62,9.531,9.531,0,0,0-.439,5.919,14.758,14.758,0,0,0,1.784,3.76h.516c0-.038,0-.076.006-.113-.036-1.646.024-3.3-.082-4.945" transform="translate(-1452.789 243.668)" fill="#eaeaea"/>
    </g>
  </g>
</svg>
