<svg xmlns="http://www.w3.org/2000/svg" width="18.625" height="10.464" viewBox="0 0 18.625 10.464">
  <path id="Path_49" data-name="Path 49" d="M14.515,6.249a.827.827,0,0,0-1.172,0L8.657,10.935l1.172,1.172,4.686-4.695a.833.833,0,0,0,0-1.163Zm3.523-.008L9.828,14.45,6.937,11.567a.828.828,0,1,0-1.172,1.172l3.473,3.473a.827.827,0,0,0,1.172,0l8.8-8.791a.827.827,0,0,0,0-1.172H19.2a.81.81,0,0,0-1.163-.008ZM1.071,12.747,4.544,16.22a.827.827,0,0,0,1.172,0l.582-.582L2.242,11.567a.827.827,0,0,0-1.172,0,.838.838,0,0,0,0,1.18Z" transform="translate(-0.827 -5.999)"/>
</svg>
