<svg xmlns="http://www.w3.org/2000/svg" width="71" height="71" viewBox="0 0 71 71">
  <g id="Group_9" data-name="Group 9" transform="translate(0.406 0.36)">
    <circle id="Ellipse_3" data-name="Ellipse 3" cx="35.5" cy="35.5" r="35.5" transform="translate(-0.406 -0.36)" fill="#f56968"/>
    <g id="arrow_forward_ios_black_48dp" transform="translate(20.871 14.449)">
      <g id="Group_7" data-name="Group 7" transform="translate(0 0)">
        <g id="Group_6" data-name="Group 6" transform="translate(0 0)">
          <rect id="Rectangle_2" data-name="Rectangle 2" width="42" height="42" transform="translate(-0.278 0.191)" fill="none"/>
        </g>
      </g>
      <g id="Group_8" data-name="Group 8" transform="translate(10.019 4.824)">
        <path id="Path_32" data-name="Path 32" d="M5.617,33.926h0a2.11,2.11,0,0,0,2.987,0L22.566,19.965a2.11,2.11,0,0,0,0-2.987L8.626,3.037a2.11,2.11,0,0,0-2.987,0h0a2.091,2.091,0,0,0-.021,2.987L18.075,18.482,5.617,30.939A2.11,2.11,0,0,0,5.617,33.926Z" transform="translate(-4.998 -2.418)" fill="#fff"/>
      </g>
    </g>
    <g id="arrow_forward_ios_black_48dp-2" data-name="arrow_forward_ios_black_48dp" transform="translate(16.055 20.871)">
      <g id="Group_7-2" data-name="Group 7" transform="translate(0 0)">
        <g id="Group_6-2" data-name="Group 6" transform="translate(0)">
          <rect id="Rectangle_2-2" data-name="Rectangle 2" width="29" height="29" transform="translate(-0.461 -0.231)" fill="none"/>
        </g>
      </g>
      <g id="Group_8-2" data-name="Group 8" transform="translate(7.868 3.892)">
        <path id="Path_32-2" data-name="Path 32" d="M5.408,23.315h0a1.4,1.4,0,0,0,1.981,0l9.26-9.26a1.4,1.4,0,0,0,0-1.981L7.4,2.828a1.4,1.4,0,0,0-1.981,0h0A1.387,1.387,0,0,0,5.408,4.81l8.262,8.262L5.408,21.334A1.4,1.4,0,0,0,5.408,23.315Z" transform="translate(-4.998 -2.418)" fill="#e6dede"/>
      </g>
    </g>
  </g>
</svg>
