<svg id="Group_5" data-name="Group 5" xmlns="http://www.w3.org/2000/svg" width="701.332" height="1007.468" viewBox="0 0 701.332 1007.468">
  <path id="Path_31" data-name="Path 31" d="M495.732-49.919c241.255,0,250.929,413.129,217.9,569.394S495.112,957.781,236.56,957.549,11.691,627.232,58.7,404.9,254.478-49.919,495.732-49.919Z" transform="translate(-26.113 49.919)" fill="#fcecef"/>
  <g id="Character_selfie" data-name="Character/selfie" transform="translate(81.258 68.883)">
    <path id="Accent" d="M556.728,382l.177.021c2.566.5,6.818,7.837,8.56,9.923l16.845,20.184c2.247,2.693,5.488,5.521,7.088,8.637,1.232,2.4,1.654,5.7,2.389,8.273,9.132,31.919,18.061,64.043,24.712,96.585,1.431,7,2.79,14.057,3.585,21.166.393,3.516,1.425,8.678-.106,12.075-1.726,3.828-7.278,5.419-10.885,6.6a148.714,148.714,0,0,1-21.634,4.92c-17.516,2.972-35.251,4.7-52.952,6.1-5.408.427-10.975.42-16.349,1.147-2.566.347-1.8-.342-2.606,1.381-1.126,2.4-.379,7.4-.513,10.014q-.472,9.222-.944,18.443h0l-2.576,50.307q-1.307,25.5-2.613,51-.494,9.662-.988,19.326c-.177,3.443.348,7.888-.575,11.222-.7,2.521.45,1.778-2.641,1.928-7.159.346-14.577-.521-21.738-.777l-24.368-.871c-2.32-.084-4.912.575-5.847-1.088-1.139-2.025-.272-7.594-.352-9.856q-.338-9.453-.676-18.907-.928-25.952-1.856-51.9-1.266-35.392-2.533-70.787-13.549,2.728-27.1,5.454-20.021,4.03-40.044,8.057c-6.121,1.233-13.392,4.045-19.713,3.138-6.279-.9-8.875-3.583-9.227-9.542-.379-6.389-.231-12.828-.146-19.223.141-10.459.442-20.916.837-31.369l53.5-4.819,28.489-2.567c2.155-.193,7.468.223,8.43-1.4,1.5-2.526-.169-10.829-.214-13.686h0l-.426-27h0l-1.559-99.358q6.406.21,12.81.387c18.576.525,37.245,1.285,55.827.713,9.319-.286,18.148-2.8,26.946-5.766,4.678-1.576,9.307-3.294,13.9-5.1,1.445-.568,5.7-3.257,7.26-2.956Zm-25.01,92.456-9.49,46.416,32.475-2.151Z" transform="translate(-243.084 33.591)" fill="#ff5678" fill-rule="evenodd"/>
    <g id="Ink" transform="translate(0 0)">
      <path id="ink-shape" d="M559.888,130.916c-.664,5.163-.192,10.792-6.02,12.152-5.393,1.261-11.312.907-16.811,1.349-6.18.5-12.341,1.174-18.508,1.786-7.776.769-6.667-2.218-8.366-8.858-1.554-6.064-4.033-12.115-6.095-18.029a64.065,64.065,0,0,0-3.41-7.868c-1.184-2.345-.62-5.535-1.9-7.506-4.352-6.725-25.582,11.664-27.554,8.04,3.592-2.8,9.809-5.926,10.911-10.711,1.3-5.624-2.278-7.3-6.769-5.247a139.49,139.49,0,0,1-35.856,10.864c3.9-2.605,39.151-23.141,27.32-29.232-2.667-1.373-6.228,1.211-8.633,2.189a90.35,90.35,0,0,1-11.787,3.61q-6.3,1.607-12.627,3.077c-2.961.684-8.238,3.112-11.123,2.512-2.929-.609,2.259-2.427,3.109-2.855,3.7-1.866,7.349-3.871,10.964-5.9a63.86,63.86,0,0,0,17.222-13.348c3.682-4.2,9.761-13.383,7.2-19.2-1.486-3.369-4.741-6.483-6.654-9.675-2.233-3.728-4.035-7.7-5.974-11.586,3.246,1.427,6.889,1.793,10.2,3.073s6.678,2.319,10.125,3.272c6.915,1.911,13.81,2.251,20.662,3.8,7.756,1.754,15.84,3.715,23.72,4.729a44.65,44.65,0,0,1,18.912,6.5,57.622,57.622,0,0,1,24.547,32.2c2.468,7.953,3.069,16.251,3.359,24.526.307,8.724.949,17.65-.168,26.336m-67.381.642c-8.384,6.112-18.159,10.888-27.156,16.088-5.149,2.973-10.406,5.753-15.658,8.541-3.727,1.978-8.254,5.618-12.356,6.633-2.595.643-2.4.691-4.043-1.675-1.569-2.259-2.94-4.691-4.41-7.018q-4.062-6.435-8.176-12.839c-6.129-9.58-12.247-19.16-18.688-28.537-6.461-9.409-12.659-18.991-18.919-28.534-2.909-4.437-5.8-8.89-8.887-13.2-2.358-3.294-8.4-8.32-5.531-12.2,2.666-3.6,8.739-6.6,12.331-9.324,4.389-3.33,8.8-6.625,13.182-9.972,9.412-7.195,18.575-14.7,27.978-21.907,7.979,14,17.365,27.116,26.834,40.127C440.445,63.2,431.795,68.4,422.772,73.075c-6.664,3.455-16.859,8.123-21.069,14.677-4.147,6.453-.074,13.9,7.318,14.018,4.42.07,8.826-1.1,13.16-1.769,3.128-.483,8.84-2.738,11.661-1.148-5.07,3.235-23.463,12.662-13.548,20.928,7.088,5.908,19.069-2.714,26.724-.939-2.333,4.477-4.759,11.622,1.719,14.057,5.39,2.027,12.445-1.751,17.3-3.754,3.506-1.448,6.988-2.945,10.436-4.524,2.74-1.257,6.023-3.8,8.951-4.346,3.417-.634,10.374,8.889,7.088,11.286M336.646,461.619c4.8-.875,7.26-2.859,8.771,2.965,1.354,5.218,2.694,10.243,4.438,15.363-7.493.647-14.1,4.225-19.566,9.258-3.891,3.585-11.63,12.145-9.711,18.149,4.661,14.593,28.2-18.144,31-21.642,3.425,5,4.684,11.557,6.387,17.282,1.211,4.073,5.707,11.882-.237,12.872-8.343,1.391-24,4.5-23.008,16.315,1.17,13.948,18.913,13.87,28.867,14.5,5.613.352,5.638,4.849,6.437,9.882.358,2.25,1.474,5.291-.436,6.94-1.7,1.463-6.894,1.5-9.1,1.977-6.438,1.382-12.872,2.791-19.31,4.172-7.307,1.568-11.172-.628-18-2.63-2.53-.74-5.071-.428-5.257-3.26-.114-1.737,1.587-4.425,2.143-6.143a95.814,95.814,0,0,0,4.716-20.941c.922-10.376-.23-25.933-13.006-27.958-6.078-.963-7.248-1.277-9.99-6.981-2.969-6.169-7.68-11.881-6.542-18.987.824-5.149-.566-14.892,2.72-19.163,1.52-1.975,4.482-3.152,6.5-4.6,2.576-1.848,5.057-3.826,7.458-5.9,2.019-1.738,4.482-5.139,6.771-6.395,2.8-1.536,2.883-.49,4.892,1.909,2.964,3.543,7.678,14,13.068,13.019M350.2,484.672c-1.662,3.355-5.5,6.474-7.951,9.275a108.861,108.861,0,0,1-7.536,8.347c-3.022,2.81-13.755,9.6-11.39.461,1.839-7.107,8.725-12.863,14.785-16.409,1.173-.689,14.906-7.352,12.092-1.675M361.946,518.5c1.064,4.758,1.637,9.661,2.545,14.452.466,2.45,3.042,8.367,1.992,10.723-1.779,3.993-17.791-.734-21.111-2.108-7.9-3.271-11.529-11.667-4.242-17.648,2.763-2.266,19.752-10.173,20.816-5.419m10.5,57.131c.892,4.541,3.5,8.75-.812,12.184-3.582,2.851-9.45,4.8-13.863,5.81-6.015,1.382-7.949-1.988-11.133-6.323-3.423-4.661-7.067-9.165-10.849-13.542l35.624-7.974a50.483,50.483,0,0,0,1.032,9.846m-28.452,21.076c-6.193-.321-12.856,1.543-19.136,2.033-7.843.612-15.665,1.5-23.514,2.03,2.01-6.416,5.623-12.139,8.448-18.2,2.835-6.082,4.825-6.74,11.347-7.21,6.043-.434,10.3-2.514,14.765,2.612,4.64,5.333,8.842,11.127,13.078,16.779-1.442.964-3.164,2.052-4.989,1.957m-44.265,1.309c-1.528,1.114-6.24-2.05-7.827-2.663-3.089-1.194-3.774-1.579-5.387-4.591-1.385-2.59-3.588-5.535-4.022-8.491-.573-3.9,1.151-9.029,1.781-12.9,1.672,4.032,7.16,4.5,10.869,5.159,2.8.5,11.115-.3,13.23,1.7,2.336,2.207-1.965,8.361-3.086,10.679-1.337,2.767-2.99,9.237-5.558,11.107m-2.994,3.2c-1.839.3-7.13,2.127-7.025-1.231.118-3.837,7.4.3,7.025,1.231m-9.326-.2c-.335,3.231-7.287,2.963-7.446.122-.27-4.8,7.98-5.28,7.446-.122M279.459,513.9c-1.777,5.062-12.6,6.872-16.758,8.43-3.8,1.424-15.138,7.993-19.053,5.609,13.251-9.106,26.83-18.031,38.056-29.658.459,2.872-.24,5.272-1.087,7.99-.765,2.453-.371,5.387-1.158,7.629m-3.295,18.457c-1.907,12.4-3.778,24.96-6.359,37.234-4.916-1.5-8.971-4.547-14.137-5.608a41.224,41.224,0,0,0-14.337-.285c-10.128,1.506-19.157,6.516-27.995,11.4-.816-8.5-2.506-17.6-2.306-26.133.165-7.088,12.294-9.187,17.8-12.114,3.328-1.771,6.338-4.263,10.13-4.88,3.9-.636,7.667-.618,11.522-1.806,9.112-2.812,17.689-7.269,26.616-10.592.73,4.256-.284,8.592-.93,12.786m-8.516,52.471c-.4,2.818.107,7.848-2.041,10-2.023,2.023-6.342,2.089-9.009,2.637q-12.187,2.509-24.355,5.085-5.443,1.157-10.9,2.2c-1.738.327-6.1,2-7.562.612-1.389-1.315-.355-5.511-.28-7.271a100.684,100.684,0,0,0,.127-10.562c-.424-6.748-.047-9.332,6.233-12.824a67.982,67.982,0,0,1,21.073-7.624,38.812,38.812,0,0,1,22.086,2.288c2.014.813,5.034,1.814,5.972,3.985,1.275,2.955-.91,8.486-1.341,11.48M258.5,693.605c-2.978,1.867-9.458,1.549-12.879,1.927a62.919,62.919,0,0,1-16.571-.59c-4.131-.641-10.294-1.529-13.461-4.429-4.5-4.12.692-4.31,4.135-4.019,10.007.841,20.141.254,30.141-.469,1.946-.141,7.179-1.851,9.056-1.051,2.4,1.023,1.665,7.323-.421,8.631M252.826,760.2c-18.645-1.812-29.456-17.253-36.218-33.037-3.629-8.475-2.32-17.366-2.678-26.328-.065-1.637-1.093-5.7.59-6.922,1.581-1.149,7.978,2.4,9.708,2.826a59.911,59.911,0,0,0,27.566.271c3.85-.915,6.007-2.615,7.229,1.2.985,3.073-.631,8.736-.807,11.957-.305,5.57.568,50.609-5.389,50.032m-37.248.017c-.071-2.7-1.436-30.036-.113-30.119,3.934,8.486,7.975,16.077,15.137,22.32a41.138,41.138,0,0,0,12.346,7.778c1.72.643,11.46,1.131,11.937,3.264.835,3.732-5.815,2.226-7.787,1.923-1.582-.246-3.007-.919-4.559-1.2-2.957-.536-5.753.185-8.723.245-4.513.092-8.944-.382-13.46.009-4.127.356-4.669-.118-4.779-4.219m2.752-122.591c15.962-5.159,29.3,4.612,37.728,17.4,4.8,7.294,5.877,12.393,5.038,21.029-.3,3.092.254,5.185-2.588,6.444-2.814,1.248-9.205.323-12.248.465-8.754.409-17.474.952-26.228.433-5.686-.336-6.49-1.3-6.391-6.819.117-6.645-.435-13.259-.812-19.914-.406-7.2-2.879-16.33,5.5-19.038m-5.224-9.57c.01-4.883-.282-9.891.015-14.766.3-4.832,2.355-4.593,6.916-5.418,9.88-1.786,19.747-3.785,29.493-6.206,3.855-.957,8.211-2.8,12.228-2.81,4.213-.016,3.991,2.15,3.709,5.883-.625,8.265-2.139,16.408-2.6,24.629-.5,8.873-.758,17.86-.719,26.744.014,3,.743,5.219-1.813,2.413s-3.813-7.29-6.1-10.449a37,37,0,0,0-19.358-13.863,27.853,27.853,0,0,0-13.109-.544c-1.32.265-7.934,3.422-8.776,2.8-.571-.422.109-8.213.11-8.411m58.4,169.2a117.634,117.634,0,0,0,20.441,11.377c3.993,1.789,19.8,5.554,20.307,9.581.269,2.148-2.351,4.557-4.066,4.81-2.177.323-5.763-1.1-7.98-1.368-8.063-.978-16.109-.985-23.976-3.229-15.706-4.482-31.99-5.745-47.86-9.653-3.776-.929-7.561-1.8-11.355-2.643-3.6-.8-5.22-.664-5.348-4.515-.281-8.455,2.145-17.117,2.163-25.677,12.839,1.465,25.721,1.445,38.595,2.652,5.516.515,5.388,1.561,7.8,6.382,2.51,5,6.778,9.063,11.275,12.283m-62.6-274.7c-.163-3.131-.289-6.268-.573-9.39-.191-2.1-2.105-7.959-1.025-9.592,1.282-1.939,2.575-.755,4.871-.811a15.448,15.448,0,0,0,8.057-2.88,38.233,38.233,0,0,0,11.309-11.616c2.7-4.076,2.2-9.645,2.163-14.526-.085-12.62.835-24.932.064-37.609-.354-5.823,4.616-2.251,8.631-1.5,6.566,1.232,13.7.379,20.374.395-.248,1.552-13.894,5.4-16.1,6.872a18.054,18.054,0,0,0-8.419,16.6c1.034,13.772,16.2,16.074,27.285,16.1-9.195,8.13-18.225,15.882-25.452,25.913-5.329,7.395-14.713,21.976-6,30.157-7.7,4.374-15.332,9.238-24.04,11.344-.39-6.486-.808-12.973-1.146-19.463m-3.5-251.4c3.134,2.014,4.453-.833,6.839-2.308,3.36-2.078,4.473-1.874,4.9-6.513.789-8.6-2.831-16.394-7.376-23.435-2.065-3.2-4.126-7.012-7.042-9.515-2.659-2.28-5.345-1.495-7.808-3.853-.968-.928-.76-2.235-2.358-2.2-1.053.025-3.611,3.285-4.481,4.006-2.745,2.273-6.1,4-9.7,2.128-5.24-2.728-3.557-12.631.513-15.838,3.133-2.471,6.837-2.089,10.4-2.488,2.675-.3,3.232-.181,2.131-3.243-.771-2.143-2.549-3.816-3.427-5.914-1.689-4.026-1.321-8.92-2.049-13.181-.656-3.818-2.186-7.948-2.131-11.826.072-4.938,1.685-6.22,5.964-7.6,4.144-1.341,7.576-4.3,11.106-6.78,4-2.812,8.373-4.668,12.478-7.235,2.787-1.744,4.586-5.268,7.653-3.622,3.642,1.956,7.493,7.618,10.591,10.513-4.532,2.877-5.585,4.135-4.962,9.768.574,5.163,1.626,9.764,5.573,13.361,1.515,1.382,4.344,2.489,5.519,4.082,1.371,1.856.48.22.307,2.316-.092,1.131-.986,1.87-.791,3.177.869,5.8,7.536,2.378,10.282.362,9.815-7.2-8.51-12.921-12.864-15.546-3.006-1.813-4.491-7.6.271-6.061,3.167,1.022,10.324,9.689,11.051,1.789,7.855,4.563,12.7,14.258,19.289,20.387,4.748,4.42,11.129,9.323,7.359,16.384-4.8,9-14.331,13.084-23.027,16.967-8.437,3.766-6.685,14.423-2.176,20.946,2.607,3.77,6.023,5.98,10.131,7.811,4.2,1.874,5.07,4.073,5.987,8.416,1.018,4.818-.063,6.76-4.235,9.249a114.935,114.935,0,0,1-12.681,6.689c-9.4,4.115-19.157,4.375-29.159,5.777-3.5.491-6.866,1.515-8.779-1.96-2.151-3.911-2.309-10.647-3.3-15.006M203.9,252.447c-2.354-1.241-8.036,2.879-11.011,3.061-4.814.292-7.974.181-12.247,2.735-8.076,4.826-14.779,11.04-21.256,17.779q-10.944,11.385-21.82,22.832-4.942,5.171-9.955,10.274c-2.638,2.677-5.217,6.442-8.482,8.352.17-2.27,1.56-3.875,2.054-5.978.288-1.23-.215-2.273-.029-3.451.061-.382,1.088-1.711,1.243-2.147.417-1.15.926-2.287,1.421-3.482.462-1.115.395-2.271.862-3.435.482-1.2,1.8-2,2.258-3.178,1.341-3.461-.878-5.066-4.428-4.985,1.389-6.926,2-10.313,9.237-12.755a111.131,111.131,0,0,0,20.031-8.6c5.641-3.236,10.35-7.9,15.774-11.509,4.856-3.231,10.9-6.615,10.851-13.239,2.753,1.868,5.333,3.438,8.483,1.58,2.658-1.569,3.011-2.833,6.083-3.13,2.508-.24,4.063-.3,6.3.8,2.635,1.3,3,2.2,4.529-1.621,1.744,1.468,6.152,7.582,6,10-.079,1.333-.281,1.934-1.933,2.286-2.343.5-2.252-1.284-3.973-2.19M192.923,614.258c-1.145,1.755-5.973,1.432-7.838,1.408-5.684-.073-7.671-4.844-10.165-9.454-3.932-7.267-9.809-22.364-3.358-29.99,5.09-6.02,15.007,1.565,18.48,6.111,3,3.929,2.108,9.819,2.387,14.533.235,3.972,2.756,13.928.494,17.393m-15.528,2.633c-2.272,2.272-9.648,1.791-12.658,2.279a120.739,120.739,0,0,0-15.933,3.5c-3.882,1.181-7.718,4.36-8.742-1.05-.859-4.549-.432-10.005-.349-14.6.088-4.954.606-9.844,1.037-14.775.292-3.335-.437-9.47,2.285-12.03,2.347-2.205,8.051-2.418,11.1-3.149,5-1.2,10.227-2.775,15.426-2.238a34.512,34.512,0,0,0-.039,25.071c.928,2.341,9.281,15.581,7.877,16.985m-38.222-32.8c-1.267,12.384-2.542,24.846-1.321,37.292.073.743.96,4.143.574,4.675-.4.551-3.554.837-4.272,1.006-2.846.675-5.687,1.39-8.552,1.99-5.576,1.166-6.3-2.356-7.4-7.523-2.343-11.07,2.2-23.073,4.952-33.705,1.341-5.178,2.335-5.775,7.426-6.2,3.543-.3,9.129-2.792,8.591,2.471m-21.529,46.2c-2.131,1.938-4.26-7.206-4.448-8.137-.745-3.7-.33-7.453-.319-11.212.018-5.87-.431-11.712-.439-17.555-.005-3.161-2.373-9.621,1.367-11.293,1.1-.49,5.456-.286,6.446.359,2.055,1.342,1.244,2.211.636,4.545-1.364,5.238-2.542,10.5-3.729,15.786-1.165,5.179-2.313,10.162-1.759,15.511.183,1.769,3.6,10.761,2.246,12m67.946-57.7c5.194-1.464,5.472,2.515,5.464,6.323-.792-.606-8.173-5.56-5.464-6.323M116.118,293.045c-1.272,2.1-9.333,2.67-11.636,3.223-4.531,1.085-9.065,2.163-13.584,3.293-8.467,2.118-16.726,4.506-25.406,5.614,4.766-7.631,6.249-14.222,5.363-23.745-1.119-12.025-2.541-23.926-5.309-35.7-2.729-11.606-5.888-23.134-8.931-34.663-1.495-5.664-3.111-11.22-5.1-16.732-1.594-4.418-4.083-9.978-1.378-14.506,6.866,5.009,12.372,10.406,16.288,18.015,4.2,8.157,7.858,16.531,12.727,24.335,2.227,3.567,4.826,6.822,7.208,10.275,1.417,2.055,2.449,5.02,4.253,6.754,2.08,2,4.3,2.939,5.488-.432C97.375,235.161,93.306,228,92.1,224.6c-2.9-8.2-5.777-16.389-8.014-24.8-1.81-6.8-4.8-15.026-3.743-22.2,1.048-7.105,5.869-2.019,8.308,1.283,5.029,6.81,8.04,14.748,11.344,22.468,3.036,7.093,6.578,13.855,9.938,20.784,1.169,2.411,2.71,8.639,5.772,9.355,4.451,1.044,4.073-5.225,3.648-7.769-2.821-16.86-10.185-33-11.712-50.157-.074-.82-1.138-7.194-.282-7.725,1.659-1.032,3.9,5.434,4.614,7.018a171.883,171.883,0,0,1,8.7,25.629c2.024,7.4,3.854,14.86,6.126,22.192,1.248,4.031,2.678,7.994,4.088,11.969,1.277,3.6,2.572,9.755,5.9,12.128,4.72,3.366,21.612-4.638,23.324,2.518,1.218,5.086-14.446,9.182-17.781,10.726-4.391,2.033-8.7,4.259-13.092,6.295-3.326,1.538-8.106,2.17-10.513,5.067-2.55,3.069-2.957,7.378-3.033,11.185-.059,2.882,1.938,9.993.427,12.479m-10.675,55.535c-.223,1.6-1.494,3.715-2.065,5.236-1.164,3.1-2.153,6.8-3.772,9.7-1.392,2.494-3.447,4.723-4.792,7.253-1.276,2.4-1.446,5.171-2.936,7.575-1.705,2.747-4.524,4.724-6.217,7.454a37.459,37.459,0,0,1-2.876,4.32c-4.176,5.082-8.323,9.877-11.682,15.321-.859,1.394-5.055,7.477-6.725,7.807-3.491.685.573-4.276,1.255-5.3,4.946-7.423,9.338-15.237,14.112-22.775,4.624-7.3,9.356-14.54,13.806-21.948,3.63-6.04,6.139-14.711,12.038-18.966q.034,2.17-.146,4.329m161.27-68.216c2.874,11.811,6.31,23.256,9.547,34.961,3.006,10.86,7.005,22.483,8.251,33.68a144.58,144.58,0,0,0,7.882,32.841c1.763,4.871,3.576,9.761,5.49,14.576,1.052,2.645,2.227,5.23,3.42,7.814.926,2.007,3.374,5.257,3.468,7.383.075,1.7.667,1.023-1.014,2.3-1.74,1.326-4.755.845-6.783,1.078-5.287.612-10.441,2.6-15.6,3.888-9.94,2.484-21.788,4.455-31.973,2.728-4.284-.728-8.734-1.358-12.971-2.305-5.212-1.166-6.284-3.324-7.354-8.447-2.34-11.2-4.355-22.372-6.287-33.648-2.3-13.411-4.783-26.808-6.555-40.3-1.791-13.652-3.077-27.319-5.883-40.823,11.317,1.893,21.976,4.031,33.328.93a38.583,38.583,0,0,0,23.029-16.653m44.305,146.222c2.529,5.215-3.569,9.9-6.524,13.921-3.9,5.294-7.538,10.826-12.071,15.614-1.36-5.442-2.554-11.565-6.182-16.035-4.635-5.708-10.044-3.375-15.722-6.076,5.955-2.9,13.557-1.791,19.874-4.374,6.232-2.548,12.523-4.547,18.319-7.857.77,1.6,1.531,3.208,2.306,4.806M288.936,548.259c-3.806.211-1.259-7.815-1.013-9.809.68-5.482,1.366-10.964,1.961-16.456q4.71,12.421,9.417,24.839c-3.45.493-6.878,1.232-10.366,1.426m-6.19,39.691c.519,1.154,2.94,5,1.029,5.709-2.62.971-2.936-5.4-1.029-5.709m-4.542-89.2c-12.123,9.679-24.162,19.383-37.279,27.716-2.875,1.826-5.769,2.59-7.673-1.031-1.5-2.846.084-6.054,1.045-8.84,2.449-7.105,6.715-13.282,11.443-19.064,9.444-11.548,20.682-21.411,35.022-25.964,2.347-.745,5.969-2.993,6.791.111.483,1.825-1.565,6.384-1.98,8.1-1.713,7.077-1.339,14.163-7.367,18.974m34.9,70.591c.267,8.219-22.2,1.59-25,.121,2.937-.985,24.879-3.816,25-.121m8.344.052c1.334.356,6.454.807,4.542,2.557-1.712,1.567-9.463.938-11.517,1.131,1.38-4.535,2.428-4.9,6.975-3.687m-4.163-11.01c-.5,1.829-.706,4.619-2.345,5.871-2.041,1.561-6.381.613-8.692.626q-5.888.031-11.752.612c-1.495.148-7.548,1.972-8.949.728-1.029-.914-.645-5.2.1-6.167,1.538-1.981,5.081-1.295,7.3-1.374,8.125-.29,16.206-.315,24.334-.3M312.068,528a7.685,7.685,0,0,1-1.841-4.259c-.522-2.755-1.853-5.112-2.635-7.775-1.72-5.858,3.777-5.337,7.809-3.189,10.46,5.573,7.935,25.045,5.349,34.161-3.761-2.764-5.149-4.018-6.443-8.479-.491-1.7-1.042-3.36-1.554-5.047-.375-1.241-.114-4.562-.684-5.412m.906-94.773c2.919-.352,5.592,8.709,4.757,10.67-1.707,4.011-8.233,7.594-11.555,10.154-2.212,1.7-4.411,3.659-6.775,5.146-2.2,1.379-3.459.605-5.5,1.267-2.955.956-3.67,4.082-6.694,5.426-4.255,1.891-9.411,2.42-13.855,4.127-5.391,2.071-10.332,2.127-15.985,1.146-8.13-1.411-17.659-5.445-16.927-15.323,1.292-17.43,35.906-26.36,45.345-11.581,2.458,3.846,2.419,8.33,4.015,12.462,1.728,4.472,3.4,2.714,6-.58,3.4-4.309,6.559-8.849,9.825-13.261,1.056-1.426,5.24-9.4,7.347-9.653m-212.128,169.7c-.166,2.964.012,5.971-1.019,8.8-1.039,2.852-3.144,5.158-4.357,7.931-2.459,5.617-2.44,12.415-2.342,18.434.229,14.006,3.545,27.609,5.3,41.448-5.839-.014-11.875.052-17.534-1.618-5.055-1.491-5.861-5.186-7.291-9.841-4.014-13.075-8.35-26.094-9.646-39.787-.616-6.526-.876-13.1-1.171-19.65-.257-5.743,1.032-8.248,6.216-11.09,11.268-6.181,22.948-11.328,34.1-17.8-1.14,7.682-1.822,15.423-2.256,23.174M581.87,144.037c-2.744-.5-5.513-.817-8.282-1.148-1.444-.173-5.946.068-7.026-.874-1.287-1.12.94-9.593,1.055-11.412.7-10.933-.114-22.2-1.117-33.1-1.814-19.718-8.015-37.985-22.323-52.183-7.121-7.068-15.127-12.675-24.853-15.381-5.666-1.577-11.5-2.417-17.184-3.946-4.58-1.235-8.855-2.648-13.614-3.137-9.491-.976-18.168-4.562-27.43-6.637-6.814-1.527-17.774-5.147-22.192,2.548A56.614,56.614,0,0,0,427.544,8.587c-4.2-2.914-4.888-5.825-10.033-2.46-9.995,6.539-19.357,14.515-28.693,21.955-8.719,6.948-17.155,14.224-26.294,20.613-9.32,6.517-7.553,17.577-3.17,26.746,8.245,17.258,20.964,32.011,32.1,46.8q10.462,13.9,20.916,27.832c6.64,8.874,12.383,19.146,20.142,27.119,4.892,5.026,10.731-1.546,15.146-4.584,5.48-3.771,10.864-7.684,16.35-11.445,11.424-7.834,23.65-15.173,35.711-21.992l2.631,7.46c-2.649.2-6.228-.393-7.575,2.456-1.926,4.068,2.8,4.6,3.627,6.934.74,2.083-2.294,7.584-3.192,9.461a48.778,48.778,0,0,1-7.941,11.356c-12.283,13.778-27.827,23.632-43.6,33.026-16.876,10.05-34.965,16.186-53.441,22.662-9.4,3.293-19.147,4.823-28.842,6.931-9.343,2.032-18.676,4.7-28.222,5.468-19.532,1.567-40.257,2.742-59.552-1.471-2.111-.46-4.346-1.459-6.5-1.649-1.722-.153-3,.569-4.624.662-3.491.2-5.492-2.923-8.266-.022-1.388,1.451-1.413,3.887-3.347,1.179-2.46-3.445,3.828-4.111,6.158-5.093,7.847-3.305,14.154-9.959,19.139-16.685s5.7-13.9,2.665-21.767-9.929-13.2-15.106-19.584c-2.505-3.093-4.809-6.365-7.56-9.252-1.468-1.543-3.833-3.018-3.925-4.574-.107-1.808.976-2.706.328-4.9-.168-.572-.886-.9-1.039-1.525-.241-1,.132-1.86.007-2.836a11.759,11.759,0,0,0-2.41-5.475c-.774-1.145-1.9-3.437-2.969-4.295-1.866-1.5-4.41-.891-6.306-2.416-3-2.411-4.057-7.492-6.711-10.418-3.738-4.119-4.535.042-8.494-1.27-3.386-1.124-3.347-6.219-6.082-7.942-3.854-2.427-7.1,2.039-10.523,3.033-4.5,1.309-2.773-3.771-6.785-4.234-3.624-.418-8.644,6.933-10.452,9.544-1.84-2.146-3.855-5.8-7.168-4.492-3.477,1.375-4.1,7.777-6.638,10.06-.885.794-.7,1.38-1.789,1.746-1.406.471-3.282-1.572-5.1-.949-3.669,1.257-3.221,6.155-3.229,9.328-4.33-.633-7.351-.955-8.8,3.712-1.419,4.568-1.957,2.552-6.522,4.035-3.937,1.279-4.487,5.017-5.136,8.672-.4,2.273-.03,3.2.581,5.274.771,2.611.771,2.577-.486,5.07-2.192,4.348-2.324,9.138-2.674,13.923-.372,5.105-1.265,9.754.186,14.741.9,3.086.966,7.285,3.988,9.013,1.2.685,3.235.31,4.256.99,1.948,1.3,1.355,3.271,2.652,5.165.972,1.418,2.539,1.554,3.629,2.7,1.184,1.25,1.254,2.775,1.928,4.3,2,4.521,3.873,6.708-2.632,6.966-4.012.158-8.293,1.363-12.291.993-4.717-.435-5.891-3.071-7.391-7.086-7.567-20.231-11.633-42.158-21.6-61.4-2.188-4.224-11.169-21.48-14.965-8.907-3.2,10.6,1,23.546,2.609,34.1-5.053-4.553-6.921-12.756-10.758-18.316-2.833-4.108-11.707-14.2-16.908-8.415-4.1,4.557-3.075,14.217-2.319,19.664,1.2,8.617,3.949,16.921,5.916,25.373-2.477-3.24-3.7-7.195-5.416-10.842a72.133,72.133,0,0,0-7.909-12.933,76.019,76.019,0,0,0-8.917-9.771c-2.481-2.29-6.925-7.3-10.448-7.574-9.068-.7-6.216,15.938-4.835,20.693,2.862,9.857,5.966,19.442,8.188,29.5,4.344,19.645,9.606,38.837,12.806,58.732.708,4.412,1.562,7.933-.183,12.173-1.537,3.736-3.133,8.2-5.969,11.076a115.894,115.894,0,0,0-16.552,21.288c-5.141,8.394-10.433,16.885-14.63,25.8-1.93,4.1-3.508,8.533-5.726,12.478-2,3.559-4.41,6.372-5.833,10.313-6.8,18.83-11.836,37.331-14.142,57.27-1.893,16.37-.129,38.145,19.636,41.976,9.08,1.76,17.232-2.266,25.419-5.59,8.468-3.437,14.592-9.024,21.5-14.961,8.583-7.377,17.493-14.3,26.167-21.554S110,412.97,118.63,405.634a224.444,224.444,0,0,0,23.609-23.363c7.313-8.35,13.254-17.6,20.334-26.066-.026,10.961-1.654,21.823-2.11,32.769q-.627,15.056-.023,30.095c.405,10.025-2.243,19.568-2.265,29.572-.022,9.758-.409,19.461-.622,29.209-.1,4.373-.953,9.279.681,13.5,1.219,3.15,5.055,4.135,8.326,4.985,5.056,1.312,20.268-1.215,22.525,4.187,1.233,2.947-.008,8.313.088,11.57.16,5.367.357,10.733.541,16.1q.284,8.312.576,16.625c.18,4.883,1.13,10.322.541,15.155-.5,4.143-2.918,3.6-6.747,3.814-5.778.319-11.559.576-17.34.828-8.479.372-17.33.2-25.459,1.2-3.415.42-7.145.241-10.748.927a93.526,93.526,0,0,1-13.27,1.3c-3.694.183-8.442-.086-11.344,2.645-1.006.947-1.232,2.077-1.946,3.131-1.337,1.976-.593,1.456-2.787,1.9a188.229,188.229,0,0,0-25.08,6.613c-4.194,1.461-8.085,3.423-12.3,4.8-3.692,1.205-6.4,2.689-8.224,6.313-3.261,6.474-2.435,15.84-2.2,22.816.372,10.885,2.79,21.247,5.4,31.773,2.713,10.95,4.84,22.2,10.117,32.255,1.734,3.306,3.606,7.524,7.148,9.247,4.573,2.224,11.605.876,16.6.884,3.35.006,12.321,1.156,14.825-1.652,2.424-2.72-.015-10.39-.357-13.765-1.2-11.827-3.359-23.764-3.33-35.672,2.732,4.037,7.469,11.005,12.21,4.819,1.166-1.522.712-2.229,2.783-3.111a13.657,13.657,0,0,1,4.81-.7c1.7.114,2.326.8,3.886.462,1.38-.3,2.933-1.531,4.516-1.907,19.624-4.664,39.134-9.692,58.843-13.848,5.211-1.1,4.47,2.9,4.814,7.407.381,4.981-.344,10.014.347,14.942.6,4.287,1.07,8.464.223,12.776-1,5.086-.356,9.33.638,14.368,3.833,19.424,3.149,40.49,4.014,60.232.449,10.282-.517,20.78.45,31.006.366,3.863,2.522,6,3.4,9.51,1,4.035-1.734,9.172-2.566,13.081-1.672,7.846-4.609,19.075.765,25.9,2.9,3.688,6.707,4.221,11,5.468,5.141,1.492,10.208,3.232,15.375,4.645,18.874,5.166,39.269,6.176,58.613,9.024a62.917,62.917,0,0,0,13.9.3c2.938-.2,10.175.762,12.619-1,1.309-.942.645-2.119,1.311-3.27.945-1.635,2.089-2.3,3.7-3.316,2.665-1.684,5.746-2.668,6.2-6.144,1.1-8.515-9.541-13.026-15.231-16.707-7.271-4.706-16.053-6.523-23.769-10.365-4.258-2.119-8.365-4.521-12.467-6.926-1.779-1.042-5.385-2.223-6.624-3.864-1.265-1.675-.026-4.066.5-6.46,2.162-9.892,1.432-20.006,2.55-30,1.118-10.012.814-20.086,1.182-30.149.381-10.363,1.236-20.7,1.893-31.049.605-9.557,1.216-19.269,1.317-28.836.1-8.872,1.3-17.575,1.591-26.506.1-3.03-.447-8.528,1.565-11.095,1.766-2.251,7.608-1.969,10.333-2.364,7.348-1.067,14.339-2,21.6-2.644,17.284-1.529,36.517-2.655,52.859-8.679,6.739-2.484,15.707-5.878,17.944-13.617,2.572-8.9-.785-19.831-.9-28.927-.118-9.713-2.933-19.187-5.044-28.6-2.274-10.13-3.706-20.435-6.161-30.526-2.255-9.26-5.911-17.462-9.367-26.253-1.4-3.566-9.39-15.853-6.912-18.883,1.335-1.633,6.142-2.046,8.091-2.793a81.054,81.054,0,0,0,12.29-5.726c5.175-3.058,16.505-8.118,17.028-14.913.5-6.494-5.885-13.058-9.128-18.159-5.227-8.219-11.819-15.4-16.8-23.785-10.06-16.938-18.061-35.491-25.4-53.744-3.837-9.549-5.089-18.542-5.721-28.736,11.141.026,22.481,1.4,33.553-.161,12.049-1.7,24.113-4.552,36.057-6.905,21.749-4.287,42.631-9.127,62.778-18.78,18.868-9.039,38.012-18.931,53.633-33.279,8.078-7.419,16.317-14.98,23.293-23.464,7.166-8.715,12.556-18.617,18.084-28.4a185.041,185.041,0,0,0,14.8-33.96c.772-2.375.776-5.4,1.765-7.643,1.116-2.533,3.145-2.6,5.263-3.933,2.98-1.877,4.964-8.158-.208-9.109" transform="translate(0 0.684)" fill-rule="evenodd"/>
      <path id="ink-shape-2" data-name="ink-shape" d="M281.466,22.2c2.548,2.188,13.524,9.9,17.07,8.021,4.375-2.314-2.551-9.283-4.417-11-2.373-2.186-10.852-8.8-14.1-8.185-6.489,1.228-.845,9.195,1.446,11.164" transform="translate(41.008 1.628)" fill-rule="evenodd"/>
      <path id="ink-shape-3" data-name="ink-shape" d="M286.888,91.833c1.44-2.832,5.267-3.873,7.036-6.614,2.13-3.295,3.108-6.178,2.323-10.218-5.45,1.835-11.651,7.387-15.3,11.73-3.047,3.629-7.377,11.212.577,11.231q-.105-1.619-.209-3.239a5.21,5.21,0,0,0,5.57-2.89" transform="translate(41.008 11.103)" fill-rule="evenodd"/>
      <path id="ink-shape-4" data-name="ink-shape" d="M263.294,49.449c3.513,1.01,6.413.867,10,.946,2.6.058,6.165,1.49,8.276-.124-1.874-1.085.494-1.145.03-2.2-.389-.882-1.13-.593-1.73-1.307-2.145-2.544-4.01-2.513-7.411-3.042-2.635-.412-6.509-1.362-9.042-.052-2.664,1.379-3.7,4.756-.126,5.782" transform="translate(38.639 6.366)" fill-rule="evenodd"/>
      <path id="ink-shape-5" data-name="ink-shape" d="M307.091,119.033c2.272-1.906,4.749-7.423,5.209-10.27.179-1.116-.625-1.97-.528-2.791.184-1.565,3.4-4.589.031-5.872-2.946-1.124-5.715,7.606-6.464,9.51-.769,1.948-2.861,5.744-2.218,7.628.533,1.564,2.435,3.081,3.97,1.8" transform="translate(44.857 14.804)" fill-rule="evenodd"/>
      <path id="ink-shape-6" data-name="ink-shape" d="M330.721,15.685c2.056-1.908,3.357-4.072,3.145-6.7C333.7,6.922,332.148-.205,330.406,0c-5.785.7-3.185,18.93.314,15.68" transform="translate(48.41 0)" fill-rule="evenodd"/>
      <path id="ink-shape-7" data-name="ink-shape" d="M226.509,292.707c-.475-1.743-2.207-12.4-5.2-11.671-2.273.551.088,9.927.194,11.161.221,2.581-4.739,2.5-7.044,2.147-3.656-.552-3.364-2.694-3.91-6.018-.205-1.256-1-6.933-3.617-4.854-1.77,1.405-.5,8.4-.357,10,.511,5.532,1.111,14.979,4.4,20,1.311,2,2.491,2.993,3.869.424,1.394-2.6-1.761-10.525-2.313-13.184,2.6.254,10.095-.59,11.662,2.113,1.432,2.467-.859,9.517,3.736,10.089,2.724.34,2.231-2.816,1.969-5.243-.55-5.093-2.045-10.049-3.388-14.967" transform="translate(30.497 41.6)" fill-rule="evenodd"/>
      <path id="ink-shape-8" data-name="ink-shape" d="M230.083,289.057c-3.017,1.363.771,21.233,5.186,20.592,5.151-.75-2.311-21.891-5.186-20.592" transform="translate(33.902 42.784)" fill-rule="evenodd"/>
      <path id="ink-shape-9" data-name="ink-shape" d="M227.017,283.662c-.372,4.474,5.442,6.141,5.717,1.279.211-3.751-5.326-5.983-5.717-1.279" transform="translate(33.606 41.6)" fill-rule="evenodd"/>
      <path id="ink-shape-10" data-name="ink-shape" d="M199.249,180.44c2.654,9.892,26.813,14.1,23.559.759-1.631-6.679-8.438-.745-13.191-1.522-3.076-.5-12.237-6.212-10.368.763" transform="translate(29.46 26.203)" fill-rule="evenodd"/>
      <path id="ink-shape-11" data-name="ink-shape" d="M196.439,165.9c1.135-5.293-10.443-11.135-14.643-9.678-6.147,2.133-6.12,15.766-1.432,19.391.618.476,2.508,1.614,3.435.707,1.461-1.434-.135-1.042-.478-2.474-.541-2.277-2.312-5.2-.548-7.791,3.334-4.893,12.038,7.429,13.665-.155" transform="translate(26.203 23.095)" fill-rule="evenodd"/>
      <path id="ink-shape-12" data-name="ink-shape" d="M163.8,187.006c-4.175-.234-7.6,6.245-1.456,5.7,1.176-.1,3.7-.4,4.386-1.636,1.13-2.047-1.1-3.963-2.93-4.066" transform="translate(23.539 27.684)" fill-rule="evenodd"/>
      <path id="ink-shape-13" data-name="ink-shape" d="M340.7,52.975c-1.428-2.067-4.423-5.393-7-3.32-2.285,1.838-1.886,6.376-1.009,8.63,2.357,6.07,7.928,11.477,14.232,7.98-2.19-4.387-3.424-9.245-6.222-13.291" transform="translate(49.15 7.254)" fill-rule="evenodd"/>
    </g>
  </g>
</svg>
