<svg xmlns="http://www.w3.org/2000/svg" xmlns:xlink="http://www.w3.org/1999/xlink" width="974.836" height="1152.996" viewBox="0 0 974.836 1152.996">
  <defs>
    <linearGradient id="linear-gradient" x1="-0.117" y1="-0.086" x2="1.132" y2="1.066" gradientUnits="objectBoundingBox">
      <stop offset="0" stop-color="#2128ff"/>
      <stop offset="1" stop-color="#ff2626"/>
    </linearGradient>
  </defs>
  <path id="path1" d="M164.391,83.678c-14.373,6.251-18.285,24.656-13.591,63.982,7.858,65.819,43.8,124.408,97.712,159.27,9.415,6.1,17.129,11.915,17.129,12.944,0,65.343,48.137,144.769,114.84,189.487l24.247,16.244,1.641,26.646c4.686,75.829,53.691,140.3,135.5,178.269,25.531,11.847,46.479,21.466,67.367,30.924,21.628,9.8,21.653,9.525-3.274,37.123-43.553,48.222-113.888,95.5-142.09,95.5-9.806,0-70.216-20.131-89.216-29.733-58.811-29.716-58.649-104.677.391-177.972,22.538-27.989-10.172-62.136-35.372-36.928-95.943,95.943-73.932,234.716,43.4,273.591,10.5,3.479,28.857,9.934,40.789,14.348,32.029,11.83,50.178,11.422,80.4-1.811,59.619-26.11,114.033-68.523,158.224-123.32,8.42-10.444,15.9-19.552,16.61-20.258,6.659-6.506,15.292-24.4,15.292-31.689,0-14.05-8.743-19.748-82.939-54.014-102.781-47.474-122.5-63.114-144.624-114.713-5.919-13.82-12.026-42.031-9.1-42.031,1.157,0,29.673,13,65.674,29.937,10.529,4.958,26.033,12.153,34.453,16.006s22.776,10.435,31.9,14.637,21.755,10,28.074,12.876,22.827,10.486,36.69,16.925c37.515,17.426,58.59,12.91,58.59-12.545,0-12.74-43.341-44.659-60.639-44.659-.485,0-11.635-5.035-24.783-11.184s-30.209-14.05-37.932-17.562c-13.888-6.319-32.395-14.926-78.763-36.63-13.149-6.149-24.324-11.184-24.851-11.184-3.87,0-71.483-34.615-82.658-42.312-37.183-25.625-64.577-61.7-77.938-102.619-6.344-19.425-8.956-19.808,48.562,7.119C426.382,392.82,479.92,417.62,510.64,431.584c6.319,2.875,22.971,10.605,37,17.188s33.849,15.87,44.038,20.641c27.5,12.876,40.245,10.639,48.222-8.454,4.865-11.652-1.327-25.429-14.424-32.072-12.051-6.124-79.265-37.583-80.286-37.583-.442,0-13.276-5.826-28.525-12.961s-33.467-15.623-40.483-18.881-25.234-11.788-40.483-18.94S407.663,327.5,407.281,327.5s-12.6-5.588-27.147-12.417c-32.114-15.088-64.152-30.005-76.212-35.474-47.95-21.755-85-64.058-97.372-111.175-5.6-21.339-5.4-21.679,8.59-15.02,31.927,15.207,71.993,34.181,90.057,42.652,52.151,24.46,63.667,29.9,99.209,46.913,20.871,9.993,38.255,18.166,38.612,18.166s14.866,6.736,32.225,14.969c41.6,19.706,68.7,32.42,88.986,41.725,74.2,34.036,101.709,51.726,136.035,87.489,10.86,11.311,45.169,59.355,45.169,63.242,0,.825,3.317,8.751,7.365,17.622C796.231,581.3,785.285,715.271,726.6,806.808c-34.623,54-107.935,119.62-167.162,149.625-30.218,15.308-31.255,22.129-7.986,52.577,8.08,10.589,23.652,33.552,34.6,51.046,40.466,64.679,76.161,103.061,115.912,124.63,73.932,40.1,116.626,48.775,240.329,48.792,142.779.025,181.246-18.4,181.459-86.936.128-42.915-22.555-64.305-101.139-95.373-92.719-36.656-99.217-43.281-157.058-160.1-8.573-17.3-17.979-33.458-20.922-35.916-13.761-11.507-40.509.919-40.509,18.821,0,13.148,46.649,102.721,73.286,140.712,30.906,44.1,38.084,48.775,130.88,85.388,52.594,20.743,63.8,29.376,63.8,49.107,0,28.3-12.4,31.621-122.3,32.71-182.666,1.82-242.328-24.851-315.6-141.078-13.276-21.049-25.548-40.4-27.275-43-3.623-5.451-5.349-3.861,43.162-39.768C772.766,867.235,829.6,758.458,829.638,614.43c.043-153.988-74.91-266.328-222.018-332.793-18.183-8.216-47.023-21.713-98.256-45.994-12.638-5.979-31.119-14.671-41.087-19.3s-33.926-15.972-53.249-25.191S379.58,174.382,379.2,174.382s-17.205-7.875-37.353-17.5-42.966-20.429-50.689-24-28.959-13.6-47.21-22.3c-72.308-34.453-66.618-32.531-79.554-26.9" transform="translate(-148.916 -80.482)" fill-rule="evenodd" fill="url(#linear-gradient)"/>
</svg>
