<svg xmlns="http://www.w3.org/2000/svg" width="610.894" height="877.553" viewBox="0 0 610.894 877.553">
  <g id="Group_5" data-name="Group 5" transform="translate(-2262.359 -3167)">
    <path id="Path_31" data-name="Path 31" d="M435.174-49.919c210.144,0,218.571,359.855,189.8,495.97S434.634,827.836,209.423,827.634,13.55,539.912,54.5,346.253,225.029-49.919,435.174-49.919Z" transform="translate(2236.246 3216.918)" fill="#fcecef"/>
    <g id="Character_selfie" data-name="Character/selfie" transform="translate(2076.139 3207)">
      <path id="Accent" d="M530.2,382l.154.018c2.235.433,5.939,6.826,7.456,8.643l14.673,17.581c1.957,2.346,4.78,4.809,6.174,7.523,1.073,2.088,1.441,4.968,2.081,7.206,7.954,27.8,15.732,55.785,21.525,84.13,1.247,6.1,2.43,12.244,3.123,18.437.342,3.062,1.241,7.559-.092,10.518-1.5,3.334-6.339,4.72-9.481,5.753a129.522,129.522,0,0,1-18.844,4.285c-15.257,2.589-30.705,4.094-46.124,5.31-4.711.372-9.56.366-14.241,1-2.235.3-1.565-.3-2.27,1.2-.981,2.089-.33,6.446-.447,8.723l-.822,16.065h0l-2.244,43.82q-1.139,22.212-2.276,44.426l-.861,16.834c-.154,3,.3,6.871-.5,9.775-.608,2.2.392,1.549-2.3,1.679-6.236.3-12.7-.454-18.935-.677l-21.226-.759c-2.021-.073-4.279.5-5.093-.948-.992-1.764-.237-6.615-.307-8.585q-.294-8.234-.589-16.469l-1.617-45.209q-1.1-30.828-2.206-61.659l-23.6,4.751q-17.439,3.51-34.88,7.018c-5.332,1.074-11.665,3.523-17.171,2.733-5.469-.785-7.73-3.121-8.037-8.312-.33-5.565-.2-11.174-.127-16.744.123-9.11.385-18.219.729-27.324l46.6-4.2,24.815-2.236c1.877-.168,6.505.194,7.343-1.221,1.3-2.2-.147-9.433-.186-11.921h0l-.371-23.522h0L428.663,393.1q5.58.183,11.158.337c16.181.457,32.442,1.119,48.628.621,8.117-.249,15.808-2.439,23.471-5.023,4.075-1.373,8.107-2.869,12.109-4.442,1.259-.495,4.965-2.837,6.324-2.575Zm-21.785,80.534-8.266,40.431,28.287-1.874Z" fill="#ff5678" fill-rule="evenodd"/>
      <g id="Ink" transform="translate(257 20)">
        <path id="ink-shape" d="M487.689,114.63c-.578,4.5-.167,9.4-5.244,10.585-4.7,1.1-9.853.79-14.643,1.175-5.383.432-10.75,1.023-16.121,1.556-6.773.67-5.807-1.932-7.287-7.716-1.354-5.282-3.513-10.553-5.309-15.7a55.8,55.8,0,0,0-2.97-6.853c-1.031-2.042-.54-4.821-1.652-6.538-3.791-5.858-22.283,10.16-24,7,3.129-2.436,8.544-5.161,9.5-9.33,1.129-4.9-1.984-6.362-5.9-4.571A121.5,121.5,0,0,1,382.838,93.7c3.395-2.27,34.1-20.157,23.8-25.462-2.323-1.2-5.425,1.055-7.52,1.907a78.7,78.7,0,0,1-10.267,3.144q-5.484,1.4-11,2.68c-2.579.6-7.176,2.711-9.689,2.189-2.551-.53,1.968-2.114,2.708-2.487,3.227-1.626,6.4-3.372,9.55-5.141a55.626,55.626,0,0,0,15-11.627c3.207-3.662,8.5-11.657,6.27-16.72-1.294-2.935-4.13-5.647-5.8-8.427-1.945-3.248-3.515-6.709-5.2-10.092,2.827,1.243,6,1.561,8.887,2.677s5.817,2.02,8.819,2.85c6.023,1.665,12.029,1.961,18,3.311,6.756,1.528,13.8,3.236,20.661,4.119a38.892,38.892,0,0,1,16.473,5.662,50.191,50.191,0,0,1,21.382,28.045c2.15,6.928,2.673,14.156,2.926,21.363.267,7.6.827,15.374-.146,22.94M429,115.189c-7.3,5.324-15.817,9.484-23.654,14.013-4.485,2.59-9.064,5.011-13.639,7.44-3.246,1.723-7.19,4.894-10.763,5.778-2.26.56-2.092.6-3.522-1.459-1.367-1.968-2.561-4.086-3.841-6.113q-3.539-5.606-7.122-11.183c-5.339-8.345-10.668-16.689-16.278-24.857-5.628-8.2-11.027-16.542-16.479-24.855-2.534-3.864-5.052-7.744-7.741-11.5-2.054-2.87-7.318-7.247-4.818-10.625,2.322-3.139,7.612-5.746,10.741-8.121,3.823-2.9,7.669-5.771,11.482-8.686,8.2-6.267,16.18-12.806,24.37-19.082,6.95,12.19,15.126,23.619,23.374,34.952-7.458,4.759-14.993,9.284-22.852,13.358-5.8,3.009-14.685,7.076-18.352,12.784-3.612,5.621-.064,12.107,6.374,12.21,3.85.061,7.688-.958,11.463-1.541,2.725-.421,7.7-2.385,10.157-1-4.416,2.818-20.437,11.029-11.8,18.229,6.174,5.146,16.61-2.364,23.278-.818-2.032,3.9-4.145,10.123,1.5,12.244,4.7,1.766,10.84-1.525,15.065-3.27,3.054-1.261,6.087-2.565,9.09-3.941,2.387-1.095,5.246-3.314,7.8-3.786,2.976-.552,9.036,7.743,6.174,9.831m-135.762,287.5c4.179-.762,6.324-2.49,7.64,2.583,1.179,4.545,2.347,8.922,3.866,13.382-6.527.564-12.284,3.68-17.043,8.064-3.389,3.123-10.13,10.579-8.459,15.809,4.06,12.711,24.565-15.8,27-18.851,2.983,4.359,4.08,10.067,5.563,15.053,1.055,3.548,4.971,10.35-.206,11.212-7.267,1.212-20.9,3.918-20.041,14.211,1.019,12.149,16.474,12.081,25.145,12.627,4.889.307,4.911,4.224,5.607,8.608.312,1.96,1.284,4.609-.38,6.045-1.478,1.274-6.005,1.309-7.929,1.722-5.608,1.2-11.212,2.431-16.82,3.634-6.365,1.366-9.731-.547-15.682-2.291-2.2-.645-4.417-.373-4.579-2.84-.1-1.513,1.382-3.854,1.867-5.351a83.456,83.456,0,0,0,4.108-18.241c.8-9.038-.2-22.589-11.329-24.353-5.294-.839-6.313-1.112-8.7-6.081-2.586-5.373-6.69-10.349-5.7-16.539.718-4.485-.493-12.972,2.369-16.692,1.324-1.72,3.9-2.746,5.664-4.008,2.244-1.61,4.4-3.333,6.5-5.136,1.759-1.514,3.9-4.476,5.9-5.57,2.436-1.338,2.511-.427,4.261,1.663,2.582,3.086,6.688,12.2,11.383,11.34m11.81,20.08c-1.448,2.922-4.794,5.639-6.926,8.079a94.832,94.832,0,0,1-6.564,7.271c-2.632,2.448-11.981,8.361-9.921.4,1.6-6.191,7.6-11.2,12.878-14.293,1.022-.6,12.984-6.4,10.533-1.459m10.227,29.47c.927,4.144,1.426,8.415,2.217,12.588.406,2.134,2.65,7.288,1.735,9.34-1.55,3.478-15.5-.639-18.389-1.836-6.882-2.849-10.042-10.163-3.695-15.372,2.407-1.974,17.2-8.861,18.132-4.72M324.416,502c.777,3.955,3.05,7.622-.707,10.613-3.12,2.483-8.231,4.177-12.075,5.061-5.239,1.2-6.924-1.732-9.7-5.508-2.982-4.06-6.156-7.983-9.45-11.8l31.03-6.946a43.974,43.974,0,0,0,.9,8.576M299.633,520.36c-5.394-.28-11.2,1.344-16.668,1.771-6.832.533-13.645,1.309-20.482,1.768,1.751-5.589,4.9-10.574,7.359-15.854,2.469-5.3,4.2-5.871,9.884-6.28,5.264-.378,8.976-2.19,12.861,2.275,4.042,4.645,7.7,9.692,11.392,14.615-1.256.84-2.756,1.787-4.346,1.7m-38.557,1.14c-1.331.97-5.435-1.786-6.818-2.32-2.691-1.04-3.287-1.375-4.692-4-1.206-2.256-3.125-4.821-3.5-7.4-.5-3.395,1-7.865,1.551-11.238,1.456,3.512,6.237,3.919,9.467,4.494,2.443.435,9.682-.258,11.524,1.482,2.035,1.922-1.712,7.283-2.688,9.3-1.165,2.41-2.6,8.046-4.841,9.675m-2.608,2.785c-1.6.26-6.211,1.853-6.119-1.072.1-3.342,6.446.263,6.119,1.072m-8.123-.175c-.292,2.814-6.347,2.581-6.486.106-.235-4.183,6.951-4.6,6.486-.106m-6.923-75.879c-1.548,4.409-10.976,5.986-14.6,7.343-3.307,1.24-13.186,6.962-16.6,4.886,11.542-7.932,23.37-15.706,33.149-25.834.4,2.5-.209,4.592-.947,6.96-.666,2.137-.323,4.692-1.009,6.645m-2.87,16.077c-1.661,10.8-3.291,21.741-5.539,32.433-4.282-1.309-7.814-3.961-12.314-4.885a35.908,35.908,0,0,0-12.488-.248c-8.822,1.312-16.687,5.676-24.385,9.928-.711-7.4-2.183-15.331-2.009-22.763.144-6.174,10.709-8,15.5-10.552,2.9-1.543,5.521-3.713,8.824-4.251,3.4-.554,6.678-.538,10.036-1.573,7.937-2.449,15.408-6.332,23.184-9.226.636,3.707-.247,7.484-.81,11.137m-7.418,45.7c-.352,2.455.093,6.836-1.778,8.707-1.762,1.762-5.524,1.82-7.847,2.3q-10.615,2.185-21.214,4.429-4.741,1.008-9.5,1.914c-1.514.285-5.312,1.738-6.587.533-1.21-1.145-.309-4.8-.244-6.333a87.7,87.7,0,0,0,.111-9.2c-.369-5.878-.041-8.129,5.429-11.17a59.215,59.215,0,0,1,18.356-6.641,33.807,33.807,0,0,1,19.238,1.993c1.754.708,4.385,1.58,5.2,3.471,1.111,2.574-.793,7.392-1.168,10m-7.967,94.746c-2.594,1.626-8.238,1.349-11.218,1.679a54.805,54.805,0,0,1-14.434-.514c-3.6-.558-8.967-1.332-11.725-3.858-3.918-3.589.6-3.754,3.6-3.5,8.717.733,17.544.221,26.254-.409,1.7-.123,6.253-1.612,7.888-.915,2.09.891,1.45,6.379-.367,7.518m-4.943,58c-16.241-1.578-25.658-15.028-31.548-28.777-3.161-7.382-2.021-15.127-2.333-22.933-.057-1.426-.952-4.964.514-6.029,1.377-1,6.949,2.093,8.456,2.462a52.186,52.186,0,0,0,24.011.236c3.354-.8,5.232-2.278,6.3,1.046.858,2.677-.55,7.609-.7,10.415-.266,4.852.495,44.083-4.694,43.58m-32.445.015c-.062-2.356-1.251-26.163-.1-26.235,3.427,7.392,6.947,14,13.185,19.442a35.833,35.833,0,0,0,10.754,6.775c1.5.56,9.982.985,10.4,2.843.727,3.251-5.065,1.939-6.783,1.675-1.378-.214-2.619-.8-3.971-1.046-2.576-.467-5.011.161-7.6.213-3.931.08-7.791-.333-11.724.008-3.6.31-4.067-.1-4.163-3.675m2.4-106.783c13.9-4.494,25.524,4.017,32.863,15.157,4.184,6.353,5.119,10.8,4.388,18.317-.263,2.693.221,4.516-2.254,5.613-2.451,1.087-8.018.281-10.669.405-7.625.356-15.221.829-22.846.377-4.953-.293-5.653-1.132-5.567-5.94.1-5.788-.379-11.549-.707-17.346-.354-6.272-2.508-14.224,4.792-16.583m-4.55-8.336c.009-4.253-.246-8.616.013-12.862.259-4.209,2.051-4,6.024-4.719,8.606-1.556,17.2-3.3,25.69-5.406,3.358-.834,7.152-2.435,10.651-2.448,3.67-.014,3.476,1.873,3.231,5.124-.544,7.2-1.863,14.292-2.264,21.453-.433,7.729-.66,15.557-.626,23.295.012,2.611.647,4.546-1.579,2.1s-3.321-6.35-5.311-9.1a32.229,32.229,0,0,0-16.862-12.075,24.259,24.259,0,0,0-11.419-.474c-1.15.231-6.911,2.981-7.644,2.438-.5-.368.1-7.154.1-7.326m50.866,147.385a102.464,102.464,0,0,0,17.8,9.91c3.478,1.558,17.248,4.838,17.688,8.346.234,1.871-2.048,3.969-3.542,4.19-1.9.281-5.02-.957-6.951-1.192-7.023-.852-14.032-.858-20.884-2.813-13.681-3.9-27.865-5-41.688-8.408-3.289-.809-6.586-1.569-9.891-2.3-3.14-.7-4.547-.578-4.658-3.933-.245-7.365,1.868-14.91,1.884-22.366,11.183,1.276,22.4,1.259,33.618,2.31,4.8.449,4.693,1.36,6.8,5.559,2.186,4.355,5.9,7.894,9.821,10.7M181.968,455.77c-.142-2.727-.252-5.46-.5-8.179-.166-1.827-1.834-6.933-.893-8.355,1.117-1.689,2.243-.658,4.243-.706a13.456,13.456,0,0,0,7.018-2.509,33.3,33.3,0,0,0,9.851-10.118c2.35-3.55,1.913-8.4,1.884-12.653-.074-10.993.727-21.717.056-32.759-.308-5.072,4.021-1.961,7.518-1.3,5.719,1.073,11.935.33,17.747.344-.216,1.352-12.1,4.708-14.022,5.986a15.726,15.726,0,0,0-7.333,14.462c.9,12,14.113,14,23.767,14.024-8.009,7.082-15.875,13.834-22.17,22.571-4.642,6.441-12.816,19.142-5.229,26.268-6.707,3.81-13.355,8.047-20.94,9.881-.34-5.65-.7-11.3-1-16.953m-3.045-218.979c2.73,1.754,3.879-.726,5.957-2.01,2.927-1.81,3.9-1.632,4.267-5.673.687-7.495-2.466-14.28-6.425-20.413-1.8-2.788-3.594-6.108-6.134-8.288-2.316-1.986-4.656-1.3-6.8-3.356-.843-.808-.662-1.947-2.054-1.915-.917.022-3.145,2.861-3.9,3.489-2.391,1.98-5.317,3.487-8.452,1.854-4.564-2.376-3.1-11,.447-13.8,2.729-2.152,5.955-1.82,9.063-2.167,2.33-.259,2.815-.158,1.856-2.825-.672-1.867-2.22-3.324-2.985-5.151-1.471-3.507-1.151-7.77-1.785-11.481-.571-3.326-1.9-6.923-1.856-10.3.063-4.3,1.468-5.418,5.2-6.624,3.61-1.168,6.6-3.743,9.674-5.906,3.481-2.449,7.293-4.066,10.869-6.3,2.428-1.519,3.995-4.589,6.666-3.155,3.172,1.7,6.527,6.636,9.225,9.157-3.948,2.506-4.865,3.6-4.322,8.508.5,4.5,1.416,8.5,4.854,11.638,1.32,1.2,3.784,2.168,4.807,3.556,1.194,1.617.418.192.267,2.017-.08.985-.859,1.629-.689,2.767.757,5.054,6.564,2.071,8.956.315,8.549-6.273-7.413-11.255-11.205-13.541-2.618-1.579-3.912-6.618.236-5.279,2.759.89,8.993,8.44,9.626,1.558,6.842,3.975,11.064,12.419,16.8,17.758,4.136,3.85,9.694,8.121,6.41,14.271-4.184,7.839-12.483,11.4-20.058,14.779-7.349,3.28-5.823,12.563-1.9,18.245a19.777,19.777,0,0,0,8.825,6.8c3.657,1.632,4.416,3.548,5.215,7.331.887,4.2-.055,5.888-3.689,8.056a100.122,100.122,0,0,1-11.046,5.826c-8.19,3.584-16.687,3.811-25.4,5.032-3.053.428-5.981,1.32-7.647-1.707-1.874-3.407-2.011-9.274-2.872-13.071m-1.317-16.3c-2.05-1.081-7,2.508-9.591,2.666-4.193.254-6.946.158-10.668,2.382-7.035,4.2-12.873,9.616-18.515,15.486q-9.532,9.917-19.006,19.888-4.3,4.5-8.671,8.949c-2.3,2.332-4.544,5.611-7.388,7.275.148-1.977,1.359-3.375,1.789-5.207.251-1.071-.187-1.98-.025-3.006.053-.333.948-1.49,1.083-1.87.363-1,.807-1.992,1.238-3.033.4-.971.344-1.978.751-2.992.42-1.046,1.568-1.738,1.967-2.768,1.168-3.015-.765-4.413-3.857-4.342,1.21-6.033,1.739-8.983,8.046-11.11a96.8,96.8,0,0,0,17.448-7.49c4.914-2.819,9.015-6.883,13.74-10.025,4.23-2.814,9.495-5.762,9.452-11.532,2.4,1.627,4.645,3,7.389,1.376,2.315-1.367,2.623-2.468,5.3-2.726,2.185-.209,3.539-.265,5.489.7,2.295,1.13,2.609,1.916,3.945-1.412,1.519,1.279,5.359,6.6,5.23,8.712-.069,1.161-.245,1.685-1.684,1.991-2.041.434-1.962-1.118-3.461-1.908m-9.561,315.155c-1,1.529-5.2,1.247-6.827,1.226-4.951-.064-6.682-4.219-8.854-8.235-3.425-6.33-8.544-19.48-2.925-26.123,4.434-5.244,13.072,1.363,16.1,5.323,2.613,3.422,1.836,8.553,2.079,12.659.205,3.46,2.4,12.132.43,15.15m-13.526,2.293c-1.979,1.979-8.4,1.56-11.026,1.985a105.169,105.169,0,0,0-13.878,3.052c-3.381,1.029-6.723,3.8-7.615-.915-.748-3.962-.376-8.715-.3-12.714.077-4.315.528-8.575.9-12.87.254-2.9-.381-8.249,1.99-10.479,2.044-1.921,7.013-2.106,9.666-2.743,4.356-1.045,8.908-2.417,13.437-1.949a30.062,30.062,0,0,0-.034,21.838c.808,2.039,8.084,13.572,6.861,14.795m-33.293-28.569c-1.1,10.787-2.214,21.642-1.151,32.483.064.647.836,3.609.5,4.072-.347.48-3.1.729-3.721.876-2.479.588-4.954,1.211-7.449,1.733-4.857,1.016-5.49-2.052-6.443-6.553-2.041-9.643,1.916-20.1,4.313-29.359,1.168-4.51,2.034-5.03,6.468-5.4,3.086-.259,7.952-2.432,7.483,2.152m-18.753,40.245c-1.856,1.688-3.711-6.277-3.874-7.088-.649-3.223-.288-6.492-.278-9.766.016-5.113-.375-10.2-.382-15.291,0-2.753-2.067-8.38,1.19-9.837.956-.427,4.753-.249,5.615.313,1.79,1.169,1.084,1.926.554,3.959-1.188,4.563-2.214,9.149-3.248,13.75-1.015,4.511-2.015,8.852-1.532,13.511.159,1.541,3.139,9.373,1.956,10.449m59.184-50.262c4.524-1.275,4.766,2.191,4.759,5.508-.69-.528-7.119-4.843-4.759-5.508m-60.513-243.5c-1.108,1.827-8.129,2.326-10.136,2.807-3.947.945-7.9,1.884-11.832,2.868-7.376,1.845-14.569,3.925-22.13,4.89,4.152-6.647,5.443-12.388,4.671-20.683a226.844,226.844,0,0,0-4.625-31.094c-2.377-10.109-5.129-20.151-7.779-30.193-1.3-4.934-2.71-9.773-4.442-14.574-1.389-3.848-3.557-8.691-1.2-12.635,5.98,4.363,10.777,9.064,14.188,15.692,3.655,7.105,6.845,14.4,11.086,21.2,1.939,3.107,4.2,5.942,6.278,8.95,1.234,1.79,2.133,4.373,3.7,5.883,1.812,1.74,3.744,2.56,4.78-.376,1.111-3.152-2.434-9.388-3.48-12.348-2.527-7.145-5.032-14.276-6.981-21.6-1.577-5.925-4.182-13.088-3.26-19.339.913-6.189,5.112-1.759,7.237,1.118,4.381,5.932,7,12.846,9.881,19.571,2.645,6.178,5.73,12.068,8.657,18.1,1.018,2.1,2.36,7.525,5.028,8.149,3.877.909,3.548-4.551,3.178-6.767-2.457-14.686-8.871-28.748-10.2-43.689-.064-.714-.991-6.266-.246-6.729,1.445-.9,3.395,4.733,4.019,6.113a149.716,149.716,0,0,1,7.574,22.324c1.763,6.448,3.357,12.944,5.336,19.33,1.087,3.511,2.333,6.963,3.561,10.426,1.112,3.136,2.24,8.5,5.138,10.564,4.111,2.932,18.825-4.04,20.316,2.193,1.061,4.43-12.583,8-15.488,9.343-3.825,1.771-7.577,3.71-11.4,5.483-2.9,1.34-7.061,1.89-9.157,4.414-2.221,2.673-2.576,6.427-2.642,9.743-.051,2.51,1.688,8.7.372,10.87m-9.3,48.374c-.195,1.392-1.3,3.236-1.8,4.561-1.013,2.7-1.875,5.924-3.285,8.446-1.213,2.172-3,4.114-4.174,6.318-1.111,2.092-1.259,4.5-2.558,6.6-1.485,2.393-3.94,4.115-5.415,6.493a32.625,32.625,0,0,1-2.505,3.763c-3.638,4.427-7.25,8.6-10.176,13.345-.748,1.214-4.4,6.513-5.858,6.8-3.041.6.5-3.725,1.094-4.619,4.308-6.466,8.134-13.272,12.292-19.838,4.028-6.357,8.15-12.665,12.026-19.118,3.161-5.261,5.348-12.814,10.486-16.52q.029,1.89-.127,3.771M232.32,244.807c2.5,10.288,5.5,20.257,8.316,30.453,2.618,9.46,6.1,19.584,7.187,29.337a125.936,125.936,0,0,0,6.866,28.606c1.536,4.243,3.115,8.5,4.782,12.7.916,2.3,1.94,4.556,2.979,6.806.807,1.748,2.939,4.579,3.021,6.431.065,1.483.581.891-.883,2.005-1.516,1.155-4.142.736-5.908.939-4.6.533-9.095,2.265-13.585,3.387-8.658,2.164-18.978,3.881-27.85,2.376-3.732-.634-7.608-1.183-11.3-2.008-4.54-1.016-5.474-2.895-6.406-7.358-2.038-9.756-3.793-19.487-5.476-29.309-2-11.682-4.166-23.351-5.71-35.106-1.56-11.892-2.68-23.8-5.124-35.559,9.858,1.649,19.142,3.511,29.03.81a33.607,33.607,0,0,0,20.059-14.506m38.592,127.366c2.2,4.543-3.109,8.627-5.683,12.126-3.395,4.611-6.566,9.43-10.514,13.6-1.185-4.74-2.225-10.074-5.385-13.967-4.037-4.972-8.749-2.94-13.7-5.292,5.187-2.523,11.809-1.56,17.311-3.81,5.428-2.219,10.908-3.961,15.957-6.844.671,1.395,1.334,2.794,2.009,4.186M251.677,478.156c-3.315.184-1.1-6.807-.882-8.544.592-4.775,1.19-9.55,1.708-14.334q4.1,10.819,8.2,21.636c-3.005.429-5.991,1.073-9.029,1.242m-5.392,34.573c.452,1.005,2.561,4.355.9,4.973-2.282.846-2.557-4.7-.9-4.973m-3.956-77.7c-10.56,8.431-21.046,16.884-32.472,24.142-2.5,1.591-5.025,2.256-6.684-.9-1.3-2.479.073-5.273.91-7.7,2.133-6.189,5.849-11.569,9.967-16.606,8.226-10.059,18.015-18.65,30.506-22.616,2.044-.649,5.2-2.607,5.915.1.421,1.59-1.363,5.561-1.725,7.054-1.492,6.164-1.166,12.337-6.417,16.527m30.4,61.488c.233,7.159-19.338,1.385-21.776.105,2.558-.858,21.671-3.324,21.776-.105m7.268.045c1.162.31,5.622.7,3.956,2.227-1.491,1.365-8.243.817-10.032.985,1.2-3.95,2.115-4.266,6.076-3.212m-3.626-9.59c-.437,1.593-.615,4.023-2.043,5.114-1.778,1.36-5.558.534-7.571.545q-5.129.027-10.237.533c-1.3.129-6.575,1.718-7.795.634-.9-.8-.562-4.532.09-5.372,1.34-1.726,4.426-1.128,6.36-1.2,7.077-.253,14.116-.274,21.2-.257m-4.543-26.463a6.7,6.7,0,0,1-1.6-3.71c-.455-2.4-1.614-4.453-2.295-6.772-1.5-5.1,3.29-4.649,6.8-2.778,9.111,4.854,6.912,21.815,4.659,29.756-3.276-2.408-4.485-3.5-5.612-7.386-.428-1.477-.908-2.927-1.354-4.4-.327-1.081-.1-3.974-.6-4.714m.789-82.552c2.543-.307,4.871,7.586,4.144,9.294-1.487,3.494-7.171,6.615-10.065,8.845-1.927,1.485-3.842,3.187-5.9,4.482-1.913,1.2-3.013.527-4.791,1.1-2.574.833-3.2,3.556-5.831,4.726-3.706,1.647-8.2,2.108-12.068,3.6-4.7,1.8-9,1.853-13.924,1-7.082-1.229-15.382-4.743-14.744-13.347,1.125-15.182,31.276-22.961,39.5-10.088,2.141,3.35,2.107,7.256,3.5,10.855,1.505,3.9,2.964,2.364,5.227-.5,2.962-3.753,5.713-7.708,8.558-11.551.92-1.242,4.564-8.184,6.4-8.408M87.841,525.778c-.144,2.582.01,5.2-.888,7.665-.9,2.484-2.739,4.493-3.8,6.908-2.142,4.893-2.126,10.814-2.04,16.057.2,12.2,3.088,24.049,4.616,36.1-5.086-.012-10.343.045-15.273-1.409-4.4-1.3-5.106-4.517-6.351-8.572-3.5-11.389-7.273-22.729-8.4-34.656-.537-5.684-.763-11.414-1.02-17.116-.224-5,.9-7.184,5.415-9.66,9.815-5.384,19.989-9.867,29.7-15.506-.993,6.691-1.587,13.434-1.965,20.186m419-399.719c-2.39-.438-4.8-.712-7.214-1-1.258-.151-5.179.059-6.12-.761-1.121-.976.819-8.356.919-9.94.607-9.523-.1-19.341-.973-28.828-1.58-17.175-6.981-33.087-19.444-45.454-6.2-6.156-13.176-11.04-21.648-13.4-4.935-1.373-10.021-2.106-14.968-3.437-3.989-1.076-7.713-2.307-11.858-2.733-8.267-.85-15.825-3.974-23.893-5.781-5.935-1.33-15.482-4.483-19.33,2.219a49.315,49.315,0,0,0-9.9-8.87c-3.659-2.538-4.258-5.074-8.739-2.143-8.706,5.7-16.861,12.644-24.993,19.124-7.595,6.052-14.943,12.39-22.9,17.955-8.118,5.677-6.579,15.311-2.761,23.3,7.182,15.032,18.261,27.883,27.958,40.769q9.113,12.108,18.219,24.243c5.784,7.73,10.786,16.677,17.545,23.622,4.261,4.378,9.347-1.347,13.193-3.993,4.773-3.285,9.463-6.693,14.242-9.969,9.951-6.824,20.6-13.216,31.106-19.156l2.292,6.5c-2.307.173-5.425-.342-6.6,2.139-1.678,3.543,2.438,4.008,3.159,6.04.645,1.814-2,6.606-2.78,8.241a42.488,42.488,0,0,1-6.917,9.892c-10.7,12-24.239,20.585-37.977,28.767-14.7,8.754-30.456,14.1-46.55,19.74-8.184,2.868-16.678,4.2-25.123,6.037-8.138,1.77-16.268,4.1-24.583,4.763-17.013,1.365-35.066,2.388-51.873-1.281-1.839-.4-3.786-1.271-5.658-1.436-1.5-.133-2.611.5-4.028.577-3.041.174-4.784-2.546-7.2-.019-1.209,1.264-1.231,3.386-2.915,1.027-2.143-3,3.334-3.581,5.364-4.436,6.835-2.879,12.329-8.675,16.671-14.533s4.963-12.106,2.321-18.96-8.649-11.5-13.158-17.059c-2.182-2.694-4.189-5.544-6.585-8.059-1.279-1.344-3.339-2.629-3.419-3.984-.093-1.575.85-2.357.286-4.271-.146-.5-.772-.781-.9-1.328a20.14,20.14,0,0,1,.006-2.47,10.242,10.242,0,0,0-2.1-4.769c-.674-1-1.659-2.994-2.586-3.741-1.625-1.31-3.841-.776-5.493-2.1-2.614-2.1-3.534-6.526-5.846-9.075-3.256-3.588-3.95.037-7.4-1.106-2.949-.979-2.915-5.417-5.3-6.918-3.357-2.114-6.185,1.776-9.166,2.642-3.921,1.14-2.415-3.285-5.91-3.688-3.157-.364-7.529,6.039-9.1,8.313-1.6-1.869-3.358-5.054-6.244-3.913-3.029,1.2-3.568,6.774-5.782,8.763-.771.692-.608,1.2-1.558,1.521-1.225.41-2.859-1.369-4.444-.827-3.2,1.1-2.806,5.361-2.813,8.125-3.772-.551-6.4-.832-7.666,3.233-1.236,3.979-1.705,2.223-5.681,3.515-3.429,1.114-3.908,4.37-4.474,7.554a8.115,8.115,0,0,0,.506,4.594c.672,2.274.672,2.245-.423,4.416-1.909,3.787-2.024,7.96-2.329,12.128-.324,4.447-1.1,8.5.162,12.84.782,2.688.841,6.346,3.474,7.851,1.045.6,2.818.27,3.707.862,1.7,1.129,1.18,2.849,2.31,4.5.847,1.235,2.212,1.354,3.161,2.355,1.031,1.089,1.092,2.417,1.679,3.747,1.739,3.938,3.374,5.843-2.293,6.068-3.495.138-7.224,1.187-10.706.865-4.109-.379-5.131-2.675-6.438-6.172-6.591-17.622-10.133-36.722-18.814-53.48-1.906-3.679-9.729-18.71-13.035-7.758-2.788,9.237.87,20.51,2.273,29.7-4.4-3.966-6.029-11.111-9.371-15.954-2.468-3.578-10.2-12.365-14.728-7.33C63.109,148.438,64,156.853,64.66,161.6c1.041,7.506,3.44,14.739,5.153,22.1-2.157-2.822-3.221-6.267-4.717-9.444a62.83,62.83,0,0,0-6.889-11.265,66.214,66.214,0,0,0-7.767-8.511c-2.161-1.995-6.032-6.361-9.1-6.6-7.9-.606-5.415,13.883-4.211,18.025,2.493,8.586,5.2,16.935,7.132,25.693,3.784,17.112,8.368,33.829,11.155,51.158.617,3.843,1.361,6.91-.159,10.6-1.339,3.254-2.729,7.146-5.2,9.648a100.949,100.949,0,0,0-14.418,18.543c-4.478,7.312-9.088,14.708-12.744,22.471-1.681,3.571-3.055,7.433-4.987,10.869-1.744,3.1-3.841,5.55-5.081,8.983C6.9,340.276,2.518,356.391.509,373.759c-1.649,14.259-.113,33.226,17.1,36.563,7.909,1.533,15.01-1.974,22.141-4.869,7.376-2.994,12.71-7.86,18.727-13.032,7.476-6.426,15.238-12.456,22.793-18.775s14.541-13.334,22.058-19.724a195.5,195.5,0,0,0,20.565-20.35c6.37-7.273,11.545-15.33,17.712-22.7-.023,9.548-1.441,19.009-1.838,28.543q-.546,13.115-.02,26.214c.353,8.732-1.954,17.045-1.973,25.759-.019,8.5-.356,16.951-.542,25.442-.084,3.809-.83,8.082.593,11.756,1.062,2.744,4.4,3.6,7.252,4.342,4.4,1.143,17.654-1.058,19.62,3.647,1.074,2.567-.007,7.241.077,10.078.139,4.675.311,9.349.471,14.023q.248,7.24.5,14.481c.157,4.253.984,8.991.471,13.2-.438,3.609-2.542,3.137-5.877,3.322-5.033.278-10.068.5-15.1.721-7.386.324-15.1.176-22.176,1.048-2.975.366-6.224.21-9.362.807a81.458,81.458,0,0,1-11.559,1.136c-3.218.159-7.354-.075-9.881,2.3-.877.825-1.073,1.809-1.695,2.727-1.164,1.721-.517,1.268-2.427,1.655a163.959,163.959,0,0,0-21.846,5.76c-3.653,1.273-7.042,2.982-10.712,4.18-3.216,1.05-5.574,2.342-7.163,5.5-2.84,5.639-2.121,13.8-1.915,19.874.324,9.481,2.43,18.507,4.7,27.676,2.363,9.538,4.216,19.333,8.812,28.1,1.511,2.88,3.141,6.554,6.226,8.055,3.983,1.937,10.109.763,14.456.77,2.918.005,10.732,1.007,12.913-1.439,2.112-2.369-.013-9.05-.311-11.99-1.045-10.3-2.926-20.7-2.9-31.072,2.38,3.516,6.506,9.586,10.636,4.2,1.016-1.326.62-1.942,2.424-2.71a11.9,11.9,0,0,1,4.19-.612c1.479.1,2.026.694,3.385.4,1.2-.257,2.555-1.334,3.934-1.661,17.093-4.063,34.088-8.442,51.255-12.062,4.539-.957,3.894,2.528,4.193,6.452.332,4.339-.3,8.723.3,13.015.524,3.734.932,7.373.194,11.129-.871,4.43-.31,8.127.556,12.515,3.339,16.919,2.743,35.269,3.5,52.465.391,8.956-.45,18.1.392,27.008.319,3.365,2.2,5.224,2.958,8.284.874,3.515-1.51,7.989-2.235,11.394-1.456,6.834-4.015,16.615.666,22.561,2.528,3.212,5.842,3.677,9.584,4.763,4.478,1.3,8.892,2.815,13.392,4.046,16.44,4.5,34.2,5.38,51.055,7.86a54.805,54.805,0,0,0,12.1.263c2.559-.178,8.863.664,10.992-.868,1.14-.82.562-1.846,1.142-2.848a8.075,8.075,0,0,1,3.222-2.888c2.321-1.467,5-2.324,5.4-5.352.957-7.417-8.311-11.346-13.267-14.553-6.333-4.1-13.983-5.682-20.7-9.028-3.709-1.846-7.286-3.938-10.859-6.033-1.55-.908-4.691-1.936-5.77-3.366-1.1-1.459-.023-3.542.433-5.627,1.883-8.616,1.247-17.426,2.221-26.132.974-8.721.709-17.5,1.03-26.261.332-9.027,1.077-18.031,1.649-27.045.527-8.325,1.059-16.784,1.147-25.118.083-7.728,1.136-15.309,1.386-23.088.084-2.639-.389-7.428,1.363-9.664,1.538-1.961,6.627-1.715,9-2.059,6.4-.929,12.49-1.743,18.816-2.3,15.055-1.332,31.808-2.313,46.043-7.56,5.87-2.164,13.682-5.12,15.63-11.861,2.24-7.75-.684-17.274-.781-25.2-.1-8.46-2.555-16.713-4.394-24.91-1.981-8.824-3.228-17.8-5.367-26.59-1.964-8.066-5.149-15.21-8.159-22.868-1.222-3.106-8.179-13.809-6.021-16.448,1.163-1.422,5.35-1.782,7.048-2.433a70.6,70.6,0,0,0,10.705-4.988c4.508-2.664,14.377-7.071,14.832-12.99.433-5.657-5.126-11.374-7.951-15.817-4.553-7.159-10.295-13.418-14.631-20.718-8.763-14.754-15.732-30.914-22.121-46.814-3.342-8.318-4.433-16.151-4.983-25.03,9.7.023,19.582,1.217,29.226-.14,10.5-1.478,21-3.965,31.407-6.015,18.944-3.734,37.134-7.95,54.683-16.358,16.435-7.873,33.11-16.49,46.717-28.988,7.036-6.462,14.213-13.048,20.289-20.438,6.242-7.591,10.937-16.216,15.752-24.739A161.18,161.18,0,0,0,500.9,144.076c.672-2.069.676-4.7,1.537-6.657.972-2.206,2.739-2.264,4.584-3.426,2.6-1.635,4.324-7.106-.181-7.934" fill-rule="evenodd"/>
        <path id="ink-shape-2" data-name="ink-shape" d="M280.89,20.76c2.219,1.906,11.78,8.619,14.869,6.987,3.811-2.015-2.222-8.086-3.847-9.582-2.067-1.9-9.453-7.664-12.282-7.129-5.652,1.069-.736,8.009,1.26,9.725" fill-rule="evenodd"/>
        <path id="ink-shape-3" data-name="ink-shape" d="M285.613,89.662c1.254-2.467,4.588-3.374,6.129-5.761,1.855-2.87,2.707-5.381,2.023-8.9-4.747,1.6-10.148,6.435-13.325,10.217-2.654,3.161-6.426,9.766.5,9.783q-.092-1.41-.182-2.821a4.539,4.539,0,0,0,4.852-2.517" fill-rule="evenodd"/>
        <path id="ink-shape-4" data-name="ink-shape" d="M263,48.618c3.06.88,5.586.755,8.713.824,2.269.051,5.37,1.3,7.209-.108-1.632-.945.43-1,.026-1.919-.339-.768-.984-.517-1.507-1.138-1.868-2.216-3.493-2.189-6.455-2.65-2.3-.359-5.67-1.186-7.876-.045-2.32,1.2-3.219,4.142-.11,5.036" fill-rule="evenodd"/>
        <path id="ink-shape-5" data-name="ink-shape" d="M306.563,116.579c1.979-1.66,4.137-6.466,4.537-8.946.156-.972-.544-1.716-.46-2.431.16-1.363,2.96-4,.027-5.115-2.566-.979-4.978,6.625-5.63,8.284-.67,1.7-2.492,5-1.932,6.644.464,1.362,2.121,2.684,3.458,1.564" fill-rule="evenodd"/>
        <path id="ink-shape-6" data-name="ink-shape" d="M330.241,13.662c1.791-1.662,2.924-3.547,2.739-5.833-.147-1.8-1.5-8.008-3.013-7.826-5.039.608-2.774,16.489.274,13.658" fill-rule="evenodd"/>
        <path id="ink-shape-7" data-name="ink-shape" d="M223.864,291.2c-.414-1.518-1.922-10.8-4.528-10.166-1.98.48.077,8.647.169,9.722.193,2.248-4.128,2.174-6.136,1.87-3.185-.481-2.93-2.347-3.406-5.242-.179-1.094-.869-6.039-3.151-4.228-1.542,1.224-.439,7.321-.311,8.712.445,4.819.968,13.047,3.832,17.422,1.142,1.746,2.17,2.607,3.37.369,1.214-2.265-1.534-9.168-2.015-11.484,2.267.221,8.793-.514,10.158,1.841,1.247,2.149-.748,8.29,3.254,8.788,2.373.3,1.943-2.453,1.715-4.567a84.312,84.312,0,0,0-2.951-13.037" fill-rule="evenodd"/>
        <path id="ink-shape-8" data-name="ink-shape" d="M229.943,289.05c-2.628,1.187.672,18.5,4.517,17.937,4.487-.653-2.013-19.068-4.517-17.937" fill-rule="evenodd"/>
        <path id="ink-shape-9" data-name="ink-shape" d="M227.015,283.319c-.324,3.9,4.74,5.349,4.98,1.114.184-3.267-4.639-5.211-4.98-1.114" fill-rule="evenodd"/>
        <path id="ink-shape-10" data-name="ink-shape" d="M199.217,180c2.312,8.616,23.355,12.281,20.521.661-1.421-5.818-7.35-.649-11.49-1.326-2.679-.438-10.659-5.411-9.031.665" fill-rule="evenodd"/>
        <path id="ink-shape-11" data-name="ink-shape" d="M193.932,164.627c.989-4.61-9.1-9.7-12.755-8.43-5.354,1.858-5.331,13.733-1.247,16.89.538.415,2.185,1.406,2.992.616,1.273-1.249-.118-.908-.416-2.155-.471-1.983-2.014-4.529-.477-6.786,2.9-4.262,10.486,6.471,11.9-.135" fill-rule="evenodd"/>
        <path id="ink-shape-12" data-name="ink-shape" d="M163.181,187.005c-3.637-.2-6.618,5.44-1.268,4.967,1.024-.091,3.225-.349,3.82-1.425.984-1.783-.954-3.452-2.552-3.542" fill-rule="evenodd"/>
        <path id="ink-shape-13" data-name="ink-shape" d="M339.58,52.462c-1.244-1.8-3.853-4.7-6.1-2.892-1.99,1.6-1.643,5.553-.879,7.517,2.053,5.287,6.906,10,12.4,6.951-1.908-3.821-2.983-8.053-5.42-11.577" fill-rule="evenodd"/>
      </g>
    </g>
  </g>
</svg>
