<svg xmlns="http://www.w3.org/2000/svg" width="493" height="493" viewBox="0 0 493 493">
  <g id="Group_4" data-name="Group 4" transform="translate(-1603 -3652)">
    <circle id="Ellipse_2" data-name="Ellipse 2" cx="246.5" cy="246.5" r="246.5" transform="translate(1603 3652)" fill="#e76f51"/>
    <g id="svgg" transform="translate(1701.882 3728.191)">
      <path id="path0" d="M63.04,67.177C51.816,70.427,45.9,78.219,45.9,89.739c0,5.98.355,7.615,8.684,40.056l8.684,33.821H106.2c46.331,0,45.178-.079,47.511,3.252a7.407,7.407,0,0,1,0,7.212c-2.333,3.331-1.181,3.252-47.509,3.252H63.27l-8.847,34.757c-9.793,38.476-10.1,40.385-7.525,47.26A23.554,23.554,0,0,0,73.951,273.8c4.144-.992,196.406-80.541,201.37-83.317,14.878-8.322,14.51-32.159-.623-40.305-2.057-1.107-47.833-20.28-101.724-42.606C65.008,62.842,70.738,64.947,63.04,67.177" transform="translate(0 0)" fill="#fff" fill-rule="evenodd"/>
    </g>
  </g>
</svg>
