<svg id="svg"
    xmlns="http://www.w3.org/2000/svg"
    xmlns:xlink="http://www.w3.org/1999/xlink" width="400" height="400" viewBox="0, 0, 400,400">
    <g id="svgg">
        <path id="path0" d="M68.000 67.448 C 53.597 71.618,46.000 81.617,46.000 96.400 C 46.000 104.073,46.455 106.172,57.144 147.800 L 68.288 191.200 123.384 191.200 C 182.836 191.200,181.357 191.099,184.351 195.373 C 185.954 197.662,185.954 202.338,184.351 204.627 C 181.357 208.901,182.835 208.800,123.387 208.800 L 68.294 208.800 56.942 253.400 C 44.375 302.773,43.985 305.223,47.286 314.045 C 52.433 327.802,67.767 335.992,82.000 332.585 C 87.318 331.312,334.031 229.234,340.400 225.671 C 359.492 214.992,359.019 184.404,339.600 173.951 C 336.960 172.530,278.220 147.928,209.066 119.279 C 70.525 61.885,77.878 64.587,68.000 67.448 " stroke="none" fill="#FFFFFF" fill-rule="evenodd"></path>
    </g>
</svg>