<svg xmlns="http://www.w3.org/2000/svg" width="42" height="42" viewBox="0 0 42 42">
  <g id="Group_27" data-name="Group 27" transform="translate(-162 -1643.886)">
    <circle id="Ellipse_6" data-name="Ellipse 6" cx="21" cy="21" r="21" transform="translate(162 1643.886)" fill="#f56968"/>
    <g id="person_add_black_48dp" transform="translate(164.618 1649.236)">
      <path id="Path_57" data-name="Path 57" d="M0,0H31.415V31.415H0Z" fill="none"/>
      <path id="Path_58" data-name="Path 58" d="M19.325,14.472a5.236,5.236,0,1,0-5.236-5.236A5.234,5.234,0,0,0,19.325,14.472ZM7.545,11.854V9.236a1.309,1.309,0,0,0-2.618,0v2.618H2.309a1.309,1.309,0,1,0,0,2.618H4.927v2.618a1.309,1.309,0,0,0,2.618,0V14.472h2.618a1.309,1.309,0,0,0,0-2.618Zm11.781,5.236c-3.495,0-10.472,1.754-10.472,5.236v1.309a1.313,1.313,0,0,0,1.309,1.309H28.488A1.313,1.313,0,0,0,29.8,23.634V22.325C29.8,18.843,22.82,17.089,19.325,17.089Z" transform="translate(1.618 1.236)" fill="#f9f5f5"/>
    </g>
  </g>
</svg>
