<svg xmlns="http://www.w3.org/2000/svg" width="342.448" height="302.408" viewBox="0 0 342.448 302.408">
  <g id="Group_26" data-name="Group 26" transform="translate(-42.281 -1337.829)">
    <path id="Path_56" data-name="Path 56" d="M238.054,19.829c93.086,0,83.661,59.653,83.661,152.739S232.9,322.237,139.81,322.237,2.422,270.26,2.422,177.174,144.968,19.829,238.054,19.829Z" transform="translate(62.747 1318)" fill="#fcecef"/>
    <g id="Character_chilling" data-name="Character/chilling" transform="translate(42.281 1356.227)">
      <path id="Accent" d="M326.7,324.579c13.408-1.066,26.2,3.93,36.917,11.718,13.812,10.037,25.518,24.392,33.442,39.517.843.649,1.673,1.315,2.5,1.987a112.762,112.762,0,0,1,12.538,11.611c2.132,2.358,7.725,8.091,5.3,11.707a4.293,4.293,0,0,1-2.209,1.512c-2.376.851-4.853,1.282-7.2,2.277-2.893,1.228-5.893,2.949-7.746,5.571-.527.746-.665,1.626-1.373,1.955a11.032,11.032,0,0,1-2.99.293l-4.954.485c-3.879.38-7.935.422-11.73,1.359l-17.459,4.311c-3.571.882-7.675,1.368-11.061,2.816-5.053,2.163-9.874,5.329-14.71,7.939l-7.014,3.785a6.944,6.944,0,0,1-3.261.728l-9.656.743c-1.558.12-2.306.747-2.51-.812l-2.245-17.138-1.186-9.062c-.071-.539-.05-3.209-.492-3.531-.277-.2-1.9.233-2.2.27l-4.383.537-9.47,1.159c-.256.031-1.675.015-1.835.225-.187.246.168,1.655.2,1.958q.5,4.773,1,9.547c.039.369.487,2.08.251,2.383-.164.21-1.354.236-1.6.275l-9.135,1.491c-2.181.356-5.031.338-7.092,1.158a17.93,17.93,0,0,0-3.378,2.427l-14.851,10.928c-2.252,1.657-5.288,1.235-8.031,1.444l-31.642,2.411q.039-1.478.079-2.956.209-7.829.417-15.658l.182-6.827c.012-.432-.161-1.7.121-2.016.375-.424,2.053-.608,2.574-.762l5.239-1.551,15.368-4.549,15.189-4.5,5.2-1.538c.4-.118,1.8-.276,2.076-.614.351-.426.194-2.245.25-2.786.275-2.637.667-5.263,1.144-7.87,3.442-18.81,11.487-37.916,26.4-50.464A61.784,61.784,0,0,1,326.7,324.579Zm2.365,37.72c-1.327-1.558-3.557-4.1-5.9-3.679-1.906.343-2.944,2.706-3.608,4.276-2.67,6.313-3.5,13.549-4.329,20.3-.521,4.233-.94,8.485-1.208,12.742l28.534-2.2c-.449-3.031-.809-6.09-1.349-9.106a18.186,18.186,0,0,0-1.661-4.27C336.677,374.117,333.549,367.564,329.065,362.3Z" transform="translate(-155.913 -239.234)" fill="#ff5678" fill-rule="evenodd"/>
      <path id="Ink" d="M351.166,87l.233,0c6.312.168,11.878,4.23,16.2,8.528a19.08,19.08,0,0,1,5,7.535,19.818,19.818,0,0,1-.1,10.43c-1.778,7.454-3.951,14.945-6.395,22.209-1.2,3.573-2.946,7.077-3.854,10.734-.748,3.013,2.4,5.208,2.523,8.3a7.605,7.605,0,0,1-4.868,7.175c-1.23.475-2.718.078-3.852.566-1.037.445-1.4,1.76-1.6,2.769a16.47,16.47,0,0,0-.145,4.14c.047.849-.164,2.236.25,2.993.285.52.8.69,1.25,1.046a16.4,16.4,0,0,1,1.551,1.649c.881.922,1.729,1.421,1.969,2.765l.382-.916c.657,1.2,1.144,1.778.519,2.919,1.938-.19,3.086,3.326,3.595,4.659.93,2.44,1.57,4.976,2.5,7.417,1.278,3.348,2.958,6.651,3.773,10.154.685,2.944,1.227,5.968,1.836,8.932a29.64,29.64,0,0,0,1.27,4.956,17.412,17.412,0,0,0,.978,1.585,3.638,3.638,0,0,1,.252,1.978c.032,1.472.961,2.428,1.253,3.857.312,1.528.567,3.072.881,4.6.634,3.084,1.809,6.163,2.091,9.286.328,3.627,1.033,7.209,1.387,10.837.31,3.17-.217,6.573.445,9.64.587,2.722-.141,5.211-.4,7.913-.066.686.991,4.771-.707,3.987a7.351,7.351,0,0,1,.79,2.479,12.915,12.915,0,0,1-.441,2.962,27.853,27.853,0,0,1-1.457,5.6c-.89,1.962-2.247,2.2-4.092,2.87-1.249.456-3.5,2.082-4.481.342-.587,1.786-1.732.552-3.016.452.009,0-.735.275-.874.294a7.181,7.181,0,0,1-1.434-.189,11.563,11.563,0,0,0-3.314.283c-2.524.523-4.967,1.247-7.529,1.611-5,.712-9.908.375-14.919.687-9.807.61-19.777.1-29.591-.166a26.031,26.031,0,0,1-3.229-.043c-1.121-.175-1.365-.705-2.238-1.236-1.452-.882-3.062-.024-4.568.3-4.421.946-9.038,1.016-13.494,1.932-9.054,1.859-17.4,5.528-26.067,8.623-3.76,1.342-8.172,3.515-12.226,3.611-4.913.1-3.753-4.735-2.85-7.846-2.839.754-7.3,4.2-10.182,2.2-3.439-2.381.937-6.34,1.143-9.139-6.146,1.276-13.118,4.074-19.356,1.8-1.2-.437-2.245-1.363-3.534-1.513-1.34-.156-2.756.317-4.11.309-3.085-.02-6.081-.43-9.166-.05-6.877.847-13.655,1.31-20.588,1.493-6.979.184-13.958.6-20.94.58-3.544-.009-7.154-.429-10.69-.241-1.389.074-4.378,1.083-5.353-.329-.98,1.174-1.812.39-3.068.52.233-.024-.655.489-.788.539a5.163,5.163,0,0,1-1.968.164c-1.837-.019-3.554.841-5.382.758a3.444,3.444,0,0,1-1.2-.314c-.093-.038-.071-.437-.22-.471-.894-.2-.663.347-1.231.624-.629.306-1.561-.189-1.2.752-1.708-.075-3.326.5-4.88-.512.735,1.623-1.832.275-2.5.248-1.115-.045-2.091.512-3.2.641-1.333.154-2.673-.465-3.977-.087-1.022.3-1.372,1.006-2.435.643a3.61,3.61,0,0,1-1.907-1.712c-.605-1.012-.683-1.463-2.142-1.481-1.082-.013-2.17.22-3.262.217a8.042,8.042,0,0,0-3.77.46c-1.231.641-1.954,1.617-3.319,2.119-6.138,2.257-12.877,1.66-19.281,1.621-2.7-.016-4.685.232-5.444-2.85-.641-2.6-.9-5.327-1.509-7.953a31.945,31.945,0,0,0-3.235-9.078c-1.612-2.789-2.969-5.671-4.373-8.568a66.471,66.471,0,0,0-11.517-16.049c-1.722-1.861-3.695-3.933-3.778-6.612a11.211,11.211,0,0,1,2.3-6.553c1.194-1.645,3.16-3.5,5.384-3.117,1.34.231,2.218,1.312,3.217,2.122a12.274,12.274,0,0,0,3.6,1.972,32.03,32.03,0,0,1,8.306,4.3,60.061,60.061,0,0,1,7.534,6.557c4.467,4.581,9.045,9.339,11.611,15.27a54.88,54.88,0,0,1,2.348,7.013c.677,2.379,2.522,1.724,4.6,1.382,2.528-.417,5.068-.641,7.612-.9.958-.1,2.308-.129,2.885-1.034.636-1-.093-2.291-.15-3.326a9.808,9.808,0,0,1,.2-1.5c.053-.613-.128-1.173-.129-1.784a4.12,4.12,0,0,1,1.636-3.279c1.912-1.489,4.7-2.377,6.963-3.2a98,98,0,0,1,9.583-2.467c3.583-.9,7.188-1.71,10.79-2.526,3.54-.8,7.074-1.628,10.652-2.246,2.1-.362,4.375-.23,6.409-.892,2.162-.7,1.8-2.879,1.8-4.807a64.961,64.961,0,0,1,.85-9.607c.992-6.69,3.354-13.236,5.5-19.629,2.069-6.157,4.632-12.066,8.864-17.063a74.419,74.419,0,0,1,14.419-12.881c5.464-3.766,11.545-6.487,17.249-9.85-1.247-.953-2.734-1.767-3.45-3.235-.809-1.658-.466-3.639-.432-5.411a16.107,16.107,0,0,1,.814-5.659c.391-1.043,1.9-3.022,1.67-4.156-.388-1.9-4.555-3.3-6.089-4.08a58.694,58.694,0,0,1-7.035-4.03,17.609,17.609,0,0,1-5.42-5.566,11.466,11.466,0,0,1-.9-2.036c-.26-.789-.078-1.058-.867-1.115-1.258-.093-3.145,1.171-4.206,1.729-5.467,2.877-11.471,6.748-17.922,6.491-2.34-.093-4.971-.828-5.8-3.269-1.089-3.213,1.185-6.533,3.181-8.854-3.893.612-11.072,2.524-14.144-.949-2.047-2.315-.5-5.988,1.214-8,2.268-2.651,5.5-4.265,8.489-5.952-3.665-1.4-7.723-2.291-10.946-4.629-3.083-2.236-2.7-5.671-.267-8.309,2.6-2.819,7.155-4.263,10.734-5.31,4.391-1.284,8.753-1.181,13.278-1.095,8.121.154,15.1,3.148,21.757,7.674a85.265,85.265,0,0,1,10.116,7.874c2.93,2.718,6.055,5.246,8.941,7.994,2.8,2.662,5,5.961,7.949,8.448,2.51,2.115,5.262,5.112,8.451,6.051,3.381,1,6.425,2.642,9.835,3.622,3.868,1.111,7.191,2.97,10.776,4.743,15.044,7.441,31.195,12.284,47.056,17.626,8.113,2.732,16.279,4.658,24.562,6.745a41.388,41.388,0,0,0,12.314,1.417,15.635,15.635,0,0,1,2.911.068c.716.1,1.26.371,1.9-.057.919-.614,1.265-2.213,1.813-3.124-3.054-.947-6.045-1.971-7.438-5.1a28.515,28.515,0,0,1-1.719-6.39c-.207-1.139-.211-2.288-.388-3.428a10.733,10.733,0,0,1-.373-1.93c-.069.358-2.345-.819-2.675-1.037-1.274-.844-1.505-2.544-1.495-3.98a7.14,7.14,0,0,1,1.6-4.633,4.035,4.035,0,0,1,1.9-1.238c.538-.156,1.247.048,1.721-.109,2.1-.7,2.338-5.9,2.636-7.793a66.457,66.457,0,0,1,2.731-12.16,118.219,118.219,0,0,1,9.882-21.025c3.4-5.691,6.793-12.649,14.263-12.731Zm-64.583,175.23a71,71,0,0,0-8.842,2.5,79.383,79.383,0,0,1-8.291,1.937c-5.57,1.1-11.262,2.1-16.75,3.527-1.546.4-2.359,1.31-3.707,1.941-1,.468-1.938-.006-2.978-.046a25.958,25.958,0,0,0-6.953,1.2,62.878,62.878,0,0,0-14.353,6.048c-.416.223-3.231,1.511-3.1,2.044.108.435,3.686-.733,4.255-.82,2.881-.439,5.695-1.347,8.554-1.911,2.347-.463,4.721-.777,7.058-1.291,2.6-.572,8.141-2.561,8.362,1.734.238,4.643-4.889,6.07-7.971,8.236.343.592,5.288-1.361,5.9-1.558,2.1-.678,4.053-1.9,6.193-2.42,3.724-.905,3.273,3.208,1.217,5.037-2.284,2.033-6.062,2.647-7.327,5.775,1.661.6,3.833-.526,5.359-1.085q3.006-1.1,6.031-2.158c4.525-1.572,8.824-3.739,13.373-5.237,9.334-3.073,19.2-3.954,28.958-4.5-.87-3.373-1.82-6.726-2.6-10.121-.334-1.453-.641-2.913-.894-4.382-.176-1.022-.026-3.467-.73-4.273-.857-.982-3.09.4-4.305.371-1.19-.026-2.059-.64-3.159-.834A10.2,10.2,0,0,0,286.582,262.231ZM111.2,281.754c0,1.612-.28,3.568,1.841,3.756,1.715.152,5.071.348,6.439-.871a22.291,22.291,0,0,0-4.194-1.119A16.66,16.66,0,0,1,111.2,281.754Zm35-29.377a10.3,10.3,0,0,0-2.322.922c-1.077.366-2.171.675-3.271.966-3.3.875-7.557,1.011-9.074,4.557-.757,1.77-1.282,6.321-3.913,6.3-2.339-.015-3.739-3.39-5.407-4.591-1.724-1.241-4.458-.4-6.317.143-1.89.547-4.822,1.25-4.61,3.644a50.424,50.424,0,0,1,.449,5.047c-.018,2.239-.207,4.473-.207,6.712,1.327-1.818,2.484-5.472,4.834-6.2,2.374-.738,3.718,3.41,4.335,5a20.074,20.074,0,0,1,1.786,6.339c.018.67-.389,2.512.077,3.063.414.49,2.005.135,2.519.081,3.183-.331,6.348-.743,9.541-1.02,1.64-.142,2.086-.5,1.926-2.265a18.722,18.722,0,0,1,.009-4.1c.775-6.208,4.6-11.887,11.062-12.965,3.9-.65,8.444-.175,12.333.449,1.5.24,3.126.966,4.649.9,1.125-.047.763-.111.993-1.169a3.478,3.478,0,0,1,1.069-1.885c.445-.405,1.01-.177,1.429-.707.3-.384.258-.906.4-1.348.28-.86.785-2.021,1.791-2.238,1.619-.35,3.339,1.818,4.156,2.935.844,1.156,1.1,4.607,2.457,5.058,1.566.521,3.43-1.532,3.756-2.826.439-1.74-.114-3.622-.379-5.345a8.478,8.478,0,0,0-.181-1.343,8.95,8.95,0,0,0-2.256-.16c-1.5-.071-3-.075-4.5-.079a170.061,170.061,0,0,1-17.5-1.211c.849,1.385,2.3,3.658.811,5.12-1.106,1.083-3.1.54-4.492.763-1.963.315-5.272,2.178-7.142.816-2.636-1.92.346-5.218,1.325-7.033.21-.389.987-1.758.657-2.214C146.7,252.111,146.618,252.374,146.2,252.377Zm-43.9,21.336c-1.346.411-2.7.805-4.077,1.11-1.613.357-4.114.01-4.9,1.785a7.522,7.522,0,0,0,.184,4.87c.555,1.539,1.859,1.935,3.4,2.052a25.489,25.489,0,0,0,5.389-.4,16.336,16.336,0,0,1,2.156-.273c.422,0,1.273.385,1.648.069.486-.409.166-2.73.128-3.287-.094-1.378-.356-2.738-.427-4.119-.051-.991.323-2.339-.839-2.55C104.233,272.841,102.926,273.522,102.3,273.714Zm108.694-27.285a16.246,16.246,0,0,1-3.028.283c-.629-.01-1.383-.224-1.965.122-1.074.638-.914,2.317-.878,3.366.045,1.272.156,2.562.292,3.828.13,1.21.793,3.2-.144,4.239-.661-.724-.988-3.09-2.264-3-1.4.095-.755,2.338-.63,3.141.688,4.439,1.472,8.881,2.087,13.333.292,2.116.67,4.217.865,6.344.131,1.428.175,2.713,1.771,3.009,1.478.274,3.14-.194,4.634-.23,1.539-.037,2.42-.141,3.305-1.532-2.12-.464-5.477-.18-6.672-2.422-1.392-2.616,1.544-4.969,2.99-6.757,1.109-1.373,3.377-5.937,5.436-3.226.741.976.875,2.466,1.249,3.6.609,1.845,1.353,3.663,2.083,5.462a103.731,103.731,0,0,1,20.813-8.49c-1.857-3.138-4.155-5.964-5.545-9.365-1.557-3.812-2.847-7.728-4.44-11.528-2.524,1.473-5.223-2.1-7.737-2.242C219.243,244.132,214.884,245.754,210.991,246.428Zm-39.556,25.7c-1.384.825-3.421,2.428-3.753,4.086-.574,2.866,2.7.95,3.707.323a7.329,7.329,0,0,1,6.613-.923c3.113,1.037,5.982,2.789,9.324,1.458,1.662-.662,5.35-2.078,4.355-4.617-.686-1.75-2.694-.249-3.755.379-2.778,1.643-5.079.6-7.855-.584S174.168,270.5,171.435,272.127ZM72.841,257.419c-1.111,1.575,1.148,1.235,2.14,1.389,2.074.32,4.21,1.974,3.639,4.315-.557,2.282-2.741,3.708-3.157,6.1-.357,2.057-.013,4.66,1.973,5.79,1.116.634,3.554.9,4.677.167,1.715-1.112-.415-2.769-1.549-3.32-1.5-.73-2.717-1.126-1.973-3.044.907-2.339,2.668-4.133,2.512-6.809-.129-2.217-1.3-4.736-3.431-5.657A4.135,4.135,0,0,0,72.841,257.419Zm151.743-6.8c1.921-.082,2,2.24,1.9,3.381a46.56,46.56,0,0,0,.184,4.792c.043,2.074.478,8.868-3.191,7.859-2.359-.649-4.3-2.91-6.2-4.362-1.745-1.337-6.18-2.941-6.467-5.476-.324-2.863,3.173-3.4,5.177-3.854C218.851,252.314,221.628,250.75,224.584,250.623Zm-9.359-75.461a38.181,38.181,0,0,0-8.976,1.758c-1.962.685-4.975,1.176-6.365,2.856-1.2,1.453-.681,3.524-1.072,5.241-.529,2.322-2.132,2-3.687.555-1.861-1.736-2.4-2.993-4.99-1.364-5.363,3.372-9.615,8.351-13.869,12.964,3.289,1,9.743,1.237,10.835,5.347.6,2.247-1.2,3.882-2.821,5.108-2.089,1.584-4.269,3.048-6.312,4.7-1.907,1.537-6.182,7.656-7.391,2.276-.749-3.33.654-6.772.059-10.062-2.587,4.17-5.213,8.331-7.584,12.629a45.573,45.573,0,0,0-4.16,11.619c1.509.1,3.08-.667,4.572-.215a3.366,3.366,0,0,1,2.21,3.2c.172,2.387-.931,4.817-1.486,7.11-.381,1.575-.818,5.148-2.736,5.661-2.186.584-3.558-2.779-4.533-4.145-.928,1.426-.913,3.513-1.048,5.148-.093,1.124-.72,3.226.544,3.848,1.183.582,3.679-.147,4.945-.2,2.348-.1,4.742-.29,7.091-.221,2.219.066,5.485,1.252,6.352-1.476.59-1.857,1.11-8.531,4.259-4.91,1.4,1.608,2.493,3.441,3.844,5.079s2.6,1.761,4.637,1.677c4.029-.165,7.963.609,11.906,1.233,3.459.548,3.005-2.388,2.954-5-.079-4.052.725-8.289,1.163-12.318a120.627,120.627,0,0,1,6.471-28.11c-2.752-.937-7.686,2.844-9.721-.028-1.673-2.361.476-5.613,1.351-7.82,1.091-2.753,1.643-5.63,3.423-8.07.562-.77,1.361-1.8,2.448-1.543.933.223,1.3,1.413,1.83,2.084,1.666,2.131,3.8,3.729,5.276,6.053a12.693,12.693,0,0,1,1.905,4.61c.081.459-.022,1.4.3,1.784,1,1.193,4.157,1.176,5.559,1.907,4.788,2.5,6.47,9.772,8.329,14.358a22.571,22.571,0,0,1,1.322,3.955,9.181,9.181,0,0,0,.673,2.9c1.083,1.792,4.449.192,6.1-.086,2.768-.465,5.523-.909,8.3-1.3,1.7-.238,4.164-.853,5.457.65,1.34,1.558.569,4.011-.1,5.682-1.1,2.728-2.5,5.333-3.658,8.036-.924,2.156-1.384,4.933-3.16,6.594a4.962,4.962,0,0,1-5.894.681c-1.033-.669-3.687-7.136-4.387-6.847a112.611,112.611,0,0,0,5.075,14.856c.6,1.464,1.633,4.45,3.152,5.244,1.259.659,4.116-.586,5.4-.827,1.221-.229,3.633-1.221,4.8-.494,1.416.881,1.588,3.232,1.747,4.691.118,1.082-.1,1.889,1.22,1.835a14.007,14.007,0,0,0,2.753-.717c2.066-.527,4.21-.876,6.313-1.215q7.3-1.178,14.588-2.374c4.18-.692,8.305-.688,12.082-2.671,1.914-1,4.109-1.312,6.148-1.984a31.1,31.1,0,0,1,6.153-1.349c4.625-.547,9.126-1.083,13.7-2.02q3.752-.769,7.487-1.624c2.215-.511,4.356-1.324,6.56-1.825,1.834-.417,3.34-.1,4.125-2.185a17.9,17.9,0,0,0,.577-4.727c.661-7.137-1.838-14.315-2.349-21.413-.166-2.3-.217-4.6-.389-6.9-.079-1.052-.031-4.117-1.259-4.684-.112.842-.025,2.258-.981,2.675.467-.2-.146,2.283-.179,2.532-.131.993.2,2.055.023,3.029a.579.579,0,0,1-.178.774,1.211,1.211,0,0,0-.379.534c-.012.694.191.285.2.525.1,2.388-.308,4.864-.135,7.311.183,2.586.76,5.123,1.2,7.674.394,2.289.818,4.583,1.146,6.883.23,1.614.4,3.467-.467,4.936-1.649,2.789-6.423,2.486-9.2,2.942-4.621.759-9.249,1.443-13.887,2.087a45.135,45.135,0,0,1-5.384.84c-1.924.03-2.954-.747-4.168-2.167-2.444-2.861-4.021-6.111-6.057-9.223a5.738,5.738,0,0,0-4.02-2.743c-1.788-.5-3.223-1.8-4.678-2.885-3.056-2.279-7-4.758-9.007-8.115-2.11-3.532.863-4.705,3.711-5.669a22.931,22.931,0,0,0-3.171-4.905c-1.273-1.8-2.427-3.672-3.8-5.406-2.793-3.533-5.583-7.049-8.294-10.648a50.152,50.152,0,0,0-7.616-8.483,90.053,90.053,0,0,0-9.538-6.65c-1.7-1.095-4.695-3.892-6.848-3.606-2.089.278-2.915,4.168-3.437,5.8-.6,1.876-.81,4.493-2.205,5.97-2.05,2.171-4.179-1.249-5.158-2.825-1.792-2.887-3.625-5.748-5.415-8.637-.815-1.317-1.993-2.571-2.477-4.064-.006-.018-.232-1.3,0-1.122l.016.014-.015-.017c-.512-.507-2.4-.612-3.109-.674l-.065-.006A23.61,23.61,0,0,0,215.224,175.162Zm-19.971,80.949c-1.713-.01-3.421.189-5.125.328a30.011,30.011,0,0,1-4.365-.2c-1.849-.111-2.764.083-2.338,1.993.31,1.39.682,3.241,2.109,3.828,1.928.794,4.524.687,6.578.988,1.508.221,3.012.42,4.513.671,1,.167,1.509.342,1.976-.788a6.577,6.577,0,0,0,.006-3.19,9.822,9.822,0,0,0-.4-2.739C197.682,256.009,196.295,256.118,195.253,256.112ZM275.1,237.065c2.516,2.3,4.21,5.241,6.11,8.03,1.16,1.7,3.429,4.417,1.781,6.482-1.4,1.76-4.669,1.357-6.633,1.442-3.087.133-5.608,1.528-8.546,2.247-7.4,1.812-1.253-10.624-.229-13.219.72-1.82,1.461-3.633,2.331-5.388.392-.791,1.175-3.1,2.15-3.4C273.479,232.819,274.206,236.246,275.1,237.065Zm-63.566-26.147c-1.176,2.248-1.367,5.359-1.924,7.814a190.454,190.454,0,0,0-3.484,22.8c3.9-1.546,8.01-1.652,12.124-2.031a63.157,63.157,0,0,1,8.7-.461c.508.022,1.97.28,2.388-.153.562-.58-.119-2.2-.285-2.808-.9-3.313-1.3-6.737-2.328-10.03-1.047-3.358-2.32-6.711-3.674-9.958-.99-2.374-2.351-4.69-4.751-5.855C216.2,209.221,212.839,208.425,211.535,210.918Zm-16.048,14.609c1.605,2.42,3.639,4.538,5.207,6.981,1.112,1.733,2.414,4.938-.257,6.04a8.333,8.333,0,0,1-3.026.236c-1.519.026-3.023.157-4.545.121-1.439-.034-2.864-.209-4.3-.284a5.808,5.808,0,0,1-2.838-.5c-2.136-1.393-.591-4.239.1-6.059a52.681,52.681,0,0,1,2.669-5.6c.66-1.271,1.647-3.861,3.148-4.379C193.42,221.477,194.747,224.411,195.487,225.527ZM273.338,198.1a110.242,110.242,0,0,1,9.477,13.149c1.408,2.231,2.775,4.487,4.14,6.744.893,1.477,1.564,3.366,2.652,4.7,2.482,3.051,3.172-3.606,3.538-5.054,1.35-5.336,3.021-10.63,4.507-15.933h-1.524c-6.073,0-11.9-.093-17.81-1.882C276.645,199.327,275.119,198.227,273.338,198.1Zm-12.828,1.035c1.921,1.419,14.219,9.749,9.046,12.964-1.07.665-2.82.364-4.029.459-1.55.122-3.125.272-4.656.547-1.983.356-3.909.976-5.9,1.291-1.584.25-3.682.542-5.1-.444-2.334-1.627-.917-4.822-.147-6.891,1.1-2.939,2.133-6.873,4.85-8.624.632-.407,1.407-1.862,2.087-1.995C257.728,196.237,259.73,198.563,260.509,199.138Zm67.849-69.1c-.927.709-.97,2.183-1.21,3.223-.809,3.5-1.938,6.9-2.608,10.438A36.824,36.824,0,0,0,324,154.035c.214,2.331.239,5.2,1.655,7.183,1.7,2.375,5.053,2.253,7.592,2.957,2.443.677,4.865,2.773,2.2,4.952-.947.774-2.19.9-3.127,1.646a8.878,8.878,0,0,0-2.308,3.918c-.4,1.11-.392,1.322.815,1.715a4.278,4.278,0,0,0,1.688.245,9.03,9.03,0,0,0,3.6-1.637c2.82-1.671,6.077-3.9,9.443-4.154,1.076-.08,2.3.36,3.346.01.975-.326.676-.526.845-1.433.671-3.594.943-7.122,2.776-10.373.9-1.6,3.3-4.886,4.9-2.388.669,1.043.911,1.553,2.4,1.233,1.208-.26,2.536-1.216,2.3-2.611-.226-1.317-1.957-2.213-3.006-2.79-1.4-.768-2.378-.679-3.9-.861-4.182-.5-1.25-6.616-.647-8.91.379-1.442.822-3.306-.173-4.609-1.514-1.981-4.812-1.33-6.89-1.049-2.873.389-6.01.6-8.7-.708-2.845-1.379-4.057-4.491-6.725-6C331.1,129.806,329.371,129.26,328.358,130.036ZM340.843,155.3c1.977-.027,1.016,2.792.475,3.74a4.773,4.773,0,0,1-5.728,2.035c-1.7-.583-3.531-3.159-.874-3.586a11.989,11.989,0,0,0,3.743-.727C339.147,156.417,340.036,155.312,340.843,155.3Zm-4.959-14.989c1.228.746-.868,5.508-1.221,6.472-.575,1.573-1.087,2.589.376,3.8,1.017.843,3.023,1.571,2.065,3.251-.886,1.555-3.928.9-5.164.142-1.8-1.106-1.268-3.225-.871-4.964C331.328,147.876,333.7,138.985,335.884,140.312Zm-193.416-31.27a74.978,74.978,0,0,0,11.669,4.055c3.5.852,6.947,1.771,10.557,1.571,3.34-.185,3.738,3.1,1.83,5.368-1.036,1.234-2.239,1.2-3.749,1.251a23.057,23.057,0,0,0-5.079.986,75.28,75.28,0,0,0-7.743,2.181,18.355,18.355,0,0,0-3.738,1.83c-.728.484-2.353,1.357-1.494,2.034,1.242.978,4.93-.362,6.408-.45q5.164-.308,10.3-.947a21.936,21.936,0,0,0,5.064-1.029c1.039-.4,2.189-1.387,3.365-1.136,2.482.53,1.252,4.25.125,5.461-1.673,1.8-4.214,2.591-6.375,3.612-1.511.714-3.012,1.47-4.479,2.269-.693.378-3.923,1.792-3.82,2.865.107,1.129,2.656.559,3.287.457a51,51,0,0,0,11.892-3.976c1.7-.729,3.427-1.428,5.093-2.236a15.919,15.919,0,0,1,3.593-1.682c3.031-.605,2.9,2.78,4.092,4.609,3.548,5.436,10.4,7.755,15.735,10.9a56.017,56.017,0,0,1,5.793,3.988c1.322,1.022,1.851,2.429,3.327,1.081,1.23-1.124,1.824-2.771,2.613-4.2.918-1.664,2.145-3.132,3.086-4.782,1.391-2.438,1.808-4.763-1.247-5.66a26.17,26.17,0,0,1-8.47-4.349c-6.688-4.917-12.238-11.2-18.907-16.15-6.179-4.59-12.73-8.9-20.476-10.13C157.383,105.66,149.329,105.948,142.468,109.042ZM342.85,144.35c-.156,1.354-.49,4.24-2.37,4.348-2.284.131-.75-6.807.544-7.587C343.1,139.861,342.984,143.2,342.85,144.35ZM321.6,143.8c-2.851.236-3.663,3.358-.814,4.464Zm10.57-2.74c-.366,1.417-.236,3.691-1.373,4.779-1.6,1.533-2.3-.717-2.289-2s.64-4.441,2.338-4.609C332.3,139.085,331.09,140.767,332.171,141.057Zm30.764-31.528c-1.042,2.169.078,4.309.7,6.44-1.279.412-3,.1-3.784,1.453a5,5,0,0,0-.259,3.058c.121.757.742,1.777.225,2.479-.676.92-2.355.494-3.1,1.518-1.134,1.556-.5,5.11,1.093,6.281,2.236,1.645.9-2.392.765-3.128-.343-1.842,1.565-1.591,2.869-2.335.7-.4.824-.476.985-1.328a5.177,5.177,0,0,0-.117-2.253c-.634-2.87.475-2.4,2.754-3.033,1.966-.546,1.809-2.117,1.309-3.769-.392-1.295-1.56-3.419-.295-4.522.5-.438,1.265-.161,1.373-1.075.073-.617-.755-1.629-1.19-1.984C364.765,106.106,363.544,108.261,362.935,109.529Z" transform="translate(-45.979 -87.001)" fill-rule="evenodd"/>
    </g>
  </g>
</svg>
