<svg id="facebook_F" xmlns="http://www.w3.org/2000/svg" width="47.408" height="47.408" viewBox="0 0 47.408 47.408">
  <path id="Path_43" data-name="Path 43" d="M24.7,1a23.7,23.7,0,1,0,23.7,23.7A23.7,23.7,0,0,0,24.7,1Z" transform="translate(-1 -1)" fill="#8bb7f0"/>
  <path id="Path_44" data-name="Path 44" d="M48.225,23.224c0-.034.01-.066.014-.1A.948.948,0,0,0,48.225,23.224ZM1.071,23.116c.005.046.014.09.019.135C1.085,23.205,1.076,23.16,1.071,23.116ZM28.034,27h6.134l.963-6.231h-7.1V17.364c0-2.589.847-4.885,3.268-4.885h3.891V7.043a33.161,33.161,0,0,0-4.861-.295c-5.706,0-9.05,3.014-9.05,9.878v4.146H15.417V27h5.865V43.8a23.711,23.711,0,0,0,3.544.293,23.868,23.868,0,0,0,3.208-.242Z" transform="translate(-0.951 2.984)" fill="#fff"/>
  <g id="Group_14" data-name="Group 14">
    <path id="Path_45" data-name="Path 45" d="M24.7,2.693A22.011,22.011,0,1,1,2.693,24.7,22.036,22.036,0,0,1,24.7,2.693M24.7,1a23.7,23.7,0,1,0,23.7,23.7A23.7,23.7,0,0,0,24.7,1Z" transform="translate(-1 -1)" fill="#4e7ab5"/>
  </g>
</svg>
