<svg id="google_G" xmlns="http://www.w3.org/2000/svg" width="47.41" height="47.408" viewBox="0 0 47.41 47.408">
  <path id="Path_39" data-name="Path 39" d="M7.943,53.723a27.463,27.463,0,0,0-.375-4.484H-14.754v8.909h12.78a11,11,0,0,1-4.741,7.072v5.926H.91C5.375,67.017,7.943,60.933,7.943,53.723Z" transform="translate(39.467 -29.486)" fill="#4285f4"/>
  <path id="Path_40" data-name="Path 40" d="M-4.308,72.709a22.579,22.579,0,0,0,15.664-5.748L3.731,61.035a14.3,14.3,0,0,1-8.04,2.291,14.156,14.156,0,0,1-13.294-9.8h-7.862v6.1A23.668,23.668,0,0,0-4.308,72.709Z" transform="translate(28.012 -25.302)" fill="#34a853"/>
  <path id="Path_41" data-name="Path 41" d="M-16.344,61.01a13.755,13.755,0,0,1-.751-4.524,14.29,14.29,0,0,1,.751-4.523v-6.1h-7.862a23.429,23.429,0,0,0-2.548,10.627,23.429,23.429,0,0,0,2.548,10.627Z" transform="translate(26.754 -32.782)" fill="#fbbc05"/>
  <path id="Path_42" data-name="Path 42" d="M-3.731,48.622A13.41,13.41,0,0,1,5.6,52.177l6.94-6.756A23.629,23.629,0,0,0-3.731,39.239,24.388,24.388,0,0,0-25.464,52.316l8.076,6.1A14.5,14.5,0,0,1-3.731,48.622Z" transform="translate(28.012 -39.239)" fill="#ea4335"/>
</svg>
