<svg xmlns="http://www.w3.org/2000/svg" width="57" height="57" viewBox="0 0 57 57">
  <g id="Group_4" data-name="Group 4" transform="translate(-0.034 0.543)">
    <circle id="Ellipse_2" data-name="Ellipse 2" cx="28.5" cy="28.5" r="28.5" transform="translate(0.034 -0.543)" fill="#f56968"/>
    <g id="svgg" transform="translate(16.702 15.958)">
      <path id="path0" d="M47.55,66.331a2.519,2.519,0,0,0-1.98,2.605c0,.69.041.879,1,4.625l1,3.905h4.958c5.35,0,5.216-.009,5.486.375a.855.855,0,0,1,0,.833c-.269.385-.136.375-5.486.375H47.577l-1.021,4.013c-1.131,4.443-1.166,4.663-.869,5.457a2.72,2.72,0,0,0,3.124,1.668c.479-.115,22.678-9.3,23.251-9.62a2.734,2.734,0,0,0-.072-4.654c-.238-.128-5.523-2.342-11.746-4.919-12.466-5.164-11.8-4.921-12.693-4.664" transform="translate(-45.528 -66.22)" fill="#fff" fill-rule="evenodd"/>
    </g>
  </g>
</svg>
